{
.appVersion = "1342";
copyright = "Copyright 2020 Google LLC. All Rights Reserved.";
customParameters = (
{
name = vendorID;
value = GOOG;
},
{
name = panose;
value = (
2,
11,
6,
9,
4,
0,
0,
0,
0,
0
);
},
{
name = unicodeRanges;
value = (
0,
57,
59
);
},
{
name = fsType;
value = (
);
},
{
name = blueShift;
value = 20;
},
{
name = glyphOrder;
value = (
.notdef,
space,
comma,
hyphen,
period,
zero,
one,
two,
three,
four,
five,
six,
seven,
eight,
nine,
A,
B,
C,
D,
E,
F,
G,
H,
I,
J,
K,
L,
M,
N,
O,
P,
Q,
R,
S,
T,
U,
V,
W,
X,
Y,
Z,
a,
b,
c,
d,
e,
f,
g,
h,
i,
j,
k,
l,
m,
n,
o,
p,
q,
r,
s,
t,
u,
v,
w,
x,
y,
z,
ensp,
emsp,
uni3000,
uni3002,
uni4E00,
uni4E66,
uni4EBA,
uni53E9,
uni5973,
uni662F,
uni6C38,
uni6D4B,
uni7136,
uni7532,
uni7684,
uni8BD5,
uni8FD9,
uni91CC,
uni9762,
uni97E9,
uni9875,
uniE000,
uniE001,
uniE002,
uniE003,
uniE004,
uniE005,
uniE006,
uniE007,
uniE008,
uniFE12,
u16FE1,
u1B170,
u1B171,
u1B172,
u1B173,
u1B174,
u1B175,
u1B176,
u1B177,
u1B178,
u1B179,
u1B17A,
u1B17B,
u1B17C,
u1B17D,
u1B17E,
u1B17F,
u1B180,
u1B181,
u1B182,
u1B183,
u1B184,
u1B185,
u1B186,
u1B187,
u1B188,
u1B189,
u1B18A,
u1B18B,
u1B18C,
u1B18D,
u1B18E,
u1B18F,
u1B190,
u1B191,
u1B192,
u1B193,
u1B194,
u1B195,
u1B196,
u1B197,
u1B198,
u1B199,
u1B19A,
u1B19B,
u1B19C,
u1B19D,
u1B19E,
u1B19F,
u1B1A0,
u1B1A1,
u1B1A2,
u1B1A3,
u1B1A4,
u1B1A5,
u1B1A6,
u1B1A7,
u1B1A8,
u1B1A9,
u1B1AA,
u1B1AB,
u1B1AC,
u1B1AD,
u1B1AE,
u1B1AF,
u1B1B0,
u1B1B1,
u1B1B2,
u1B1B3,
u1B1B4,
u1B1B5,
u1B1B6,
u1B1B7,
u1B1B8,
u1B1B9,
u1B1BA,
u1B1BB,
u1B1BC,
u1B1BD,
u1B1BE,
u1B1BF,
u1B1C0,
u1B1C1,
u1B1C2,
u1B1C3,
u1B1C4,
u1B1C5,
u1B1C6,
u1B1C7,
u1B1C8,
u1B1C9,
u1B1CA,
u1B1CB,
u1B1CC,
u1B1CD,
u1B1CE,
u1B1CF,
u1B1D0,
u1B1D1,
u1B1D2,
u1B1D3,
u1B1D4,
u1B1D5,
u1B1D6,
u1B1D7,
u1B1D8,
u1B1D9,
u1B1DA,
u1B1DB,
u1B1DC,
u1B1DD,
u1B1DE,
u1B1DF,
u1B1E0,
u1B1E1,
u1B1E2,
u1B1E3,
u1B1E4,
u1B1E5,
u1B1E6,
u1B1E7,
u1B1E8,
u1B1E9,
u1B1EA,
u1B1EB,
u1B1EC,
u1B1ED,
u1B1EE,
u1B1EF,
u1B1F0,
u1B1F1,
u1B1F2,
u1B1F3,
u1B1F4,
u1B1F5,
u1B1F6,
u1B1F7,
u1B1F8,
u1B1F9,

glyphs = (
{
glyphname = .notdef;
layers = (
{
layerId = "0DB0C058-2990-4612-9839-2732D7BB62C5";
paths = (
{
closed = 1;
nodes = (
"34 0 LINE",
"306 0 LINE",
"306 682 LINE",
"34 682 LINE"
);
},
{
closed = 1;
nodes = (
"68 34 LINE",
"68 648 LINE",
"272 648 LINE",
"272 34 LINE"
);
}
);
vertWidth = 1024;
width = 1024;
}
);
note = .notdef;
},
{
glyphname = comma;
layers = (
{
hints = (
{
horizontal = 1;
place = "{-1, 128}";
type = Stem;
},
{
place = "{153, 68}";
type = Stem;
}
);
layerId = "0DB0C058-2990-4612-9839-2732D7BB62C5";
paths = (
{
closed = 1;
nodes = (
"75 -190 LINE",
"120.33 -170.67 OFFCURVE",
"156 -142.83 OFFCURVE",
"182 -106.5 CURVE SMOOTH",
"208 -70.17 OFFCURVE",
"221 -28.33 OFFCURVE",
"221 19 CURVE SMOOTH",
"221 52.33 OFFCURVE",
"214.17 78.67 OFFCURVE",
"200.5 98 CURVE SMOOTH",
"186.83 117.33 OFFCURVE",
"168 127 OFFCURVE",
"144 127 CURVE SMOOTH",
"124.67 127 OFFCURVE",
"108.33 121 OFFCURVE",
"95 109 CURVE SMOOTH",
"81.67 97 OFFCURVE",
"75 81.67 OFFCURVE",
"75 63 CURVE SMOOTH",
"75 43 OFFCURVE",
"81.5 27.33 OFFCURVE",
"94.5 16 CURVE SMOOTH",
"107.5 4.67 OFFCURVE",
"123.33 -1 OFFCURVE",
"142 -1 CURVE SMOOTH",
"146.67 -1 OFFCURVE",
"150.33 -0.67 OFFCURVE",
"153 0 CURVE",
"151.67 -62 OFFCURVE",
"118.33 -107.33 OFFCURVE",
"53 -136 CURVE"
);
}
);
vertWidth = 1000;
width = 278;
}
);
note = comma;
unicode = 002C;
},
{
glyphname = period;
layers = (
{
hints = (
{
horizontal = 1;
place = "{-13, 21}";
target = up;
type = BottomGhost;
},
{
place = "{73, 132}";
type = Stem;
},
{
horizontal = 1;
place = "{-13, 140}";
type = Stem;
}
);
layerId = "0DB0C058-2990-4612-9839-2732D7BB62C5";
paths = (
{
closed = 1;
nodes = (
"157.67 -13 OFFCURVE",
"173.33 -6.5 OFFCURVE",
"186 6.5 CURVE SMOOTH",
"198.67 19.5 OFFCURVE",
"205 36 OFFCURVE",
"205 56 CURVE SMOOTH",
"205 76 OFFCURVE",
"198.5 92.83 OFFCURVE",
"185.5 106.5 CURVE SMOOTH",
"172.5 120.17 OFFCURVE",
"157 127 OFFCURVE",
"139 127 CURVE SMOOTH",
"121 127 OFFCURVE",
"105.5 120.17 OFFCURVE",
"92.5 106.5 CURVE SMOOTH",
"79.5 92.83 OFFCURVE",
"73 76 OFFCURVE",
"73 56 CURVE SMOOTH",
"73 36 OFFCURVE",
"79.33 19.5 OFFCURVE",
"92 6.5 CURVE SMOOTH",
"104.67 -6.5 OFFCURVE",
"120.33 -13 OFFCURVE",
"139 -13 CURVE SMOOTH"
);
}
);
vertWidth = 1000;
width = 278;
}
);
note = period;
unicode = 002E;
},
{
glyphname = zero;
layers = (
{
hints = (
{
horizontal = 1;
place = "{-13, 73}";
type = Stem;
},
{
horizontal = 1;
place = "{673, 74}";
type = Stem;
},
{
place = "{49, 89}";
type = Stem;
},
{
place = "{417, 89}";
type = Stem;
}
);
layerId = "0DB0C058-2990-4612-9839-2732D7BB62C5";
paths = (
{
closed = 1;
nodes = (
"349.33 -13 OFFCURVE",
"405.17 19.5 OFFCURVE",
"445.5 84.5 CURVE SMOOTH",
"485.83 149.5 OFFCURVE",
"506 244.33 OFFCURVE",
"506 369 CURVE SMOOTH",
"506 493 OFFCURVE",
"485.83 587 OFFCURVE",
"445.5 651 CURVE SMOOTH",
"405.17 715 OFFCURVE",
"349.33 747 OFFCURVE",
"278 747 CURVE SMOOTH",
"206 747 OFFCURVE",
"149.83 715.17 OFFCURVE",
"109.5 651.5 CURVE SMOOTH",
"69.17 587.83 OFFCURVE",
"49 493.67 OFFCURVE",
"49 369 CURVE SMOOTH",
"49 244.33 OFFCURVE",
"69.33 149.5 OFFCURVE",
"110 84.5 CURVE SMOOTH",
"150.67 19.5 OFFCURVE",
"206.67 -13 OFFCURVE",
"278 -13 CURVE SMOOTH"
);
},
{
closed = 1;
nodes = (
"234 60 OFFCURVE",
"199.67 85.33 OFFCURVE",
"175 136 CURVE SMOOTH",
"150.33 186.67 OFFCURVE",
"138 264.33 OFFCURVE",
"138 369 CURVE SMOOTH",
"138 472.33 OFFCURVE",
"150.33 548.83 OFFCURVE",
"175 598.5 CURVE SMOOTH",
"199.67 648.17 OFFCURVE",
"234 673 OFFCURVE",
"278 673 CURVE SMOOTH",
"321.33 673 OFFCURVE",
"355.33 648.17 OFFCURVE",
"380 598.5 CURVE SMOOTH",
"404.67 548.83 OFFCURVE",
"417 472.33 OFFCURVE",
"417 369 CURVE SMOOTH",
"417 265 OFFCURVE",
"404.67 187.5 OFFCURVE",
"380 136.5 CURVE SMOOTH",
"355.33 85.5 OFFCURVE",
"321.33 60 OFFCURVE",
"278 60 CURVE SMOOTH"
);
}
);
vertWidth = 1000;
width = 555;
}
);
note = zero;
unicode = 0030;
},
{
glyphname = one;
layers = (
{
hints = (
{
horizontal = 1;
place = "{0, 76}";
type = Stem;
},
{
horizontal = 1;
place = "{623, 110}";
type = Stem;
},
{
place = "{251, 92}";
type = Stem;
}
);
layerId = "0DB0C058-2990-4612-9839-2732D7BB62C5";
paths = (
{
closed = 1;
nodes = (
"88 76 LINE",
"88 0 LINE",
"490 0 LINE",
"490 76 LINE",
"343 76 LINE",
"343 733 LINE",
"273 733 LINE",
"232.33 709.67 OFFCURVE",
"181.67 692.33 OFFCURVE",
"121 681 CURVE",
"121 623 LINE",
"251 623 LINE",
"251 76 LINE"
);
}
);
vertWidth = 1000;
width = 555;
}
);
note = one;
unicode = 0031;
},
{
glyphname = two;
layers = (
{
hints = (
{
horizontal = 1;
place = "{0, 79}";
type = Stem;
},
{
horizontal = 1;
place = "{672, 75}";
type = Stem;
},
{
place = "{380, 89}";
type = Stem;
}
);
layerId = "0DB0C058-2990-4612-9839-2732D7BB62C5";
paths = (
{
closed = 1;
nodes = (
"44 0 LINE",
"505 0 LINE",
"505 79 LINE",
"302 79 LINE SMOOTH",
"281.33 79 OFFCURVE",
"241.33 76.67 OFFCURVE",
"182 72 CURVE",
"275.33 160.67 OFFCURVE",
"346.5 242 OFFCURVE",
"395.5 316 CURVE SMOOTH",
"444.5 390 OFFCURVE",
"469 461.33 OFFCURVE",
"469 530 CURVE SMOOTH",
"469 596 OFFCURVE",
"449.83 648.67 OFFCURVE",
"411.5 688 CURVE SMOOTH",
"373.17 727.33 OFFCURVE",
"321.33 747 OFFCURVE",
"256 747 CURVE SMOOTH",
"212 747 OFFCURVE",
"173.17 737.83 OFFCURVE",
"139.5 719.5 CURVE SMOOTH",
"105.83 701.17 OFFCURVE",
"72.67 674.33 OFFCURVE",
"40 639 CURVE",
"93 587 LINE",
"140.33 643.67 OFFCURVE",
"191 672 OFFCURVE",
"245 672 CURVE SMOOTH",
"289 672 OFFCURVE",
"322.5 658.83 OFFCURVE",
"345.5 632.5 CURVE SMOOTH",
"368.5 606.17 OFFCURVE",
"380 571 OFFCURVE",
"380 527 CURVE SMOOTH",
"380 464.33 OFFCURVE",
"353 395.17 OFFCURVE",
"299 319.5 CURVE SMOOTH",
"245 243.83 OFFCURVE",
"160 155.33 OFFCURVE",
"44 54 CURVE"
);
}
);
vertWidth = 1000;
width = 555;
}
);
note = two;
unicode = 0032;
},
{
glyphname = three;
layers = (
{
hints = (
{
horizontal = 1;
place = "{-13, 76}";
type = Stem;
},
{
horizontal = 1;
place = "{346, 70}";
type = Stem;
},
{
horizontal = 1;
place = "{674, 73}";
type = Stem;
},
{
place = "{178, 165}";
type = Stem;
},
{
place = "{406, 93}";
type = Stem;
},
{
place = "{381, 93}";
type = Stem;
}
);
layerId = "0DB0C058-2990-4612-9839-2732D7BB62C5";
paths = (
{
closed = 1;
nodes = (
"331.33 -13 OFFCURVE",
"387.33 5.83 OFFCURVE",
"432 43.5 CURVE SMOOTH",
"476.67 81.17 OFFCURVE",
"499 132 OFFCURVE",
"499 196 CURVE SMOOTH",
"499 244 OFFCURVE",
"484.33 284.33 OFFCURVE",
"455 317 CURVE SMOOTH",
"425.67 349.67 OFFCURVE",
"388.33 371.33 OFFCURVE",
"343 382 CURVE",
"343 386 LINE",
"430.33 418.67 OFFCURVE",
"474 477.67 OFFCURVE",
"474 563 CURVE SMOOTH",
"474 620.33 OFFCURVE",
"454.33 665.33 OFFCURVE",
"415 698 CURVE SMOOTH",
"375.67 730.67 OFFCURVE",
"324.33 747 OFFCURVE",
"261 747 CURVE SMOOTH",
"187.67 747 OFFCURVE",
"119.33 717.67 OFFCURVE",
"56 659 CURVE",
"105 601 LINE",
"151.67 647.67 OFFCURVE",
"202.33 672 OFFCURVE",
"257 674 CURVE",
"295 672.67 OFFCURVE",
"325.17 661.5 OFFCURVE",
"347.5 640.5 CURVE SMOOTH",
"369.83 619.5 OFFCURVE",
"381 591.33 OFFCURVE",
"381 556 CURVE SMOOTH",
"381 462.67 OFFCURVE",
"313.33 416 OFFCURVE",
"178 416 CURVE",
"178 346 LINE",
"330 346 OFFCURVE",
"406 297 OFFCURVE",
"406 199 CURVE SMOOTH",
"406 157.67 OFFCURVE",
"392.17 124.67 OFFCURVE",
"364.5 100 CURVE SMOOTH",
"336.83 75.33 OFFCURVE",
"301 63 OFFCURVE",
"257 63 CURVE SMOOTH",
"189 63 OFFCURVE",
"128.33 91 OFFCURVE",
"75 147 CURVE",
"29 87 LINE",
"90.33 20.33 OFFCURVE",
"168.67 -13 OFFCURVE",
"264 -13 CURVE SMOOTH"
);
}
);
vertWidth = 1000;
width = 555;
}
);
note = three;
unicode = 0033;
},
{
glyphname = four;
layers = (
{
hints = (
{
horizontal = 1;
place = "{0, 21}";
target = up;
type = BottomGhost;
},
{
horizontal = 1;
place = "{202, 73}";
type = Stem;
},
{
horizontal = 1;
place = "{633, 100}";
type = Stem;
},
{
place = "{339, 87}";
type = Stem;
}
);
layerId = "0DB0C058-2990-4612-9839-2732D7BB62C5";
paths = (
{
closed = 1;
nodes = (
"339 275 LINE",
"115 275 LINE",
"282 525 LINE",
"305.33 565 OFFCURVE",
"325 601 OFFCURVE",
"341 633 CURVE",
"345 633 LINE",
"341 557 OFFCURVE",
"339 512.67 OFFCURVE",
"339 500 CURVE SMOOTH"
);
},
{
closed = 1;
nodes = (
"523 202 LINE",
"523 275 LINE",
"426 275 LINE",
"426 733 LINE",
"325 733 LINE",
"20 262 LINE",
"20 202 LINE",
"339 202 LINE",
"339 0 LINE",
"426 0 LINE",
"426 202 LINE"
);
}
);
vertWidth = 1000;
width = 555;
}
);
note = four;
unicode = 0034;
},
{
glyphname = five;
layers = (
{
hints = (
{
horizontal = 1;
place = "{-13, 76}";
type = Stem;
},
{
horizontal = 1;
place = "{403, 69}";
type = Stem;
},
{
horizontal = 1;
place = "{655, 78}";
type = Stem;
},
{
place = "{409, 92}";
type = Stem;
}
);
layerId = "0DB0C058-2990-4612-9839-2732D7BB62C5";
paths = (
{
closed = 1;
nodes = (
"326.33 -13 OFFCURVE",
"382.67 9.67 OFFCURVE",
"430 55 CURVE SMOOTH",
"477.33 100.33 OFFCURVE",
"501 161.67 OFFCURVE",
"501 239 CURVE SMOOTH",
"501 315.67 OFFCURVE",
"480.33 373.67 OFFCURVE",
"439 413 CURVE SMOOTH",
"397.67 452.33 OFFCURVE",
"344.67 472 OFFCURVE",
"280 472 CURVE SMOOTH",
"242 472 OFFCURVE",
"205.67 462.33 OFFCURVE",
"171 443 CURVE",
"189 655 LINE",
"466 655 LINE",
"466 733 LINE",
"109 733 LINE",
"86 390 LINE",
"135 360 LINE",
"178.33 388.67 OFFCURVE",
"219 403 OFFCURVE",
"257 403 CURVE SMOOTH",
"303.67 403 OFFCURVE",
"340.67 388.17 OFFCURVE",
"368 358.5 CURVE SMOOTH",
"395.33 328.83 OFFCURVE",
"409 288 OFFCURVE",
"409 236 CURVE SMOOTH",
"409 184 OFFCURVE",
"394 142.17 OFFCURVE",
"364 110.5 CURVE SMOOTH",
"334 78.83 OFFCURVE",
"297 63 OFFCURVE",
"253 63 CURVE SMOOTH",
"187 63 OFFCURVE",
"127 90 OFFCURVE",
"73 144 CURVE",
"28 84 LINE",
"92.67 19.33 OFFCURVE",
"170.33 -13 OFFCURVE",
"261 -13 CURVE SMOOTH"
);
}
);
vertWidth = 1000;
width = 555;
}
);
note = five;
unicode = 0035;
},
{
glyphname = six;
layers = (
{
hints = (
{
horizontal = 1;
place = "{-13, 71}";
type = Stem;
},
{
horizontal = 1;
place = "{387, 68}";
type = Stem;
},
{
horizontal = 1;
place = "{671, 76}";
type = Stem;
},
{
place = "{56, 85}";
type = Stem;
},
{
place = "{425, 86}";
type = Stem;
}
);
layerId = "0DB0C058-2990-4612-9839-2732D7BB62C5";
paths = (
{
closed = 1;
nodes = (
"255 58 OFFCURVE",
"218.5 78.17 OFFCURVE",
"191.5 118.5 CURVE SMOOTH",
"164.5 158.83 OFFCURVE",
"148.33 217 OFFCURVE",
"143 293 CURVE",
"187 355.67 OFFCURVE",
"237 387 OFFCURVE",
"293 387 CURVE SMOOTH",
"336.33 387 OFFCURVE",
"369.17 372.67 OFFCURVE",
"391.5 344 CURVE SMOOTH",
"413.83 315.33 OFFCURVE",
"425 275.67 OFFCURVE",
"425 225 CURVE SMOOTH",
"425 175.67 OFFCURVE",
"413.17 135.5 OFFCURVE",
"389.5 104.5 CURVE SMOOTH",
"365.83 73.5 OFFCURVE",
"336.33 58 OFFCURVE",
"301 58 CURVE SMOOTH"
);
},
{
closed = 1;
nodes = (
"498 672 LINE",
"451.33 722 OFFCURVE",
"394.33 747 OFFCURVE",
"327 747 CURVE SMOOTH",
"249 747 OFFCURVE",
"184.33 714.5 OFFCURVE",
"133 649.5 CURVE SMOOTH",
"81.67 584.5 OFFCURVE",
"56 484.67 OFFCURVE",
"56 350 CURVE SMOOTH",
"56 232.67 OFFCURVE",
"78.5 142.83 OFFCURVE",
"123.5 80.5 CURVE SMOOTH",
"168.5 18.17 OFFCURVE",
"227.67 -13 OFFCURVE",
"301 -13 CURVE SMOOTH",
"359.67 -13 OFFCURVE",
"409.33 9.33 OFFCURVE",
"450 54 CURVE SMOOTH",
"490.67 98.67 OFFCURVE",
"511 155.67 OFFCURVE",
"511 225 CURVE SMOOTH",
"511 299.67 OFFCURVE",
"493 356.67 OFFCURVE",
"457 396 CURVE SMOOTH",
"421 435.33 OFFCURVE",
"371.33 455 OFFCURVE",
"308 455 CURVE SMOOTH",
"278.67 455 OFFCURVE",
"249.17 447 OFFCURVE",
"219.5 431 CURVE SMOOTH",
"189.83 415 OFFCURVE",
"163.67 393.33 OFFCURVE",
"141 366 CURVE",
"143 472.67 OFFCURVE",
"161.33 550.17 OFFCURVE",
"196 598.5 CURVE SMOOTH",
"230.67 646.83 OFFCURVE",
"275.33 671 OFFCURVE",
"330 671 CURVE SMOOTH",
"378 671 OFFCURVE",
"417.33 652.33 OFFCURVE",
"448 615 CURVE"
);
}
);
vertWidth = 1000;
width = 555;
}
);
note = six;
unicode = 0036;
},
{
glyphname = seven;
layers = (
{
hints = (
{
horizontal = 1;
place = "{0, 21}";
target = up;
type = BottomGhost;
},
{
horizontal = 1;
place = "{655, 78}";
type = Stem;
},
{
place = "{198, 95}";
type = Stem;
}
);
layerId = "0DB0C058-2990-4612-9839-2732D7BB62C5";
paths = (
{
closed = 1;
nodes = (
"293 0 LINE",
"299 155.33 OFFCURVE",
"316 281 OFFCURVE",
"344 377 CURVE SMOOTH",
"372 473 OFFCURVE",
"426.67 573.33 OFFCURVE",
"508 678 CURVE",
"508 733 LINE",
"49 733 LINE",
"49 655 LINE",
"404 655 LINE",
"333.33 556.33 OFFCURVE",
"282.83 457.83 OFFCURVE",
"252.5 359.5 CURVE SMOOTH",
"222.17 261.17 OFFCURVE",
"204 141.33 OFFCURVE",
"198 0 CURVE"
);
}
);
vertWidth = 1000;
width = 555;
}
);
note = seven;
unicode = 0037;
},
{
glyphname = eight;
layers = (
{
hints = (
{
horizontal = 1;
place = "{-13, 68}";
type = Stem;
},
{
horizontal = 1;
place = "{677, 67}";
type = Stem;
},
{
place = "{422, 87}";
type = Stem;
},
{
place = "{81, 83}";
type = Stem;
},
{
place = "{405, 78}";
type = Stem;
},
{
place = "{45, 83}";
type = Stem;
}
);
layerId = "0DB0C058-2990-4612-9839-2732D7BB62C5";
paths = (
{
closed = 1;
nodes = (
"347 -13 OFFCURVE",
"402.33 5.17 OFFCURVE",
"445 41.5 CURVE SMOOTH",
"487.67 77.83 OFFCURVE",
"509 123 OFFCURVE",
"509 177 CURVE SMOOTH",
"509 257 OFFCURVE",
"467.67 321 OFFCURVE",
"385 369 CURVE",
"385 374 LINE",
"411 394 OFFCURVE",
"433.83 419.67 OFFCURVE",
"453.5 451 CURVE SMOOTH",
"473.17 482.33 OFFCURVE",
"483 515.67 OFFCURVE",
"483 551 CURVE SMOOTH",
"483 608.33 OFFCURVE",
"464.83 654.83 OFFCURVE",
"428.5 690.5 CURVE SMOOTH",
"392.17 726.17 OFFCURVE",
"343.33 744 OFFCURVE",
"282 744 CURVE SMOOTH",
"224 744 OFFCURVE",
"176 726.83 OFFCURVE",
"138 692.5 CURVE SMOOTH",
"100 658.17 OFFCURVE",
"81 613.33 OFFCURVE",
"81 558 CURVE SMOOTH",
"81 490.67 OFFCURVE",
"114 434.33 OFFCURVE",
"180 389 CURVE",
"180 384 LINE",
"142 363.33 OFFCURVE",
"110 335.83 OFFCURVE",
"84 301.5 CURVE SMOOTH",
"58 267.17 OFFCURVE",
"45 227.33 OFFCURVE",
"45 182 CURVE SMOOTH",
"45 125.33 OFFCURVE",
"67.17 78.67 OFFCURVE",
"111.5 42 CURVE SMOOTH",
"155.83 5.33 OFFCURVE",
"211.67 -13 OFFCURVE",
"279 -13 CURVE SMOOTH"
);
},
{
closed = 1;
nodes = (
"275.67 419.33 OFFCURVE",
"234.83 441.5 OFFCURVE",
"206.5 464.5 CURVE SMOOTH",
"178.17 487.5 OFFCURVE",
"164 518.67 OFFCURVE",
"164 558 CURVE SMOOTH",
"164 593.33 OFFCURVE",
"174.83 622 OFFCURVE",
"196.5 644 CURVE SMOOTH",
"218.17 666 OFFCURVE",
"246 677 OFFCURVE",
"280 677 CURVE SMOOTH",
"318 677 OFFCURVE",
"348.33 664.5 OFFCURVE",
"371 639.5 CURVE SMOOTH",
"393.67 614.5 OFFCURVE",
"405 583.33 OFFCURVE",
"405 546 CURVE SMOOTH",
"405 492 OFFCURVE",
"379.67 442.67 OFFCURVE",
"329 398 CURVE"
);
},
{
closed = 1;
nodes = (
"237 55 OFFCURVE",
"200.5 67.83 OFFCURVE",
"171.5 93.5 CURVE SMOOTH",
"142.5 119.17 OFFCURVE",
"128 151.33 OFFCURVE",
"128 190 CURVE SMOOTH",
"128 258 OFFCURVE",
"161.33 313.33 OFFCURVE",
"228 356 CURVE",
"262 342.67 OFFCURVE",
"287.5 331.83 OFFCURVE",
"304.5 323.5 CURVE SMOOTH",
"321.5 315.17 OFFCURVE",
"340.67 303.83 OFFCURVE",
"362 289.5 CURVE SMOOTH",
"383.33 275.17 OFFCURVE",
"398.67 259 OFFCURVE",
"408 241 CURVE SMOOTH",
"417.33 223 OFFCURVE",
"422 202.33 OFFCURVE",
"422 179 CURVE SMOOTH",
"422 142.33 OFFCURVE",
"409 112.5 OFFCURVE",
"383 89.5 CURVE SMOOTH",
"357 66.5 OFFCURVE",
"323 55 OFFCURVE",
"281 55 CURVE SMOOTH"
);
}
);
vertWidth = 1000;
width = 555;
}
);
note = eight;
unicode = 0038;
},
{
glyphname = nine;
layers = (
{
hints = (
{
horizontal = 1;
place = "{-13, 76}";
type = Stem;
},
{
horizontal = 1;
place = "{278, 68}";
type = Stem;
},
{
horizontal = 1;
place = "{675, 72}";
type = Stem;
},
{
place = "{44, 86}";
type = Stem;
},
{
place = "{415, 85}";
type = Stem;
}
);
layerId = "0DB0C058-2990-4612-9839-2732D7BB62C5";
paths = (
{
closed = 1;
nodes = (
"218.33 346 OFFCURVE",
"185.83 360.5 OFFCURVE",
"163.5 389.5 CURVE SMOOTH",
"141.17 418.5 OFFCURVE",
"130 458.33 OFFCURVE",
"130 509 CURVE SMOOTH",
"130 558.33 OFFCURVE",
"141.83 598.33 OFFCURVE",
"165.5 629 CURVE SMOOTH",
"189.17 659.67 OFFCURVE",
"218.67 675 OFFCURVE",
"254 675 CURVE SMOOTH",
"301.33 675 OFFCURVE",
"338.67 655.33 OFFCURVE",
"366 616 CURVE SMOOTH",
"393.33 576.67 OFFCURVE",
"409.33 519.33 OFFCURVE",
"414 444 CURVE",
"368 378.67 OFFCURVE",
"317 346 OFFCURVE",
"261 346 CURVE SMOOTH"
);
},
{
closed = 1;
nodes = (
"58 62 LINE",
"106 12 OFFCURVE",
"164.67 -13 OFFCURVE",
"234 -13 CURVE SMOOTH",
"270 -13 OFFCURVE",
"303.33 -5.33 OFFCURVE",
"334 10 CURVE SMOOTH",
"364.67 25.33 OFFCURVE",
"392.67 48.83 OFFCURVE",
"418 80.5 CURVE SMOOTH",
"443.33 112.17 OFFCURVE",
"463.33 155.17 OFFCURVE",
"478 209.5 CURVE SMOOTH",
"492.67 263.83 OFFCURVE",
"500 326.67 OFFCURVE",
"500 398 CURVE SMOOTH",
"500 510.67 OFFCURVE",
"477.33 597 OFFCURVE",
"432 657 CURVE SMOOTH",
"386.67 717 OFFCURVE",
"327.33 747 OFFCURVE",
"254 747 CURVE SMOOTH",
"195.33 747 OFFCURVE",
"145.67 724.67 OFFCURVE",
"105 680 CURVE SMOOTH",
"64.33 635.33 OFFCURVE",
"44 578.33 OFFCURVE",
"44 509 CURVE SMOOTH",
"44 434.33 OFFCURVE",
"62 377.17 OFFCURVE",
"98 337.5 CURVE SMOOTH",
"134 297.83 OFFCURVE",
"183.33 278 OFFCURVE",
"246 278 CURVE SMOOTH",
"276.67 278 OFFCURVE",
"306.83 286.17 OFFCURVE",
"336.5 302.5 CURVE SMOOTH",
"366.17 318.83 OFFCURVE",
"392.33 341 OFFCURVE",
"415 369 CURVE",
"411.67 262.33 OFFCURVE",
"393.17 184.67 OFFCURVE",
"359.5 136 CURVE SMOOTH",
"325.83 87.33 OFFCURVE",
"283 63 OFFCURVE",
"231 63 CURVE SMOOTH",
"182.33 63 OFFCURVE",
"141.33 81.67 OFFCURVE",
"108 119 CURVE"
);
}
);
vertWidth = 1000;
width = 555;
}
);
note = nine;
unicode = 0039;
},
{
glyphname = A;
layers = (
{
hints = (
{
horizontal = 1;
place = "{0, 21}";
target = up;
type = BottomGhost;
},
{
horizontal = 1;
place = "{224, 74}";
type = Stem;
},
{
horizontal = 1;
place = "{658, 75}";
type = Stem;
},
{
place = "{3, 601}";
type = Stem;
}
);
layerId = "0DB0C058-2990-4612-9839-2732D7BB62C5";
paths = (
{
closed = 1;
nodes = (
"413 298 LINE",
"191 298 LINE",
"227 410 LINE SMOOTH",
"257.67 507.33 OFFCURVE",
"282 590 OFFCURVE",
"300 658 CURVE",
"304 658 LINE",
"333.33 554.67 OFFCURVE",
"358 472 OFFCURVE",
"378 410 CURVE SMOOTH"
);
},
{
closed = 1;
nodes = (
"436 224 LINE",
"506 0 LINE",
"604 0 LINE",
"355 733 LINE",
"252 733 LINE",
"3 0 LINE",
"97 0 LINE",
"168 224 LINE"
);
}
);
vertWidth = 1000;
width = 607;
}
);
note = A;
unicode = 0041;
},
{
glyphname = B;
layers = (
{
hints = (
{
horizontal = 1;
place = "{0, 74}";
type = Stem;
},
{
horizontal = 1;
place = "{350, 71}";
type = Stem;
},
{
horizontal = 1;
place = "{660, 73}";
type = Stem;
},
{
place = "{100, 93}";
type = Stem;
},
{
place = "{521, 91}";
type = Stem;
},
{
place = "{479, 91}";
type = Stem;
}
);
layerId = "0DB0C058-2990-4612-9839-2732D7BB62C5";
paths = (
{
closed = 1;
nodes = (
"100 733 LINE",
"100 0 LINE",
"334 0 LINE SMOOTH",
"418.67 0 OFFCURVE",
"486.17 18.33 OFFCURVE",
"536.5 55 CURVE SMOOTH",
"586.83 91.67 OFFCURVE",
"612 145 OFFCURVE",
"612 215 CURVE SMOOTH",
"612 263 OFFCURVE",
"598.5 302 OFFCURVE",
"571.5 332 CURVE SMOOTH",
"544.5 362 OFFCURVE",
"508 381.33 OFFCURVE",
"462 390 CURVE",
"462 395 LINE",
"496 405.67 OFFCURVE",
"522.5 425.5 OFFCURVE",
"541.5 454.5 CURVE SMOOTH",
"560.5 483.5 OFFCURVE",
"570 516.67 OFFCURVE",
"570 554 CURVE SMOOTH",
"570 673.33 OFFCURVE",
"486 733 OFFCURVE",
"318 733 CURVE SMOOTH"
);
},
{
closed = 1;
nodes = (
"193 421 LINE",
"193 660 LINE",
"306 660 LINE SMOOTH",
"364.67 660 OFFCURVE",
"408.17 650.83 OFFCURVE",
"436.5 632.5 CURVE SMOOTH",
"464.83 614.17 OFFCURVE",
"479 584 OFFCURVE",
"479 542 CURVE SMOOTH",
"479 461.33 OFFCURVE",
"420 421 OFFCURVE",
"302 421 CURVE SMOOTH"
);
},
{
closed = 1;
nodes = (
"193 74 LINE",
"193 350 LINE",
"321 350 LINE SMOOTH",
"454.33 350 OFFCURVE",
"521 306 OFFCURVE",
"521 218 CURVE SMOOTH",
"521 122 OFFCURVE",
"454.33 74 OFFCURVE",
"321 74 CURVE SMOOTH"
);
}
);
vertWidth = 1000;
width = 657;
}
);
note = B;
unicode = 0042;
},
{
glyphname = C;
layers = (
{
hints = (
{
horizontal = 1;
place = "{-13, 81}";
type = Stem;
},
{
horizontal = 1;
place = "{666, 81}";
type = Stem;
},
{
place = "{58, 95}";
type = Stem;
}
);
layerId = "0DB0C058-2990-4612-9839-2732D7BB62C5";
paths = (
{
closed = 1;
nodes = (
"466.33 -13 OFFCURVE",
"541.33 22 OFFCURVE",
"602 92 CURVE",
"551 150 LINE",
"500.33 95.33 OFFCURVE",
"443.67 68 OFFCURVE",
"381 68 CURVE SMOOTH",
"311 68 OFFCURVE",
"255.5 95 OFFCURVE",
"214.5 149 CURVE SMOOTH",
"173.5 203 OFFCURVE",
"153 276.33 OFFCURVE",
"153 369 CURVE SMOOTH",
"153 459.67 OFFCURVE",
"174 531.83 OFFCURVE",
"216 585.5 CURVE SMOOTH",
"258 639.17 OFFCURVE",
"314 666 OFFCURVE",
"384 666 CURVE SMOOTH",
"440.67 666 OFFCURVE",
"490.67 642.67 OFFCURVE",
"534 596 CURVE",
"584 656 LINE",
"530 716.67 OFFCURVE",
"463 747 OFFCURVE",
"383 747 CURVE SMOOTH",
"288.33 747 OFFCURVE",
"210.5 712.5 OFFCURVE",
"149.5 643.5 CURVE SMOOTH",
"88.5 574.5 OFFCURVE",
"58 482 OFFCURVE",
"58 366 CURVE SMOOTH",
"58 249.33 OFFCURVE",
"87.83 157 OFFCURVE",
"147.5 89 CURVE SMOOTH",
"207.17 21 OFFCURVE",
"283.67 -13 OFFCURVE",
"377 -13 CURVE SMOOTH"
);
}
);
vertWidth = 1000;
width = 638;
}
);
note = C;
unicode = 0043;
},
{
glyphname = D;
layers = (
{
hints = (
{
horizontal = 1;
place = "{0, 76}";
type = Stem;
},
{
horizontal = 1;
place = "{658, 75}";
type = Stem;
},
{
place = "{100, 93}";
type = Stem;
},
{
place = "{534, 96}";
type = Stem;
}
);
layerId = "0DB0C058-2990-4612-9839-2732D7BB62C5";
paths = (
{
closed = 1;
nodes = (
"100 733 LINE",
"100 0 LINE",
"288 0 LINE SMOOTH",
"398 0 OFFCURVE",
"482.5 32.33 OFFCURVE",
"541.5 97 CURVE SMOOTH",
"600.5 161.67 OFFCURVE",
"630 252.33 OFFCURVE",
"630 369 CURVE SMOOTH",
"630 485.67 OFFCURVE",
"600.33 575.5 OFFCURVE",
"541 638.5 CURVE SMOOTH",
"481.67 701.5 OFFCURVE",
"396 733 OFFCURVE",
"284 733 CURVE SMOOTH"
);
},
{
closed = 1;
nodes = (
"193 76 LINE",
"193 658 LINE",
"276 658 LINE SMOOTH",
"361.33 658 OFFCURVE",
"425.67 633.33 OFFCURVE",
"469 584 CURVE SMOOTH",
"512.33 534.67 OFFCURVE",
"534 463 OFFCURVE",
"534 369 CURVE SMOOTH",
"534 275 OFFCURVE",
"512.33 202.67 OFFCURVE",
"469 152 CURVE SMOOTH",
"425.67 101.33 OFFCURVE",
"361.33 76 OFFCURVE",
"276 76 CURVE SMOOTH"
);
}
);
vertWidth = 1000;
width = 687;
}
);
note = D;
unicode = 0044;
},
{
glyphname = E;
layers = (
{
hints = (
{
horizontal = 1;
place = "{0, 79}";
type = Stem;
},
{
horizontal = 1;
place = "{346, 79}";
type = Stem;
},
{
horizontal = 1;
place = "{655, 78}";
type = Stem;
},
{
place = "{100, 93}";
type = Stem;
}
);
layerId = "0DB0C058-2990-4612-9839-2732D7BB62C5";
paths = (
{
closed = 1;
nodes = (
"100 733 LINE",
"100 0 LINE",
"534 0 LINE",
"534 79 LINE",
"193 79 LINE",
"193 346 LINE",
"471 346 LINE",
"471 425 LINE",
"193 425 LINE",
"193 655 LINE",
"523 655 LINE",
"523 733 LINE"
);
}
);
vertWidth = 1000;
width = 588;
}
);
note = E;
unicode = 0045;
},
{
glyphname = F;
layers = (
{
hints = (
{
horizontal = 1;
place = "{0, 21}";
target = up;
type = BottomGhost;
},
{
horizontal = 1;
place = "{329, 78}";
type = Stem;
},
{
horizontal = 1;
place = "{655, 78}";
type = Stem;
},
{
place = "{100, 93}";
type = Stem;
}
);
layerId = "0DB0C058-2990-4612-9839-2732D7BB62C5";
paths = (
{
closed = 1;
nodes = (
"100 733 LINE",
"100 0 LINE",
"193 0 LINE",
"193 329 LINE",
"473 329 LINE",
"473 407 LINE",
"193 407 LINE",
"193 655 LINE",
"523 655 LINE",
"523 733 LINE"
);
}
);
vertWidth = 1000;
width = 552;
}
);
note = F;
unicode = 0046;
},
{
glyphname = G;
layers = (
{
hints = (
{
horizontal = 1;
place = "{-13, 81}";
type = Stem;
},
{
horizontal = 1;
place = "{303, 77}";
type = Stem;
},
{
horizontal = 1;
place = "{666, 81}";
type = Stem;
},
{
place = "{58, 95}";
type = Stem;
},
{
place = "{530, 85}";
type = Stem;
}
);
layerId = "0DB0C058-2990-4612-9839-2732D7BB62C5";
paths = (
{
closed = 1;
nodes = (
"484.67 -13 OFFCURVE",
"560.33 15.33 OFFCURVE",
"615 72 CURVE",
"615 380 LINE",
"375 380 LINE",
"375 303 LINE",
"530 303 LINE",
"530 111 LINE",
"499.33 82.33 OFFCURVE",
"455 68 OFFCURVE",
"397 68 CURVE SMOOTH",
"319.67 68 OFFCURVE",
"259.67 94.83 OFFCURVE",
"217 148.5 CURVE SMOOTH",
"174.33 202.17 OFFCURVE",
"153 275.67 OFFCURVE",
"153 369 CURVE SMOOTH",
"153 460.33 OFFCURVE",
"175 532.67 OFFCURVE",
"219 586 CURVE SMOOTH",
"263 639.33 OFFCURVE",
"322 666 OFFCURVE",
"396 666 CURVE SMOOTH",
"458 666 OFFCURVE",
"511 642.67 OFFCURVE",
"555 596 CURVE",
"605 656 LINE",
"548.33 716.67 OFFCURVE",
"478 747 OFFCURVE",
"394 747 CURVE SMOOTH",
"295.33 747 OFFCURVE",
"214.67 712.67 OFFCURVE",
"152 644 CURVE SMOOTH",
"89.33 575.33 OFFCURVE",
"58 482.67 OFFCURVE",
"58 366 CURVE SMOOTH",
"58 248.67 OFFCURVE",
"88.5 156.17 OFFCURVE",
"149.5 88.5 CURVE SMOOTH",
"210.5 20.83 OFFCURVE",
"290 -13 OFFCURVE",
"388 -13 CURVE SMOOTH"
);
}
);
vertWidth = 1000;
width = 689;
}
);
note = G;
unicode = 0047;
},
{
glyphname = H;
layers = (
{
hints = (
{
horizontal = 1;
place = "{0, 21}";
target = up;
type = BottomGhost;
},
{
horizontal = 1;
place = "{346, 80}";
type = Stem;
},
{
horizontal = 1;
place = "{733, -20}";
target = down;
type = TopGhost;
},
{
place = "{100, 93}";
type = Stem;
},
{
place = "{535, 92}";
type = Stem;
}
);
layerId = "0DB0C058-2990-4612-9839-2732D7BB62C5";
paths = (
{
closed = 1;
nodes = (
"100 733 LINE",
"100 0 LINE",
"193 0 LINE",
"193 346 LINE",
"535 346 LINE",
"535 0 LINE",
"627 0 LINE",
"627 733 LINE",
"535 733 LINE",
"535 426 LINE",
"193 426 LINE",
"193 733 LINE"
);
}
);
vertWidth = 1000;
width = 728;
}
);
note = H;
unicode = 0048;
},
{
glyphname = I;
layers = (
{
hints = (
{
horizontal = 1;
place = "{0, 21}";
target = up;
type = BottomGhost;
},
{
horizontal = 1;
place = "{733, -20}";
target = down;
type = TopGhost;
},
{
place = "{100, 93}";
type = Stem;
}
);
layerId = "0DB0C058-2990-4612-9839-2732D7BB62C5";
paths = (
{
closed = 1;
nodes = (
"100 733 LINE",
"100 0 LINE",
"193 0 LINE",
"193 733 LINE"
);
}
);
vertWidth = 1000;
width = 293;
}
);
note = I;
unicode = 0049;
},
{
glyphname = J;
layers = (
{
hints = (
{
horizontal = 1;
place = "{-13, 81}";
type = Stem;
},
{
horizontal = 1;
place = "{733, -20}";
target = down;
type = TopGhost;
},
{
place = "{346, 92}";
type = Stem;
}
);
layerId = "0DB0C058-2990-4612-9839-2732D7BB62C5";
paths = (
{
closed = 1;
nodes = (
"305 -13 OFFCURVE",
"355.5 8 OFFCURVE",
"388.5 50 CURVE SMOOTH",
"421.5 92 OFFCURVE",
"438 147 OFFCURVE",
"438 215 CURVE SMOOTH",
"438 733 LINE",
"346 733 LINE",
"346 224 LINE SMOOTH",
"346 169.33 OFFCURVE",
"336.33 129.67 OFFCURVE",
"317 105 CURVE SMOOTH",
"297.67 80.33 OFFCURVE",
"268 68 OFFCURVE",
"228 68 CURVE SMOOTH",
"174.67 68 OFFCURVE",
"132.33 95.33 OFFCURVE",
"101 150 CURVE",
"35 103 LINE",
"79 25.67 OFFCURVE",
"146.33 -13 OFFCURVE",
"237 -13 CURVE SMOOTH"
);
}
);
vertWidth = 1000;
width = 536;
}
);
note = J;
unicode = 004A;
},
{
glyphname = K;
layers = (
{
hints = (
{
horizontal = 1;
place = "{0, 21}";
target = up;
type = BottomGhost;
},
{
horizontal = 1;
place = "{733, -20}";
target = down;
type = TopGhost;
},
{
place = "{100, 93}";
type = Stem;
}
);
layerId = "0DB0C058-2990-4612-9839-2732D7BB62C5";
paths = (
{
closed = 1;
nodes = (
"100 733 LINE",
"100 0 LINE",
"193 0 LINE",
"193 232 LINE",
"319 382 LINE",
"538 0 LINE",
"642 0 LINE",
"377 454 LINE",
"606 733 LINE",
"502 733 LINE",
"196 365 LINE",
"193 365 LINE",
"193 733 LINE"
);
}
);
vertWidth = 1000;
width = 646;
}
);
note = K;
unicode = 004B;
},
{
glyphname = L;
layers = (
{
hints = (
{
horizontal = 1;
place = "{0, 79}";
type = Stem;
},
{
horizontal = 1;
place = "{733, -20}";
target = down;
type = TopGhost;
},
{
place = "{100, 93}";
type = Stem;
}
);
layerId = "0DB0C058-2990-4612-9839-2732D7BB62C5";
paths = (
{
closed = 1;
nodes = (
"100 733 LINE",
"100 0 LINE",
"513 0 LINE",
"513 79 LINE",
"193 79 LINE",
"193 733 LINE"
);
}
);
vertWidth = 1000;
width = 542;
}
);
note = L;
unicode = 004C;
},
{
glyphname = M;
layers = (
{
hints = (
{
horizontal = 1;
place = "{0, 21}";
target = up;
type = BottomGhost;
},
{
horizontal = 1;
place = "{74, 114}";
type = Stem;
},
{
horizontal = 1;
place = "{622, 111}";
type = Stem;
},
{
place = "{100, 84}";
type = Stem;
},
{
place = "{625, 87}";
type = Stem;
}
);
layerId = "0DB0C058-2990-4612-9839-2732D7BB62C5";
paths = (
{
closed = 1;
nodes = (
"100 733 LINE",
"100 0 LINE",
"184 0 LINE",
"184 406 LINE SMOOTH",
"184 432.67 OFFCURVE",
"180.33 504.67 OFFCURVE",
"173 622 CURVE",
"177 622 LINE",
"235 455 LINE",
"374 74 LINE",
"436 74 LINE",
"575 455 LINE",
"633 622 LINE",
"637 622 LINE",
"629 519.33 OFFCURVE",
"625 447.33 OFFCURVE",
"625 406 CURVE SMOOTH",
"625 0 LINE",
"712 0 LINE",
"712 733 LINE",
"600 733 LINE",
"460 341 LINE SMOOTH",
"454.67 324.33 OFFCURVE",
"446.33 299 OFFCURVE",
"435 265 CURVE SMOOTH",
"423.67 231 OFFCURVE",
"415.33 205.33 OFFCURVE",
"410 188 CURVE",
"405 188 LINE",
"393 222 OFFCURVE",
"375.67 273 OFFCURVE",
"353 341 CURVE SMOOTH",
"212 733 LINE"
);
}
);
vertWidth = 1000;
width = 812;
}
);
note = M;
unicode = 004D;
},
{
glyphname = N;
layers = (
{
hints = (
{
horizontal = 1;
place = "{0, 120}";
type = Stem;
},
{
horizontal = 1;
place = "{614, 119}";
type = Stem;
},
{
place = "{100, 88}";
type = Stem;
},
{
place = "{534, 88}";
type = Stem;
}
);
layerId = "0DB0C058-2990-4612-9839-2732D7BB62C5";
paths = (
{
closed = 1;
nodes = (
"100 733 LINE",
"100 0 LINE",
"188 0 LINE",
"188 385 LINE SMOOTH",
"188 401.67 OFFCURVE",
"184.33 478 OFFCURVE",
"177 614 CURVE",
"181 614 LINE",
"260 463 LINE",
"527 0 LINE",
"622 0 LINE",
"622 733 LINE",
"534 733 LINE",
"534 352 LINE SMOOTH",
"534 316 OFFCURVE",
"538 238.67 OFFCURVE",
"546 120 CURVE",
"541 120 LINE",
"463 271 LINE",
"196 733 LINE"
);
}
);
vertWidth = 1000;
width = 722;
}
);
note = N;
unicode = 004E;
},
{
glyphname = O;
layers = (
{
hints = (
{
horizontal = 1;
place = "{-13, 81}";
type = Stem;
},
{
horizontal = 1;
place = "{666, 81}";
type = Stem;
},
{
place = "{58, 95}";
type = Stem;
},
{
place = "{589, 95}";
type = Stem;
}
);
layerId = "0DB0C058-2990-4612-9839-2732D7BB62C5";
paths = (
{
closed = 1;
nodes = (
"464.33 -13 OFFCURVE",
"539.83 21.67 OFFCURVE",
"597.5 91 CURVE SMOOTH",
"655.17 160.33 OFFCURVE",
"684 253 OFFCURVE",
"684 369 CURVE SMOOTH",
"684 485 OFFCURVE",
"655.17 577 OFFCURVE",
"597.5 645 CURVE SMOOTH",
"539.83 713 OFFCURVE",
"464.33 747 OFFCURVE",
"371 747 CURVE SMOOTH",
"277.67 747 OFFCURVE",
"202.17 713 OFFCURVE",
"144.5 645 CURVE SMOOTH",
"86.83 577 OFFCURVE",
"58 485 OFFCURVE",
"58 369 CURVE SMOOTH",
"58 253 OFFCURVE",
"86.83 160.33 OFFCURVE",
"144.5 91 CURVE SMOOTH",
"202.17 21.67 OFFCURVE",
"277.67 -13 OFFCURVE",
"371 -13 CURVE SMOOTH"
);
},
{
closed = 1;
nodes = (
"305 68 OFFCURVE",
"252.17 95.33 OFFCURVE",
"212.5 150 CURVE SMOOTH",
"172.83 204.67 OFFCURVE",
"153 277.67 OFFCURVE",
"153 369 CURVE SMOOTH",
"153 460.33 OFFCURVE",
"172.67 532.67 OFFCURVE",
"212 586 CURVE SMOOTH",
"251.33 639.33 OFFCURVE",
"304.33 666 OFFCURVE",
"371 666 CURVE SMOOTH",
"437 666 OFFCURVE",
"489.83 639.33 OFFCURVE",
"529.5 586 CURVE SMOOTH",
"569.17 532.67 OFFCURVE",
"589 460.33 OFFCURVE",
"589 369 CURVE SMOOTH",
"589 277.67 OFFCURVE",
"569.17 204.67 OFFCURVE",
"529.5 150 CURVE SMOOTH",
"489.83 95.33 OFFCURVE",
"437 68 OFFCURVE",
"371 68 CURVE SMOOTH"
);
}
);
vertWidth = 1000;
width = 742;
}
);
note = O;
unicode = 004F;
},
{
glyphname = P;
layers = (
{
hints = (
{
horizontal = 1;
place = "{0, 21}";
target = up;
type = BottomGhost;
},
{
horizontal = 1;
place = "{291, 75}";
type = Stem;
},
{
horizontal = 1;
place = "{658, 75}";
type = Stem;
},
{
place = "{100, 93}";
type = Stem;
},
{
place = "{492, 92}";
type = Stem;
}
);
layerId = "0DB0C058-2990-4612-9839-2732D7BB62C5";
paths = (
{
closed = 1;
nodes = (
"100 733 LINE",
"100 0 LINE",
"193 0 LINE",
"193 291 LINE",
"314 291 LINE SMOOTH",
"397.33 291 OFFCURVE",
"463.17 310 OFFCURVE",
"511.5 348 CURVE SMOOTH",
"559.83 386 OFFCURVE",
"584 442.67 OFFCURVE",
"584 518 CURVE SMOOTH",
"584 661.33 OFFCURVE",
"492.33 733 OFFCURVE",
"309 733 CURVE SMOOTH"
);
},
{
closed = 1;
nodes = (
"193 366 LINE",
"193 658 LINE",
"298 658 LINE SMOOTH",
"364.67 658 OFFCURVE",
"413.67 647.5 OFFCURVE",
"445 626.5 CURVE SMOOTH",
"476.33 605.5 OFFCURVE",
"492 569.33 OFFCURVE",
"492 518 CURVE SMOOTH",
"492 466 OFFCURVE",
"476.5 427.67 OFFCURVE",
"445.5 403 CURVE SMOOTH",
"414.5 378.33 OFFCURVE",
"366.67 366 OFFCURVE",
"302 366 CURVE SMOOTH"
);
}
);
vertWidth = 1000;
width = 632;
}
);
note = P;
unicode = 0050;
},
{
glyphname = Q;
layers = (
{
hints = (
{
horizontal = 1;
place = "{-184, 77}";
type = Stem;
},
{
horizontal = 1;
place = "{-9, 72}";
type = Stem;
},
{
horizontal = 1;
place = "{666, 81}";
type = Stem;
},
{
place = "{58, 95}";
type = Stem;
},
{
place = "{589, 95}";
type = Stem;
}
);
layerId = "0DB0C058-2990-4612-9839-2732D7BB62C5";
paths = (
{
closed = 1;
nodes = (
"153 460.33 OFFCURVE",
"172.67 532.67 OFFCURVE",
"212 586 CURVE SMOOTH",
"251.33 639.33 OFFCURVE",
"304.33 666 OFFCURVE",
"371 666 CURVE SMOOTH",
"437 666 OFFCURVE",
"489.83 639.33 OFFCURVE",
"529.5 586 CURVE SMOOTH",
"569.17 532.67 OFFCURVE",
"589 460.33 OFFCURVE",
"589 369 CURVE SMOOTH",
"589 275.67 OFFCURVE",
"569.17 201.33 OFFCURVE",
"529.5 146 CURVE SMOOTH",
"489.83 90.67 OFFCURVE",
"437 63 OFFCURVE",
"371 63 CURVE SMOOTH",
"305 63 OFFCURVE",
"252.17 90.67 OFFCURVE",
"212.5 146 CURVE SMOOTH",
"172.83 201.33 OFFCURVE",
"153 275.67 OFFCURVE",
"153 369 CURVE SMOOTH"
);
},
{
closed = 1;
nodes = (
"682 -96 LINE",
"658.67 -103.33 OFFCURVE",
"633 -107 OFFCURVE",
"605 -107 CURVE SMOOTH",
"518.33 -107 OFFCURVE",
"458.33 -74.33 OFFCURVE",
"425 -9 CURVE",
"503.67 5 OFFCURVE",
"566.5 45.5 OFFCURVE",
"613.5 112.5 CURVE SMOOTH",
"660.5 179.5 OFFCURVE",
"684 265 OFFCURVE",
"684 369 CURVE SMOOTH",
"684 485 OFFCURVE",
"655.17 577 OFFCURVE",
"597.5 645 CURVE SMOOTH",
"539.83 713 OFFCURVE",
"464.33 747 OFFCURVE",
"371 747 CURVE SMOOTH",
"277.67 747 OFFCURVE",
"202.17 713 OFFCURVE",
"144.5 645 CURVE SMOOTH",
"86.83 577 OFFCURVE",
"58 485 OFFCURVE",
"58 369 CURVE SMOOTH",
"58 263 OFFCURVE",
"82.33 176.17 OFFCURVE",
"131 108.5 CURVE SMOOTH",
"179.67 40.83 OFFCURVE",
"244.67 1.33 OFFCURVE",
"326 -10 CURVE",
"347.33 -62.67 OFFCURVE",
"381.17 -104.83 OFFCURVE",
"427.5 -136.5 CURVE SMOOTH",
"473.83 -168.17 OFFCURVE",
"529.67 -184 OFFCURVE",
"595 -184 CURVE SMOOTH",
"635.67 -184 OFFCURVE",
"670.67 -178.67 OFFCURVE",
"700 -168 CURVE"
);
}
);
vertWidth = 1000;
width = 742;
}
);
note = Q;
unicode = 0051;
},
{
glyphname = R;
layers = (
{
hints = (
{
horizontal = 1;
place = "{0, 21}";
target = up;
type = BottomGhost;
},
{
horizontal = 1;
place = "{311, 75}";
type = Stem;
},
{
horizontal = 1;
place = "{658, 75}";
type = Stem;
},
{
place = "{100, 93}";
type = Stem;
},
{
place = "{494, 92}";
type = Stem;
}
);
layerId = "0DB0C058-2990-4612-9839-2732D7BB62C5";
paths = (
{
closed = 1;
nodes = (
"193 386 LINE",
"193 658 LINE",
"316 658 LINE SMOOTH",
"376 658 OFFCURVE",
"420.67 647.83 OFFCURVE",
"450 627.5 CURVE SMOOTH",
"479.33 607.17 OFFCURVE",
"494 573.67 OFFCURVE",
"494 527 CURVE SMOOTH",
"494 433 OFFCURVE",
"434.67 386 OFFCURVE",
"316 386 CURVE SMOOTH"
);
},
{
closed = 1;
nodes = (
"503 0 LINE",
"608 0 LINE",
"420 321 LINE",
"472 333.67 OFFCURVE",
"512.67 357.33 OFFCURVE",
"542 392 CURVE SMOOTH",
"571.33 426.67 OFFCURVE",
"586 471.67 OFFCURVE",
"586 527 CURVE SMOOTH",
"586 664.33 OFFCURVE",
"500.67 733 OFFCURVE",
"330 733 CURVE SMOOTH",
"100 733 LINE",
"100 0 LINE",
"193 0 LINE",
"193 311 LINE",
"325 311 LINE"
);
}
);
vertWidth = 1000;
width = 635;
}
);
note = R;
unicode = 0052;
},
{
glyphname = S;
layers = (
{
hints = (
{
horizontal = 1;
place = "{-13, 81}";
type = Stem;
},
{
horizontal = 1;
place = "{666, 81}";
type = Stem;
},
{
place = "{82, 94}";
type = Stem;
},
{
place = "{459, 94}";
type = Stem;
}
);
layerId = "0DB0C058-2990-4612-9839-2732D7BB62C5";
paths = (
{
closed = 1;
nodes = (
"378.67 -13 OFFCURVE",
"438.83 6.83 OFFCURVE",
"484.5 46.5 CURVE SMOOTH",
"530.17 86.17 OFFCURVE",
"553 135.67 OFFCURVE",
"553 195 CURVE SMOOTH",
"553 245.67 OFFCURVE",
"540 285.67 OFFCURVE",
"514 315 CURVE SMOOTH",
"488 344.33 OFFCURVE",
"450.67 369.67 OFFCURVE",
"402 391 CURVE SMOOTH",
"297 436 LINE SMOOTH",
"281.67 442.67 OFFCURVE",
"270 447.83 OFFCURVE",
"262 451.5 CURVE SMOOTH",
"254 455.17 OFFCURVE",
"243.5 460.83 OFFCURVE",
"230.5 468.5 CURVE SMOOTH",
"217.5 476.17 OFFCURVE",
"207.83 483.83 OFFCURVE",
"201.5 491.5 CURVE SMOOTH",
"195.17 499.17 OFFCURVE",
"189.33 508.83 OFFCURVE",
"184 520.5 CURVE SMOOTH",
"178.67 532.17 OFFCURVE",
"176 544.67 OFFCURVE",
"176 558 CURVE SMOOTH",
"176 590.67 OFFCURVE",
"188.5 616.83 OFFCURVE",
"213.5 636.5 CURVE SMOOTH",
"238.5 656.17 OFFCURVE",
"271.67 666 OFFCURVE",
"313 666 CURVE SMOOTH",
"375 666 OFFCURVE",
"430.67 643 OFFCURVE",
"480 597 CURVE",
"529 656 LINE",
"470.33 716.67 OFFCURVE",
"398.33 747 OFFCURVE",
"313 747 CURVE SMOOTH",
"246.33 747 OFFCURVE",
"191.17 728.67 OFFCURVE",
"147.5 692 CURVE SMOOTH",
"103.83 655.33 OFFCURVE",
"82 608.67 OFFCURVE",
"82 552 CURVE SMOOTH",
"82 469.33 OFFCURVE",
"131.67 406.67 OFFCURVE",
"231 364 CURVE SMOOTH",
"337 318 LINE SMOOTH",
"359 308 OFFCURVE",
"375.33 300.17 OFFCURVE",
"386 294.5 CURVE SMOOTH",
"396.67 288.83 OFFCURVE",
"408.83 280.83 OFFCURVE",
"422.5 270.5 CURVE SMOOTH",
"436.17 260.17 OFFCURVE",
"445.67 248.33 OFFCURVE",
"451 235 CURVE SMOOTH",
"456.33 221.67 OFFCURVE",
"459 206 OFFCURVE",
"459 188 CURVE SMOOTH",
"459 151.33 OFFCURVE",
"445.17 122.17 OFFCURVE",
"417.5 100.5 CURVE SMOOTH",
"389.83 78.83 OFFCURVE",
"352.33 68 OFFCURVE",
"305 68 CURVE SMOOTH",
"228.33 68 OFFCURVE",
"160.67 98.33 OFFCURVE",
"102 159 CURVE",
"47 96 LINE",
"116.33 23.33 OFFCURVE",
"202 -13 OFFCURVE",
"304 -13 CURVE SMOOTH"
);
}
);
vertWidth = 1000;
width = 597;
}
);
note = S;
unicode = 0053;
},
{
glyphname = T;
layers = (
{
hints = (
{
horizontal = 1;
place = "{0, 21}";
target = up;
type = BottomGhost;
},
{
horizontal = 1;
place = "{655, 78}";
type = Stem;
},
{
place = "{253, 93}";
type = Stem;
}
);
layerId = "0DB0C058-2990-4612-9839-2732D7BB62C5";
paths = (
{
closed = 1;
nodes = (
"253 655 LINE",
"253 0 LINE",
"346 0 LINE",
"346 655 LINE",
"568 655 LINE",
"568 733 LINE",
"31 733 LINE",
"31 655 LINE"
);
}
);
vertWidth = 1000;
width = 599;
}
);
note = T;
unicode = 0054;
},
{
glyphname = U;
layers = (
{
hints = (
{
horizontal = 1;
place = "{-13, 81}";
type = Stem;
},
{
horizontal = 1;
place = "{733, -20}";
target = down;
type = TopGhost;
},
{
place = "{97, 93}";
type = Stem;
},
{
place = "{535, 89}";
type = Stem;
}
);
layerId = "0DB0C058-2990-4612-9839-2732D7BB62C5";
paths = (
{
closed = 1;
nodes = (
"441.33 -13 OFFCURVE",
"505.67 11.83 OFFCURVE",
"553 61.5 CURVE SMOOTH",
"600.33 111.17 OFFCURVE",
"624 191.67 OFFCURVE",
"624 303 CURVE SMOOTH",
"624 733 LINE",
"535 733 LINE",
"535 300 LINE SMOOTH",
"535 145.33 OFFCURVE",
"476.67 68 OFFCURVE",
"360 68 CURVE SMOOTH",
"246.67 68 OFFCURVE",
"190 145.33 OFFCURVE",
"190 300 CURVE SMOOTH",
"190 733 LINE",
"97 733 LINE",
"97 303 LINE SMOOTH",
"97 191.67 OFFCURVE",
"120.67 111.17 OFFCURVE",
"168 61.5 CURVE SMOOTH",
"215.33 11.83 OFFCURVE",
"279.33 -13 OFFCURVE",
"360 -13 CURVE SMOOTH"
);
}
);
vertWidth = 1000;
width = 721;
}
);
note = U;
unicode = 0055;
},
{
glyphname = V;
layers = (
{
hints = (
{
horizontal = 1;
place = "{0, 94}";
type = Stem;
},
{
horizontal = 1;
place = "{733, -20}";
target = down;
type = TopGhost;
},
{
place = "{1, 574}";
type = Stem;
}
);
layerId = "0DB0C058-2990-4612-9839-2732D7BB62C5";
paths = (
{
closed = 1;
nodes = (
"1 733 LINE",
"235 0 LINE",
"342 0 LINE",
"575 733 LINE",
"481 733 LINE",
"363 336 LINE SMOOTH",
"355.67 312 OFFCURVE",
"344.5 273.5 OFFCURVE",
"329.5 220.5 CURVE SMOOTH",
"314.5 167.5 OFFCURVE",
"302 125.33 OFFCURVE",
"292 94 CURVE",
"288 94 LINE",
"277.33 126.67 OFFCURVE",
"264.33 170 OFFCURVE",
"249 224 CURVE SMOOTH",
"233.67 278 OFFCURVE",
"223 315.33 OFFCURVE",
"217 336 CURVE SMOOTH",
"98 733 LINE"
);
}
);
vertWidth = 1000;
width = 575;
}
);
note = V;
unicode = 0056;
},
{
glyphname = W;
layers = (
{
hints = (
{
horizontal = 1;
place = "{0, 97}";
type = Stem;
},
{
horizontal = 1;
place = "{609, 124}";
type = Stem;
},
{
place = "{25, 826}";
type = Stem;
}
);
layerId = "0DB0C058-2990-4612-9839-2732D7BB62C5";
paths = (
{
closed = 1;
nodes = (
"25 733 LINE",
"181 0 LINE",
"291 0 LINE",
"400 442 LINE SMOOTH",
"404.67 463.33 OFFCURVE",
"411.17 492.5 OFFCURVE",
"419.5 529.5 CURVE SMOOTH",
"427.83 566.5 OFFCURVE",
"433.67 593 OFFCURVE",
"437 609 CURVE",
"441 609 LINE",
"461.67 512.33 OFFCURVE",
"473.67 456.67 OFFCURVE",
"477 442 CURVE SMOOTH",
"588 0 LINE",
"699 0 LINE",
"851 733 LINE",
"762 733 LINE",
"685 334 LINE SMOOTH",
"671 256 OFFCURVE",
"657 177 OFFCURVE",
"643 97 CURVE",
"638 97 LINE",
"617.33 195 OFFCURVE",
"600 274 OFFCURVE",
"586 334 CURVE SMOOTH",
"483 733 LINE",
"399 733 LINE",
"298 334 LINE SMOOTH",
"274 228.67 OFFCURVE",
"256.33 149.67 OFFCURVE",
"245 97 CURVE",
"241 97 LINE",
"236.33 123 OFFCURVE",
"229.17 162.33 OFFCURVE",
"219.5 215 CURVE SMOOTH",
"209.83 267.67 OFFCURVE",
"202.67 307.33 OFFCURVE",
"198 334 CURVE SMOOTH",
"121 733 LINE"
);
}
);
vertWidth = 1000;
width = 878;
}
);
note = W;
unicode = 0057;
},
{
glyphname = X;
layers = (
{
hints = (
{
horizontal = 1;
place = "{0, 21}";
target = up;
type = BottomGhost;
},
{
horizontal = 1;
place = "{733, -20}";
target = down;
type = TopGhost;
},
{
place = "{17, 539}";
type = Stem;
}
);
layerId = "0DB0C058-2990-4612-9839-2732D7BB62C5";
paths = (
{
closed = 1;
nodes = (
"231 379 LINE",
"17 0 LINE",
"114 0 LINE",
"220 198 LINE SMOOTH",
"238.67 233.33 OFFCURVE",
"258.33 272.67 OFFCURVE",
"279 316 CURVE",
"283 316 LINE",
"297.67 288.67 OFFCURVE",
"318.67 249.33 OFFCURVE",
"346 198 CURVE SMOOTH",
"454 0 LINE",
"556 0 LINE",
"342 374 LINE",
"542 733 LINE",
"445 733 LINE",
"347 546 LINE SMOOTH",
"340.33 532.67 OFFCURVE",
"323 497 OFFCURVE",
"295 439 CURVE",
"291 439 LINE",
"282.33 454.33 OFFCURVE",
"271.83 473.67 OFFCURVE",
"259.5 497 CURVE SMOOTH",
"247.17 520.33 OFFCURVE",
"238.33 536.67 OFFCURVE",
"233 546 CURVE SMOOTH",
"133 733 LINE",
"31 733 LINE"
);
}
);
vertWidth = 1000;
width = 573;
}
);
note = X;
unicode = 0058;
},
{
glyphname = Y;
layers = (
{
hints = (
{
horizontal = 1;
place = "{0, 21}";
target = up;
type = BottomGhost;
},
{
horizontal = 1;
place = "{733, -20}";
target = down;
type = TopGhost;
},
{
place = "{219, 93}";
type = Stem;
}
);
layerId = "0DB0C058-2990-4612-9839-2732D7BB62C5";
paths = (
{
closed = 1;
nodes = (
"219 285 LINE",
"219 0 LINE",
"312 0 LINE",
"312 285 LINE",
"532 733 LINE",
"436 733 LINE",
"341 526 LINE SMOOTH",
"330.33 499.33 OFFCURVE",
"306 446 OFFCURVE",
"268 366 CURVE",
"264 366 LINE",
"254 386.67 OFFCURVE",
"230 440 OFFCURVE",
"192 526 CURVE SMOOTH",
"98 733 LINE",
"-1 733 LINE"
);
}
);
vertWidth = 1000;
width = 531;
}
);
note = Y;
unicode = 0059;
},
{
glyphname = Z;
layers = (
{
hints = (
{
horizontal = 1;
place = "{0, 79}";
type = Stem;
},
{
horizontal = 1;
place = "{655, 78}";
type = Stem;
},
{
place = "{50, 505}";
type = Stem;
}
);
layerId = "0DB0C058-2990-4612-9839-2732D7BB62C5";
paths = (
{
closed = 1;
nodes = (
"50 55 LINE",
"50 0 LINE",
"555 0 LINE",
"555 79 LINE",
"164 79 LINE",
"551 679 LINE",
"551 733 LINE",
"85 733 LINE",
"85 655 LINE",
"437 655 LINE"
);
}
);
vertWidth = 1000;
width = 603;
}
);
note = Z;
unicode = 005A;
},
{
glyphname = a;
layers = (
{
hints = (
{
horizontal = 1;
place = "{-13, 73}";
type = Stem;
},
{
horizontal = 1;
place = "{481, 76}";
type = Stem;
},
{
place = "{58, 89}";
type = Stem;
},
{
place = "{392, 91}";
type = Stem;
},
{
horizontal = 1;
place = "{0, 21}";
target = up;
type = BottomGhost;
}
);
layerId = "0DB0C058-2990-4612-9839-2732D7BB62C5";
paths = (
{
closed = 1;
nodes = (
"274.33 -13 OFFCURVE",
"334.33 13 OFFCURVE",
"397 65 CURVE",
"400 65 LINE",
"408 0 LINE",
"483 0 LINE",
"483 334 LINE SMOOTH",
"483 404 OFFCURVE",
"467.67 458.67 OFFCURVE",
"437 498 CURVE SMOOTH",
"406.33 537.33 OFFCURVE",
"359 557 OFFCURVE",
"295 557 CURVE SMOOTH",
"226.33 557 OFFCURVE",
"155 533.33 OFFCURVE",
"81 486 CURVE",
"117 423 LINE",
"174.33 461.67 OFFCURVE",
"228.67 481 OFFCURVE",
"280 481 CURVE SMOOTH",
"354.67 481 OFFCURVE",
"392 435.33 OFFCURVE",
"392 344 CURVE",
"275.33 330.67 OFFCURVE",
"190.5 308.17 OFFCURVE",
"137.5 276.5 CURVE SMOOTH",
"84.5 244.83 OFFCURVE",
"58 199.67 OFFCURVE",
"58 141 CURVE SMOOTH",
"58 93 OFFCURVE",
"72.83 55.33 OFFCURVE",
"102.5 28 CURVE SMOOTH",
"132.17 0.67 OFFCURVE",
"170.33 -13 OFFCURVE",
"217 -13 CURVE SMOOTH"
);
},
{
closed = 1;
nodes = (
"214.33 60 OFFCURVE",
"191.17 67.17 OFFCURVE",
"173.5 81.5 CURVE SMOOTH",
"155.83 95.83 OFFCURVE",
"147 117.67 OFFCURVE",
"147 147 CURVE SMOOTH",
"147 183.67 OFFCURVE",
"165.67 213 OFFCURVE",
"203 235 CURVE SMOOTH",
"240.33 257 OFFCURVE",
"303.33 273.33 OFFCURVE",
"392 284 CURVE",
"392 132 LINE",
"338 84 OFFCURVE",
"288.33 60 OFFCURVE",
"243 60 CURVE SMOOTH"
);
}
);
vertWidth = 1000;
width = 564;
}
);
note = a;
unicode = 0061;
},
{
glyphname = b;
layers = (
{
hints = (
{
horizontal = 1;
place = "{-13, 76}";
type = Stem;
},
{
horizontal = 1;
place = "{480, 77}";
type = Stem;
},
{
place = "{92, 91}";
type = Stem;
},
{
place = "{472, 95}";
type = Stem;
},
{
horizontal = 1;
place = "{0, 21}";
target = up;
type = BottomGhost;
}
);
layerId = "0DB0C058-2990-4612-9839-2732D7BB62C5";
paths = (
{
closed = 1;
nodes = (
"396.33 -13 OFFCURVE",
"452 13.5 OFFCURVE",
"498 66.5 CURVE SMOOTH",
"544 119.5 OFFCURVE",
"567 191 OFFCURVE",
"567 281 CURVE SMOOTH",
"567 365.67 OFFCURVE",
"548.17 432.83 OFFCURVE",
"510.5 482.5 CURVE SMOOTH",
"472.83 532.17 OFFCURVE",
"419.33 557 OFFCURVE",
"350 557 CURVE SMOOTH",
"295.33 557 OFFCURVE",
"238.67 531.33 OFFCURVE",
"180 480 CURVE",
"183 578 LINE",
"183 796 LINE",
"92 796 LINE",
"92 0 LINE",
"165 0 LINE",
"173 56 LINE",
"176 56 LINE",
"226 10 OFFCURVE",
"277.67 -13 OFFCURVE",
"331 -13 CURVE SMOOTH"
);
},
{
closed = 1;
nodes = (
"270.67 63 OFFCURVE",
"226.33 82 OFFCURVE",
"183 120 CURVE",
"183 405 LINE",
"236.33 455 OFFCURVE",
"285 480 OFFCURVE",
"329 480 CURVE SMOOTH",
"424.33 480 OFFCURVE",
"472 413 OFFCURVE",
"472 279 CURVE SMOOTH",
"472 213 OFFCURVE",
"457.5 160.5 OFFCURVE",
"428.5 121.5 CURVE SMOOTH",
"399.5 82.5 OFFCURVE",
"362 63 OFFCURVE",
"316 63 CURVE SMOOTH"
);
}
);
vertWidth = 1000;
width = 618;
}
);
note = b;
unicode = 0062;
},
{
glyphname = c;
layers = (
{
hints = (
{
horizontal = 1;
place = "{-13, 76}";
type = Stem;
},
{
horizontal = 1;
place = "{481, 76}";
type = Stem;
},
{
place = "{51, 95}";
type = Stem;
}
);
layerId = "0DB0C058-2990-4612-9839-2732D7BB62C5";
paths = (
{
closed = 1;
nodes = (
"372.67 -13 OFFCURVE",
"431 10 OFFCURVE",
"481 56 CURVE",
"442 117 LINE",
"402.67 81 OFFCURVE",
"360 63 OFFCURVE",
"314 63 CURVE SMOOTH",
"264 63 OFFCURVE",
"223.5 82 OFFCURVE",
"192.5 120 CURVE SMOOTH",
"161.5 158 OFFCURVE",
"146 208.33 OFFCURVE",
"146 271 CURVE SMOOTH",
"146 333 OFFCURVE",
"162 383.5 OFFCURVE",
"194 422.5 CURVE SMOOTH",
"226 461.5 OFFCURVE",
"266.67 481 OFFCURVE",
"316 481 CURVE SMOOTH",
"352.67 481 OFFCURVE",
"389 464.67 OFFCURVE",
"425 432 CURVE",
"472 493 LINE",
"423.33 535.67 OFFCURVE",
"370.33 557 OFFCURVE",
"313 557 CURVE SMOOTH",
"240.33 557 OFFCURVE",
"178.5 531.17 OFFCURVE",
"127.5 479.5 CURVE SMOOTH",
"76.5 427.83 OFFCURVE",
"51 358.33 OFFCURVE",
"51 271 CURVE SMOOTH",
"51 183 OFFCURVE",
"75 113.67 OFFCURVE",
"123 63 CURVE SMOOTH",
"171 12.33 OFFCURVE",
"232 -13 OFFCURVE",
"306 -13 CURVE SMOOTH"
);
}
);
vertWidth = 1000;
width = 509;
}
);
note = c;
unicode = 0063;
},
{
glyphname = d;
layers = (
{
hints = (
{
horizontal = 1;
place = "{-13, 76}";
type = Stem;
},
{
horizontal = 1;
place = "{480, 77}";
type = Stem;
},
{
place = "{53, 94}";
type = Stem;
},
{
place = "{436, 91}";
type = Stem;
},
{
horizontal = 1;
place = "{0, 21}";
target = up;
type = BottomGhost;
}
);
layerId = "0DB0C058-2990-4612-9839-2732D7BB62C5";
paths = (
{
closed = 1;
nodes = (
"334.33 -13 OFFCURVE",
"389.33 12.67 OFFCURVE",
"442 64 CURVE",
"444 64 LINE",
"453 0 LINE",
"527 0 LINE",
"527 796 LINE",
"436 796 LINE",
"436 587 LINE",
"441 493 LINE",
"414.33 515 OFFCURVE",
"389.67 531.17 OFFCURVE",
"367 541.5 CURVE SMOOTH",
"344.33 551.83 OFFCURVE",
"318 557 OFFCURVE",
"288 557 CURVE SMOOTH",
"223.33 557 OFFCURVE",
"168 530.67 OFFCURVE",
"122 478 CURVE SMOOTH",
"76 425.33 OFFCURVE",
"53 356.33 OFFCURVE",
"53 271 CURVE SMOOTH",
"53 181.67 OFFCURVE",
"73.17 112 OFFCURVE",
"113.5 62 CURVE SMOOTH",
"153.83 12 OFFCURVE",
"208.33 -13 OFFCURVE",
"277 -13 CURVE SMOOTH"
);
},
{
closed = 1;
nodes = (
"249 63 OFFCURVE",
"212 81.33 OFFCURVE",
"186 118 CURVE SMOOTH",
"160 154.67 OFFCURVE",
"147 206 OFFCURVE",
"147 272 CURVE SMOOTH",
"147 333.33 OFFCURVE",
"162 383.33 OFFCURVE",
"192 422 CURVE SMOOTH",
"222 460.67 OFFCURVE",
"259.33 480 OFFCURVE",
"304 480 CURVE SMOOTH",
"349.33 480 OFFCURVE",
"393.33 461 OFFCURVE",
"436 423 CURVE",
"436 138 LINE",
"390.67 88 OFFCURVE",
"344.33 63 OFFCURVE",
"297 63 CURVE SMOOTH"
);
}
);
vertWidth = 1000;
width = 620;
}
);
note = d;
unicode = 0064;
},
{
glyphname = e;
layers = (
{
hints = (
{
horizontal = 1;
place = "{-13, 73}";
type = Stem;
},
{
horizontal = 1;
place = "{250, 65}";
type = Stem;
},
{
horizontal = 1;
place = "{484, 73}";
type = Stem;
},
{
place = "{51, 90}";
type = Stem;
},
{
place = "{432, 80}";
type = Stem;
}
);
layerId = "0DB0C058-2990-4612-9839-2732D7BB62C5";
paths = (
{
closed = 1;
nodes = (
"373 -13 OFFCURVE",
"433 5.67 OFFCURVE",
"491 43 CURVE",
"458 103 LINE",
"415.33 74.33 OFFCURVE",
"370 60 OFFCURVE",
"322 60 CURVE SMOOTH",
"270.67 60 OFFCURVE",
"228.5 77.17 OFFCURVE",
"195.5 111.5 CURVE SMOOTH",
"162.5 145.83 OFFCURVE",
"144.67 192 OFFCURVE",
"142 250 CURVE",
"508 250 LINE",
"510.67 267.33 OFFCURVE",
"512 284.67 OFFCURVE",
"512 302 CURVE SMOOTH",
"512 380.67 OFFCURVE",
"493 442.83 OFFCURVE",
"455 488.5 CURVE SMOOTH",
"417 534.17 OFFCURVE",
"364 557 OFFCURVE",
"296 557 CURVE SMOOTH",
"230 557 OFFCURVE",
"172.67 530.5 OFFCURVE",
"124 477.5 CURVE SMOOTH",
"75.33 424.5 OFFCURVE",
"51 355.67 OFFCURVE",
"51 271 CURVE SMOOTH",
"51 184.33 OFFCURVE",
"75.67 115.33 OFFCURVE",
"125 64 CURVE SMOOTH",
"174.33 12.67 OFFCURVE",
"236.33 -13 OFFCURVE",
"311 -13 CURVE SMOOTH"
);
},
{
closed = 1;
nodes = (
"141 315 LINE",
"146.33 367 OFFCURVE",
"163.67 408.17 OFFCURVE",
"193 438.5 CURVE SMOOTH",
"222.33 468.83 OFFCURVE",
"257 484 OFFCURVE",
"297 484 CURVE SMOOTH",
"339.67 484 OFFCURVE",
"372.83 469.5 OFFCURVE",
"396.5 440.5 CURVE SMOOTH",
"420.17 411.5 OFFCURVE",
"432 369.67 OFFCURVE",
"432 315 CURVE"
);
}
);
vertWidth = 1000;
width = 554;
}
);
note = e;
unicode = 0065;
},
{
glyphname = f;
layers = (
{
hints = (
{
horizontal = 1;
place = "{0, 21}";
target = up;
type = BottomGhost;
},
{
horizontal = 1;
place = "{469, 74}";
type = Stem;
},
{
horizontal = 1;
place = "{736, 73}";
type = Stem;
},
{
place = "{107, 91}";
type = Stem;
}
);
layerId = "0DB0C058-2990-4612-9839-2732D7BB62C5";
paths = (
{
closed = 1;
nodes = (
"356 791 LINE",
"327.33 803 OFFCURVE",
"297 809 OFFCURVE",
"265 809 CURVE SMOOTH",
"212.33 809 OFFCURVE",
"172.83 793.33 OFFCURVE",
"146.5 762 CURVE SMOOTH",
"120.17 730.67 OFFCURVE",
"107 686.67 OFFCURVE",
"107 630 CURVE SMOOTH",
"107 543 LINE",
"33 538 LINE",
"33 469 LINE",
"107 469 LINE",
"107 0 LINE",
"198 0 LINE",
"198 469 LINE",
"313 469 LINE",
"313 543 LINE",
"198 543 LINE",
"198 629 LINE SMOOTH",
"198 700.33 OFFCURVE",
"223.67 736 OFFCURVE",
"275 736 CURVE SMOOTH",
"295 736 OFFCURVE",
"315.33 731.33 OFFCURVE",
"336 722 CURVE"
);
}
);
vertWidth = 1000;
width = 325;
}
);
note = f;
unicode = 0066;
},
{
glyphname = g;
layers = (
{
hints = (
{
horizontal = 1;
place = "{-250, 62}";
type = Stem;
},
{
horizontal = 1;
place = "{-9, 76}";
type = Stem;
},
{
horizontal = 1;
place = "{172, 62}";
type = Stem;
},
{
horizontal = 1;
place = "{473, 70}";
type = Stem;
},
{
place = "{390, 83}";
type = Stem;
},
{
place = "{81, 78}";
type = Stem;
},
{
place = "{461, 88}";
type = Stem;
},
{
place = "{71, 88}";
type = Stem;
},
{
horizontal = 1;
place = "{490, 67}";
type = Stem;
},
{
place = "{50, 80}";
type = Stem;
},
{
horizontal = 1;
place = "{0, 21}";
target = up;
type = BottomGhost;
}
);
layerId = "0DB0C058-2990-4612-9839-2732D7BB62C5";
paths = (
{
closed = 1;
nodes = (
"356.33 -250 OFFCURVE",
"422.33 -231.67 OFFCURVE",
"473 -195 CURVE SMOOTH",
"523.67 -158.33 OFFCURVE",
"549 -114 OFFCURVE",
"549 -62 CURVE SMOOTH",
"549 24 OFFCURVE",
"486 67 OFFCURVE",
"360 67 CURVE SMOOTH",
"254 67 LINE SMOOTH",
"190.67 67 OFFCURVE",
"159 86.67 OFFCURVE",
"159 126 CURVE SMOOTH",
"159 149.33 OFFCURVE",
"170.67 171 OFFCURVE",
"194 191 CURVE",
"219.33 178.33 OFFCURVE",
"246.33 172 OFFCURVE",
"275 172 CURVE SMOOTH",
"331.67 172 OFFCURVE",
"378.83 189.33 OFFCURVE",
"416.5 224 CURVE SMOOTH",
"454.17 258.67 OFFCURVE",
"473 304.33 OFFCURVE",
"473 361 CURVE SMOOTH",
"473 407.67 OFFCURVE",
"458.33 445 OFFCURVE",
"429 473 CURVE",
"540 473 LINE",
"540 543 LINE",
"351 543 LINE",
"325.67 552.33 OFFCURVE",
"300.33 557 OFFCURVE",
"275 557 CURVE SMOOTH",
"218.33 557 OFFCURVE",
"170.17 539.17 OFFCURVE",
"130.5 503.5 CURVE SMOOTH",
"90.83 467.83 OFFCURVE",
"71 421 OFFCURVE",
"71 363 CURVE SMOOTH",
"71 303.67 OFFCURVE",
"94.67 255 OFFCURVE",
"142 217 CURVE",
"142 213 LINE",
"101.33 183.67 OFFCURVE",
"81 150 OFFCURVE",
"81 112 CURVE SMOOTH",
"81 72 OFFCURVE",
"97.67 42.33 OFFCURVE",
"131 23 CURVE",
"131 19 LINE",
"77 -15.67 OFFCURVE",
"50 -56.67 OFFCURVE",
"50 -104 CURVE SMOOTH",
"50 -150 OFFCURVE",
"70.5 -185.83 OFFCURVE",
"111.5 -211.5 CURVE SMOOTH",
"152.5 -237.17 OFFCURVE",
"207 -250 OFFCURVE",
"275 -250 CURVE SMOOTH"
);
},
{
closed = 1;
nodes = (
"242.33 234 OFFCURVE",
"214.83 245.83 OFFCURVE",
"192.5 269.5 CURVE SMOOTH",
"170.17 293.17 OFFCURVE",
"159 324.33 OFFCURVE",
"159 363 CURVE SMOOTH",
"159 401.67 OFFCURVE",
"170 432.5 OFFCURVE",
"192 455.5 CURVE SMOOTH",
"214 478.5 OFFCURVE",
"241.67 490 OFFCURVE",
"275 490 CURVE SMOOTH",
"307.67 490 OFFCURVE",
"335 478.5 OFFCURVE",
"357 455.5 CURVE SMOOTH",
"379 432.5 OFFCURVE",
"390 401.67 OFFCURVE",
"390 363 CURVE SMOOTH",
"390 324.33 OFFCURVE",
"378.83 293.17 OFFCURVE",
"356.5 269.5 CURVE SMOOTH",
"334.17 245.83 OFFCURVE",
"307 234 OFFCURVE",
"275 234 CURVE SMOOTH"
);
},
{
closed = 1;
nodes = (
"238.67 -188 OFFCURVE",
"200 -179.33 OFFCURVE",
"172 -162 CURVE SMOOTH",
"144 -144.67 OFFCURVE",
"130 -121.33 OFFCURVE",
"130 -92 CURVE SMOOTH",
"130 -57.33 OFFCURVE",
"148.67 -26.67 OFFCURVE",
"186 0 CURVE",
"210 -6 OFFCURVE",
"233.33 -9 OFFCURVE",
"256 -9 CURVE SMOOTH",
"350 -9 LINE SMOOTH",
"387.33 -9 OFFCURVE",
"415.17 -14.17 OFFCURVE",
"433.5 -24.5 CURVE SMOOTH",
"451.83 -34.83 OFFCURVE",
"461 -52 OFFCURVE",
"461 -76 CURVE SMOOTH",
"461 -106 OFFCURVE",
"444.67 -132.17 OFFCURVE",
"412 -154.5 CURVE SMOOTH",
"379.33 -176.83 OFFCURVE",
"338 -188 OFFCURVE",
"288 -188 CURVE SMOOTH"
);
}
);
vertWidth = 1000;
width = 563;
}
);
note = g;
unicode = 0067;
},
{
glyphname = h;
layers = (
{
hints = (
{
horizontal = 1;
place = "{0, 21}";
target = up;
type = BottomGhost;
},
{
horizontal = 1;
place = "{477, 80}";
type = Stem;
},
{
place = "{92, 91}";
type = Stem;
},
{
place = "{435, 91}";
type = Stem;
}
);
layerId = "0DB0C058-2990-4612-9839-2732D7BB62C5";
paths = (
{
closed = 1;
nodes = (
"92 796 LINE",
"92 0 LINE",
"183 0 LINE",
"183 394 LINE",
"213 424 OFFCURVE",
"238.67 445.33 OFFCURVE",
"260 458 CURVE SMOOTH",
"281.33 470.67 OFFCURVE",
"305.33 477 OFFCURVE",
"332 477 CURVE SMOOTH",
"368 477 OFFCURVE",
"394.17 465.5 OFFCURVE",
"410.5 442.5 CURVE SMOOTH",
"426.83 419.5 OFFCURVE",
"435 382.67 OFFCURVE",
"435 332 CURVE SMOOTH",
"435 0 LINE",
"526 0 LINE",
"526 344 LINE SMOOTH",
"526 486 OFFCURVE",
"470.67 557 OFFCURVE",
"360 557 CURVE SMOOTH",
"300.67 557 OFFCURVE",
"240.67 526.67 OFFCURVE",
"180 466 CURVE",
"183 578 LINE",
"183 796 LINE"
);
}
);
vertWidth = 1000;
width = 607;
}
);
note = h;
unicode = 0068;
},
{
glyphname = i;
layers = (
{
hints = (
{
horizontal = 1;
place = "{0, 21}";
target = up;
type = BottomGhost;
},
{
horizontal = 1;
place = "{543, -20}";
target = down;
type = TopGhost;
},
{
horizontal = 1;
place = "{655, 118}";
type = Stem;
},
{
place = "{92, 91}";
type = Stem;
},
{
place = "{75, 126}";
type = Stem;
}
);
layerId = "0DB0C058-2990-4612-9839-2732D7BB62C5";
paths = (
{
closed = 1;
nodes = (
"92 543 LINE",
"92 0 LINE",
"183 0 LINE",
"183 543 LINE"
);
},
{
closed = 1;
nodes = (
"156 655 OFFCURVE",
"171 660.67 OFFCURVE",
"183 672 CURVE SMOOTH",
"195 683.33 OFFCURVE",
"201 697.33 OFFCURVE",
"201 714 CURVE SMOOTH",
"201 732 OFFCURVE",
"195.17 746.33 OFFCURVE",
"183.5 757 CURVE SMOOTH",
"171.83 767.67 OFFCURVE",
"156.67 773 OFFCURVE",
"138 773 CURVE SMOOTH",
"119.33 773 OFFCURVE",
"104.17 767.67 OFFCURVE",
"92.5 757 CURVE SMOOTH",
"80.83 746.33 OFFCURVE",
"75 732 OFFCURVE",
"75 714 CURVE SMOOTH",
"75 697.33 OFFCURVE",
"81 683.33 OFFCURVE",
"93 672 CURVE SMOOTH",
"105 660.67 OFFCURVE",
"120 655 OFFCURVE",
"138 655 CURVE SMOOTH"
);
}
);
vertWidth = 1000;
width = 275;
}
);
note = i;
unicode = 0069;
},
{
glyphname = j;
layers = (
{
hints = (
{
horizontal = 1;
place = "{-243, 74}";
type = Stem;
},
{
horizontal = 1;
place = "{543, -20}";
target = down;
type = TopGhost;
},
{
horizontal = 1;
place = "{655, 118}";
type = Stem;
},
{
place = "{93, 91}";
type = Stem;
},
{
horizontal = 1;
place = "{-229, 21}";
target = up;
type = BottomGhost;
},
{
place = "{76, 126}";
type = Stem;
}
);
layerId = "0DB0C058-2990-4612-9839-2732D7BB62C5";
paths = (
{
closed = 1;
nodes = (
"134.67 -243 OFFCURVE",
"184 -182.67 OFFCURVE",
"184 -62 CURVE SMOOTH",
"184 543 LINE",
"93 543 LINE",
"93 -62 LINE SMOOTH",
"93 -98 OFFCURVE",
"88.17 -124.83 OFFCURVE",
"78.5 -142.5 CURVE SMOOTH",
"68.83 -160.17 OFFCURVE",
"51 -169 OFFCURVE",
"25 -169 CURVE SMOOTH",
"9.67 -169 OFFCURVE",
"-7.33 -165.67 OFFCURVE",
"-26 -159 CURVE",
"-44 -229 LINE",
"-18.67 -238.33 OFFCURVE",
"8 -243 OFFCURVE",
"36 -243 CURVE SMOOTH"
);
},
{
closed = 1;
nodes = (
"156.33 655 OFFCURVE",
"171.17 660.67 OFFCURVE",
"183.5 672 CURVE SMOOTH",
"195.83 683.33 OFFCURVE",
"202 697.33 OFFCURVE",
"202 714 CURVE SMOOTH",
"202 732 OFFCURVE",
"196 746.33 OFFCURVE",
"184 757 CURVE SMOOTH",
"172 767.67 OFFCURVE",
"157 773 OFFCURVE",
"139 773 CURVE SMOOTH",
"120.33 773 OFFCURVE",
"105.17 767.67 OFFCURVE",
"93.5 757 CURVE SMOOTH",
"81.83 746.33 OFFCURVE",
"76 732 OFFCURVE",
"76 714 CURVE SMOOTH",
"76 697.33 OFFCURVE",
"82 683.33 OFFCURVE",
"94 672 CURVE SMOOTH",
"106 660.67 OFFCURVE",
"121 655 OFFCURVE",
"139 655 CURVE SMOOTH"
);
}
);
vertWidth = 1000;
width = 275;
}
);
note = j;
unicode = 006A;
},
{
glyphname = k;
layers = (
{
hints = (
{
horizontal = 1;
place = "{0, 21}";
target = up;
type = BottomGhost;
},
{
horizontal = 1;
place = "{543, -20}";
target = down;
type = TopGhost;
},
{
place = "{92, 90}";
type = Stem;
}
);
layerId = "0DB0C058-2990-4612-9839-2732D7BB62C5";
paths = (
{
closed = 1;
nodes = (
"92 796 LINE",
"92 0 LINE",
"182 0 LINE",
"182 143 LINE",
"284 262 LINE",
"443 0 LINE",
"542 0 LINE",
"336 325 LINE",
"518 543 LINE",
"417 543 LINE",
"184 256 LINE",
"182 256 LINE",
"182 796 LINE"
);
}
);
vertWidth = 1000;
width = 552;
}
);
note = k;
unicode = 006B;
},
{
glyphname = l;
layers = (
{
hints = (
{
horizontal = 1;
place = "{-13, 76}";
type = Stem;
},
{
place = "{92, 91}";
type = Stem;
}
);
layerId = "0DB0C058-2990-4612-9839-2732D7BB62C5";
paths = (
{
closed = 1;
nodes = (
"209.33 -13 OFFCURVE",
"227 -10.33 OFFCURVE",
"241 -5 CURVE",
"228 65 LINE",
"221.33 63.67 OFFCURVE",
"215 63 OFFCURVE",
"209 63 CURVE SMOOTH",
"191.67 63 OFFCURVE",
"183 76 OFFCURVE",
"183 102 CURVE SMOOTH",
"183 796 LINE",
"92 796 LINE",
"92 108 LINE SMOOTH",
"92 27.33 OFFCURVE",
"124 -13 OFFCURVE",
"188 -13 CURVE SMOOTH"
);
}
);
vertWidth = 1000;
width = 285;
}
);
note = l;
unicode = 006C;
},
{
glyphname = m;
layers = (
{
hints = (
{
horizontal = 1;
place = "{0, 21}";
target = up;
type = BottomGhost;
},
{
horizontal = 1;
place = "{543, -20}";
target = down;
type = TopGhost;
},
{
horizontal = 1;
place = "{477, 80}";
type = Stem;
}
);
layerId = "0DB0C058-2990-4612-9839-2732D7BB62C5";
paths = (
{
closed = 1;
nodes = (
"92 543 LINE",
"92 0 LINE",
"183 0 LINE",
"183 394 LINE",
"232.33 449.33 OFFCURVE",
"278 477 OFFCURVE",
"320 477 CURVE SMOOTH",
"354.67 477 OFFCURVE",
"380.17 465.5 OFFCURVE",
"396.5 442.5 CURVE SMOOTH",
"412.83 419.5 OFFCURVE",
"421 382.67 OFFCURVE",
"421 332 CURVE SMOOTH",
"421 0 LINE",
"512 0 LINE",
"512 394 LINE",
"562.67 449.33 OFFCURVE",
"608.33 477 OFFCURVE",
"649 477 CURVE SMOOTH",
"683.67 477 OFFCURVE",
"709.17 465.5 OFFCURVE",
"725.5 442.5 CURVE SMOOTH",
"741.83 419.5 OFFCURVE",
"750 382.67 OFFCURVE",
"750 332 CURVE SMOOTH",
"750 0 LINE",
"841 0 LINE",
"841 344 LINE SMOOTH",
"841 486 OFFCURVE",
"786 557 OFFCURVE",
"676 557 CURVE SMOOTH",
"620 557 OFFCURVE",
"560.33 522.33 OFFCURVE",
"497 453 CURVE",
"473 522.33 OFFCURVE",
"423 557 OFFCURVE",
"347 557 CURVE SMOOTH",
"290.33 557 OFFCURVE",
"234 526 OFFCURVE",
"178 464 CURVE",
"175 464 LINE",
"167 543 LINE"
);
}
);
vertWidth = 1000;
width = 926;
}
);
note = m;
unicode = 006D;
},
{
glyphname = n;
layers = (
{
hints = (
{
horizontal = 1;
place = "{0, 21}";
target = up;
type = BottomGhost;
},
{
horizontal = 1;
place = "{543, -20}";
target = down;
type = TopGhost;
},
{
place = "{92, 91}";
type = Stem;
},
{
place = "{435, 91}";
type = Stem;
},
{
horizontal = 1;
place = "{477, 80}";
type = Stem;
}
);
layerId = "0DB0C058-2990-4612-9839-2732D7BB62C5";
paths = (
{
closed = 1;
nodes = (
"92 543 LINE",
"92 0 LINE",
"183 0 LINE",
"183 394 LINE",
"213 424 OFFCURVE",
"238.67 445.33 OFFCURVE",
"260 458 CURVE SMOOTH",
"281.33 470.67 OFFCURVE",
"305.33 477 OFFCURVE",
"332 477 CURVE SMOOTH",
"368 477 OFFCURVE",
"394.17 465.5 OFFCURVE",
"410.5 442.5 CURVE SMOOTH",
"426.83 419.5 OFFCURVE",
"435 382.67 OFFCURVE",
"435 332 CURVE SMOOTH",
"435 0 LINE",
"526 0 LINE",
"526 344 LINE SMOOTH",
"526 486 OFFCURVE",
"470.67 557 OFFCURVE",
"360 557 CURVE SMOOTH",
"301.33 557 OFFCURVE",
"240.67 526.33 OFFCURVE",
"178 465 CURVE",
"175 465 LINE",
"167 543 LINE"
);
}
);
vertWidth = 1000;
width = 611;
}
);
note = n;
unicode = 006E;
},
{
glyphname = o;
layers = (
{
hints = (
{
horizontal = 1;
place = "{-13, 76}";
type = Stem;
},
{
horizontal = 1;
place = "{481, 76}";
type = Stem;
},
{
place = "{51, 95}";
type = Stem;
},
{
place = "{461, 94}";
type = Stem;
}
);
layerId = "0DB0C058-2990-4612-9839-2732D7BB62C5";
paths = (
{
closed = 1;
nodes = (
"373 -13 OFFCURVE",
"432.5 12.67 OFFCURVE",
"481.5 64 CURVE SMOOTH",
"530.5 115.33 OFFCURVE",
"555 184.33 OFFCURVE",
"555 271 CURVE SMOOTH",
"555 358.33 OFFCURVE",
"530.5 427.83 OFFCURVE",
"481.5 479.5 CURVE SMOOTH",
"432.5 531.17 OFFCURVE",
"373 557 OFFCURVE",
"303 557 CURVE SMOOTH",
"233 557 OFFCURVE",
"173.5 531.17 OFFCURVE",
"124.5 479.5 CURVE SMOOTH",
"75.5 427.83 OFFCURVE",
"51 358.33 OFFCURVE",
"51 271 CURVE SMOOTH",
"51 184.33 OFFCURVE",
"75.5 115.33 OFFCURVE",
"124.5 64 CURVE SMOOTH",
"173.5 12.67 OFFCURVE",
"233 -13 OFFCURVE",
"303 -13 CURVE SMOOTH"
);
},
{
closed = 1;
nodes = (
"255.67 63 OFFCURVE",
"217.67 82 OFFCURVE",
"189 120 CURVE SMOOTH",
"160.33 158 OFFCURVE",
"146 208.33 OFFCURVE",
"146 271 CURVE SMOOTH",
"146 333.67 OFFCURVE",
"160.5 384.33 OFFCURVE",
"189.5 423 CURVE SMOOTH",
"218.5 461.67 OFFCURVE",
"256.33 481 OFFCURVE",
"303 481 CURVE SMOOTH",
"350.33 481 OFFCURVE",
"388.5 461.67 OFFCURVE",
"417.5 423 CURVE SMOOTH",
"446.5 384.33 OFFCURVE",
"461 333.67 OFFCURVE",
"461 271 CURVE SMOOTH",
"461 208.33 OFFCURVE",
"446.5 158 OFFCURVE",
"417.5 120 CURVE SMOOTH",
"388.5 82 OFFCURVE",
"350.33 63 OFFCURVE",
"303 63 CURVE SMOOTH"
);
}
);
vertWidth = 1000;
width = 606;
}
);
note = o;
unicode = 006F;
},
{
glyphname = p;
layers = (
{
hints = (
{
horizontal = 1;
place = "{-229, 21}";
target = up;
type = BottomGhost;
},
{
horizontal = 1;
place = "{-13, 76}";
type = Stem;
},
{
horizontal = 1;
place = "{543, -20}";
target = down;
type = TopGhost;
},
{
place = "{92, 91}";
type = Stem;
},
{
place = "{472, 95}";
type = Stem;
},
{
horizontal = 1;
place = "{480, 77}";
type = Stem;
}
);
layerId = "0DB0C058-2990-4612-9839-2732D7BB62C5";
paths = (
{
closed = 1;
nodes = (
"92 543 LINE",
"92 -229 LINE",
"183 -229 LINE",
"183 -45 LINE",
"181 50 LINE",
"232.33 8 OFFCURVE",
"282.33 -13 OFFCURVE",
"331 -13 CURVE SMOOTH",
"396.33 -13 OFFCURVE",
"452 13.5 OFFCURVE",
"498 66.5 CURVE SMOOTH",
"544 119.5 OFFCURVE",
"567 190.67 OFFCURVE",
"567 280 CURVE SMOOTH",
"567 365.33 OFFCURVE",
"548.17 432.83 OFFCURVE",
"510.5 482.5 CURVE SMOOTH",
"472.83 532.17 OFFCURVE",
"419.67 557 OFFCURVE",
"351 557 CURVE SMOOTH",
"297.67 557 OFFCURVE",
"240 531.67 OFFCURVE",
"178 481 CURVE",
"175 481 LINE",
"167 543 LINE"
);
},
{
closed = 1;
nodes = (
"272 63 OFFCURVE",
"227.67 82 OFFCURVE",
"183 120 CURVE",
"183 405 LINE",
"237 455 OFFCURVE",
"285.67 480 OFFCURVE",
"329 480 CURVE SMOOTH",
"424.33 480 OFFCURVE",
"472 413 OFFCURVE",
"472 279 CURVE SMOOTH",
"472 213 OFFCURVE",
"457.5 160.5 OFFCURVE",
"428.5 121.5 CURVE SMOOTH",
"399.5 82.5 OFFCURVE",
"362 63 OFFCURVE",
"316 63 CURVE SMOOTH"
);
}
);
vertWidth = 1000;
width = 620;
}
);
note = p;
unicode = 0070;
},
{
glyphname = q;
layers = (
{
hints = (
{
horizontal = 1;
place = "{-229, 21}";
target = up;
type = BottomGhost;
},
{
horizontal = 1;
place = "{-13, 76}";
type = Stem;
},
{
horizontal = 1;
place = "{543, -20}";
target = down;
type = TopGhost;
},
{
place = "{53, 94}";
type = Stem;
},
{
place = "{436, 91}";
type = Stem;
},
{
horizontal = 1;
place = "{480, 77}";
type = Stem;
}
);
layerId = "0DB0C058-2990-4612-9839-2732D7BB62C5";
paths = (
{
closed = 1;
nodes = (
"436 -36 LINE",
"436 -229 LINE",
"527 -229 LINE",
"527 543 LINE",
"455 543 LINE",
"446 491 LINE",
"443 491 LINE",
"395 535 OFFCURVE",
"343.33 557 OFFCURVE",
"288 557 CURVE SMOOTH",
"223.33 557 OFFCURVE",
"168 530.67 OFFCURVE",
"122 478 CURVE SMOOTH",
"76 425.33 OFFCURVE",
"53 356.33 OFFCURVE",
"53 271 CURVE SMOOTH",
"53 181.67 OFFCURVE",
"73.17 112 OFFCURVE",
"113.5 62 CURVE SMOOTH",
"153.83 12 OFFCURVE",
"208.33 -13 OFFCURVE",
"277 -13 CURVE SMOOTH",
"334.33 -13 OFFCURVE",
"389 12.33 OFFCURVE",
"441 63 CURVE"
);
},
{
closed = 1;
nodes = (
"249 63 OFFCURVE",
"212 81.33 OFFCURVE",
"186 118 CURVE SMOOTH",
"160 154.67 OFFCURVE",
"147 206 OFFCURVE",
"147 272 CURVE SMOOTH",
"147 333.33 OFFCURVE",
"162 383.33 OFFCURVE",
"192 422 CURVE SMOOTH",
"222 460.67 OFFCURVE",
"259.33 480 OFFCURVE",
"304 480 CURVE SMOOTH",
"349.33 480 OFFCURVE",
"393.33 461 OFFCURVE",
"436 423 CURVE",
"436 138 LINE",
"390.67 88 OFFCURVE",
"344.33 63 OFFCURVE",
"297 63 CURVE SMOOTH"
);
}
);
vertWidth = 1000;
width = 620;
}
);
note = q;
unicode = 0071;
},
{
glyphname = r;
layers = (
{
hints = (
{
horizontal = 1;
place = "{0, 21}";
target = up;
type = BottomGhost;
},
{
horizontal = 1;
place = "{543, -20}";
target = down;
type = TopGhost;
},
{
place = "{92, 91}";
type = Stem;
},
{
horizontal = 1;
place = "{474, 83}";
type = Stem;
},
{
horizontal = 1;
place = "{545, -20}";
target = down;
type = TopGhost;
}
);
layerId = "0DB0C058-2990-4612-9839-2732D7BB62C5";
paths = (
{
closed = 1;
nodes = (
"92 543 LINE",
"92 0 LINE",
"183 0 LINE",
"183 349 LINE",
"199.67 392.33 OFFCURVE",
"220.33 424 OFFCURVE",
"245 444 CURVE SMOOTH",
"269.67 464 OFFCURVE",
"294.67 474 OFFCURVE",
"320 474 CURVE SMOOTH",
"340 474 OFFCURVE",
"357.67 471 OFFCURVE",
"373 465 CURVE",
"390 545 LINE",
"374.67 553 OFFCURVE",
"355.33 557 OFFCURVE",
"332 557 CURVE SMOOTH",
"302 557 OFFCURVE",
"273.67 547 OFFCURVE",
"247 527 CURVE SMOOTH",
"220.33 507 OFFCURVE",
"197.33 479.33 OFFCURVE",
"178 444 CURVE",
"175 444 LINE",
"167 543 LINE"
);
}
);
vertWidth = 1000;
width = 388;
}
);
note = r;
unicode = 0072;
},
{
glyphname = s;
layers = (
{
hints = (
{
horizontal = 1;
place = "{-13, 71}";
type = Stem;
},
{
horizontal = 1;
place = "{485, 72}";
type = Stem;
},
{
place = "{58, 88}";
type = Stem;
},
{
place = "{344, 88}";
type = Stem;
}
);
layerId = "0DB0C058-2990-4612-9839-2732D7BB62C5";
paths = (
{
closed = 1;
nodes = (
"296 -13 OFFCURVE",
"344.5 2.33 OFFCURVE",
"379.5 33 CURVE SMOOTH",
"414.5 63.67 OFFCURVE",
"432 102 OFFCURVE",
"432 148 CURVE SMOOTH",
"432 168 OFFCURVE",
"428.33 186.17 OFFCURVE",
"421 202.5 CURVE SMOOTH",
"413.67 218.83 OFFCURVE",
"405.67 232 OFFCURVE",
"397 242 CURVE SMOOTH",
"388.33 252 OFFCURVE",
"375.17 262 OFFCURVE",
"357.5 272 CURVE SMOOTH",
"339.83 282 OFFCURVE",
"325.67 289.33 OFFCURVE",
"315 294 CURVE SMOOTH",
"304.33 298.67 OFFCURVE",
"288 305 OFFCURVE",
"266 313 CURVE SMOOTH",
"264 313.67 OFFCURVE",
"260.61 314.94 OFFCURVE",
"255.83 316.82 CURVE SMOOTH",
"229.28 326.94 OFFCURVE",
"210.5 334.5 OFFCURVE",
"199.5 339.5 CURVE SMOOTH",
"188.5 344.5 OFFCURVE",
"176.83 353.17 OFFCURVE",
"164.5 365.5 CURVE SMOOTH",
"152.17 377.83 OFFCURVE",
"146 391.67 OFFCURVE",
"146 407 CURVE SMOOTH",
"146 429.67 OFFCURVE",
"154.5 448.33 OFFCURVE",
"171.5 463 CURVE SMOOTH",
"188.5 477.67 OFFCURVE",
"213 485 OFFCURVE",
"245 485 CURVE SMOOTH",
"285 485 OFFCURVE",
"326.67 469 OFFCURVE",
"370 437 CURVE",
"414 496 LINE",
"361.33 536.67 OFFCURVE",
"305 557 OFFCURVE",
"245 557 CURVE SMOOTH",
"187.67 557 OFFCURVE",
"142.17 542.5 OFFCURVE",
"108.5 513.5 CURVE SMOOTH",
"74.83 484.5 OFFCURVE",
"58 447.67 OFFCURVE",
"58 403 CURVE SMOOTH",
"58 381 OFFCURVE",
"62.5 361.33 OFFCURVE",
"71.5 344 CURVE SMOOTH",
"80.5 326.67 OFFCURVE",
"93.83 311.83 OFFCURVE",
"111.5 299.5 CURVE SMOOTH",
"129.17 287.17 OFFCURVE",
"145.83 277.33 OFFCURVE",
"161.5 270 CURVE SMOOTH",
"177.17 262.67 OFFCURVE",
"196.67 254.67 OFFCURVE",
"220 246 CURVE SMOOTH",
"246.67 236 OFFCURVE",
"267 227.67 OFFCURVE",
"281 221 CURVE SMOOTH",
"295 214.33 OFFCURVE",
"309 204 OFFCURVE",
"323 190 CURVE SMOOTH",
"337 176 OFFCURVE",
"344 160.33 OFFCURVE",
"344 143 CURVE SMOOTH",
"344 118.33 OFFCURVE",
"334.83 98 OFFCURVE",
"316.5 82 CURVE SMOOTH",
"298.17 66 OFFCURVE",
"271.67 58 OFFCURVE",
"237 58 CURVE SMOOTH",
"182.33 58 OFFCURVE",
"128.67 79.33 OFFCURVE",
"76 122 CURVE",
"31 62 LINE",
"91.67 12 OFFCURVE",
"159.33 -13 OFFCURVE",
"234 -13 CURVE SMOOTH"
);
}
);
vertWidth = 1000;
width = 468;
}
);
note = s;
unicode = 0073;
},
{
glyphname = t;
layers = (
{
hints = (
{
horizontal = 1;
place = "{-13, 74}";
type = Stem;
},
{
horizontal = 1;
place = "{469, 74}";
type = Stem;
},
{
place = "{108, 91}";
type = Stem;
}
);
layerId = "0DB0C058-2990-4612-9839-2732D7BB62C5";
paths = (
{
closed = 1;
nodes = (
"288.33 -13 OFFCURVE",
"321.67 -6.33 OFFCURVE",
"363 7 CURVE",
"345 75 LINE",
"321 65.67 OFFCURVE",
"300.33 61 OFFCURVE",
"283 61 CURVE SMOOTH",
"252.33 61 OFFCURVE",
"230.67 69.67 OFFCURVE",
"218 87 CURVE SMOOTH",
"205.33 104.33 OFFCURVE",
"199 130.67 OFFCURVE",
"199 166 CURVE SMOOTH",
"199 469 LINE",
"346 469 LINE",
"346 543 LINE",
"199 543 LINE",
"199 695 LINE",
"123 695 LINE",
"112 543 LINE",
"27 538 LINE",
"27 469 LINE",
"108 469 LINE",
"108 168 LINE SMOOTH",
"108 47.33 OFFCURVE",
"159.67 -13 OFFCURVE",
"263 -13 CURVE SMOOTH"
);
}
);
vertWidth = 1000;
width = 377;
}
);
note = t;
unicode = 0074;
},
{
glyphname = u;
layers = (
{
hints = (
{
horizontal = 1;
place = "{-13, 79}";
type = Stem;
},
{
horizontal = 1;
place = "{543, -20}";
target = down;
type = TopGhost;
},
{
place = "{85, 91}";
type = Stem;
},
{
place = "{425, 91}";
type = Stem;
},
{
horizontal = 1;
place = "{0, 21}";
target = up;
type = BottomGhost;
}
);
layerId = "0DB0C058-2990-4612-9839-2732D7BB62C5";
paths = (
{
closed = 1;
nodes = (
"313.33 -13 OFFCURVE",
"373.33 19.67 OFFCURVE",
"430 85 CURVE",
"433 85 LINE",
"440 0 LINE",
"516 0 LINE",
"516 543 LINE",
"425 543 LINE",
"425 158 LINE",
"398.33 124.67 OFFCURVE",
"374 101 OFFCURVE",
"352 87 CURVE SMOOTH",
"330 73 OFFCURVE",
"305.33 66 OFFCURVE",
"278 66 CURVE SMOOTH",
"242 66 OFFCURVE",
"216 77.33 OFFCURVE",
"200 100 CURVE SMOOTH",
"184 122.67 OFFCURVE",
"176 159.33 OFFCURVE",
"176 210 CURVE SMOOTH",
"176 543 LINE",
"85 543 LINE",
"85 199 LINE SMOOTH",
"85 57.67 OFFCURVE",
"140 -13 OFFCURVE",
"250 -13 CURVE SMOOTH"
);
}
);
vertWidth = 1000;
width = 607;
}
);
note = u;
unicode = 0075;
},
{
glyphname = v;
layers = (
{
hints = (
{
horizontal = 1;
place = "{0, 74}";
type = Stem;
},
{
horizontal = 1;
place = "{543, -20}";
target = down;
type = TopGhost;
},
{
place = "{13, 495}";
type = Stem;
}
);
layerId = "0DB0C058-2990-4612-9839-2732D7BB62C5";
paths = (
{
closed = 1;
nodes = (
"13 543 LINE",
"209 0 LINE",
"315 0 LINE",
"508 543 LINE",
"418 543 LINE",
"315 234 LINE SMOOTH",
"311.67 222.67 OFFCURVE",
"295 169.33 OFFCURVE",
"265 74 CURVE",
"261 74 LINE",
"254.33 94 OFFCURVE",
"244.83 123.5 OFFCURVE",
"232.5 162.5 CURVE SMOOTH",
"220.17 201.5 OFFCURVE",
"212.67 225.33 OFFCURVE",
"210 234 CURVE SMOOTH",
"108 543 LINE"
);
}
);
vertWidth = 1000;
width = 521;
}
);
note = v;
unicode = 0076;
},
{
glyphname = w;
layers = (
{
hints = (
{
horizontal = 1;
place = "{0, 77}";
type = Stem;
},
{
horizontal = 1;
place = "{449, 94}";
type = Stem;
},
{
place = "{27, 748}";
type = Stem;
}
);
layerId = "0DB0C058-2990-4612-9839-2732D7BB62C5";
paths = (
{
closed = 1;
nodes = (
"27 543 LINE",
"178 0 LINE",
"285 0 LINE",
"361 291 LINE SMOOTH",
"369.67 324.33 OFFCURVE",
"382 377 OFFCURVE",
"398 449 CURVE",
"403 449 LINE",
"427 347 OFFCURVE",
"439.33 295 OFFCURVE",
"440 293 CURVE SMOOTH",
"519 0 LINE",
"629 0 LINE",
"775 543 LINE",
"689 543 LINE",
"609 229 LINE SMOOTH",
"605.67 213 OFFCURVE",
"600.17 188.17 OFFCURVE",
"592.5 154.5 CURVE SMOOTH",
"584.83 120.83 OFFCURVE",
"579 95 OFFCURVE",
"575 77 CURVE",
"571 77 LINE",
"567 92.33 OFFCURVE",
"563 108.33 OFFCURVE",
"559 125 CURVE SMOOTH",
"555 141.67 OFFCURVE",
"550.33 160.33 OFFCURVE",
"545 181 CURVE SMOOTH",
"539.67 201.67 OFFCURVE",
"535.67 217.67 OFFCURVE",
"533 229 CURVE SMOOTH",
"448 543 LINE",
"359 543 LINE",
"275 229 LINE SMOOTH",
"269 208.33 OFFCURVE",
"256.67 157.67 OFFCURVE",
"238 77 CURVE",
"233 77 LINE",
"231.67 83.67 OFFCURVE",
"221 134.33 OFFCURVE",
"201 229 CURVE",
"120 543 LINE"
);
}
);
vertWidth = 1000;
width = 802;
}
);
note = w;
unicode = 0077;
},
{
glyphname = x;
layers = (
{
hints = (
{
horizontal = 1;
place = "{0, 21}";
target = up;
type = BottomGhost;
},
{
horizontal = 1;
place = "{543, -20}";
target = down;
type = TopGhost;
},
{
place = "{15, 468}";
type = Stem;
}
);
layerId = "0DB0C058-2990-4612-9839-2732D7BB62C5";
paths = (
{
closed = 1;
nodes = (
"194 283 LINE",
"15 0 LINE",
"111 0 LINE",
"184 127 LINE SMOOTH",
"220 189 OFFCURVE",
"238.67 221.33 OFFCURVE",
"240 224 CURVE",
"245 224 LINE",
"267 190 OFFCURVE",
"286.33 157.67 OFFCURVE",
"303 127 CURVE",
"383 0 LINE",
"483 0 LINE",
"304 274 LINE",
"469 543 LINE",
"374 543 LINE",
"307 423 LINE SMOOTH",
"285.67 383 OFFCURVE",
"269.33 353 OFFCURVE",
"258 333 CURVE",
"254 333 LINE",
"200 423 LINE",
"127 543 LINE",
"29 543 LINE"
);
}
);
vertWidth = 1000;
width = 498;
}
);
note = x;
unicode = 0078;
},
{
glyphname = y;
layers = (
{
hints = (
{
horizontal = 1;
place = "{-234, 75}";
type = Stem;
},
{
horizontal = 1;
place = "{543, -20}";
target = down;
type = TopGhost;
},
{
place = "{13, 495}";
type = Stem;
}
);
layerId = "0DB0C058-2990-4612-9839-2732D7BB62C5";
paths = (
{
closed = 1;
nodes = (
"151 -234 OFFCURVE",
"191.83 -217.33 OFFCURVE",
"223.5 -184 CURVE SMOOTH",
"255.17 -150.67 OFFCURVE",
"281.67 -104.33 OFFCURVE",
"303 -45 CURVE SMOOTH",
"508 543 LINE",
"419 543 LINE",
"322 241 LINE SMOOTH",
"316.67 223 OFFCURVE",
"308.67 196.33 OFFCURVE",
"298 161 CURVE SMOOTH",
"287.33 125.67 OFFCURVE",
"280 101.67 OFFCURVE",
"276 89 CURVE",
"271 89 LINE",
"261.67 115 OFFCURVE",
"244.33 165.67 OFFCURVE",
"219 241 CURVE SMOOTH",
"108 543 LINE",
"13 543 LINE",
"231 -1 LINE",
"219 -42 LINE SMOOTH",
"193.67 -120 OFFCURVE",
"152.67 -159 OFFCURVE",
"96 -159 CURVE SMOOTH",
"85.33 -159 OFFCURVE",
"71.67 -156 OFFCURVE",
"55 -150 CURVE",
"37 -223 LINE",
"55 -230.33 OFFCURVE",
"76.33 -234 OFFCURVE",
"101 -234 CURVE SMOOTH"
);
}
);
vertWidth = 1000;
width = 521;
}
);
note = y;
unicode = 0079;
},
{
glyphname = z;
layers = (
{
hints = (
{
horizontal = 1;
place = "{0, 74}";
type = Stem;
},
{
horizontal = 1;
place = "{469, 74}";
type = Stem;
},
{
place = "{35, 411}";
type = Stem;
}
);
layerId = "0DB0C058-2990-4612-9839-2732D7BB62C5";
paths = (
{
closed = 1;
nodes = (
"35 49 LINE",
"35 0 LINE",
"446 0 LINE",
"446 74 LINE",
"150 74 LINE",
"436 494 LINE",
"436 543 LINE",
"66 543 LINE",
"66 469 LINE",
"321 469 LINE"
);
}
);
vertWidth = 1000;
width = 474;
}
);
note = z;
unicode = 007A;
},
{
glyphname = uni3002;
layers = (
{
hints = (
{
horizontal = 1;
place = "{-61, 51}";
type = Stem;
},
{
horizontal = 1;
place = "{193, 51}";
type = Stem;
},
{
place = "{42, 51}";
type = Stem;
},
{
place = "{295, 52}";
type = Stem;
}
);
layerId = "0DB0C058-2990-4612-9839-2732D7BB62C5";
paths = (
{
closed = 1;
nodes = (
"152.67 244 OFFCURVE",
"117 229.17 OFFCURVE",
"87 199.5 CURVE SMOOTH",
"57 169.83 OFFCURVE",
"42 134 OFFCURVE",
"42 92 CURVE SMOOTH",
"42 50 OFFCURVE",
"57 14 OFFCURVE",
"87 -16 CURVE SMOOTH",
"117 -46 OFFCURVE",
"152.67 -61 OFFCURVE",
"194 -61 CURVE SMOOTH",
"236.67 -61 OFFCURVE",
"272.83 -46 OFFCURVE",
"302.5 -16 CURVE SMOOTH",
"332.17 14 OFFCURVE",
"347 50 OFFCURVE",
"347 92 CURVE SMOOTH",
"347 134 OFFCURVE",
"332.17 169.83 OFFCURVE",
"302.5 199.5 CURVE SMOOTH",
"272.83 229.17 OFFCURVE",
"236.67 244 OFFCURVE",
"194 244 CURVE SMOOTH"
);
},
{
closed = 1;
nodes = (
"166 -10 OFFCURVE",
"142.17 0 OFFCURVE",
"122.5 20 CURVE SMOOTH",
"102.83 40 OFFCURVE",
"93 64 OFFCURVE",
"93 92 CURVE SMOOTH",
"93 119.33 OFFCURVE",
"103 143 OFFCURVE",
"123 163 CURVE SMOOTH",
"143 183 OFFCURVE",
"166.67 193 OFFCURVE",
"194 193 CURVE SMOOTH",
"222 193 OFFCURVE",
"245.83 183.17 OFFCURVE",
"265.5 163.5 CURVE SMOOTH",
"285.17 143.83 OFFCURVE",
"295 120 OFFCURVE",
"295 92 CURVE SMOOTH",
"295 63.33 OFFCURVE",
"285.33 39.17 OFFCURVE",
"266 19.5 CURVE SMOOTH",
"246.67 -0.17 OFFCURVE",
"222.67 -10 OFFCURVE",
"194 -10 CURVE SMOOTH"
);
}
);
vertWidth = 1000;
width = 1000;
}
);
note = uni3002;
unicode = 3002;
},
{
glyphname = uni4E00;
layers = (
{
layerId = "0DB0C058-2990-4612-9839-2732D7BB62C5";
paths = (
{
closed = 1;
nodes = (
"974 406 LINE",
"910 460 LINE",
"856 406 LINE",
"50 406 LINE",
"50 385 LINE",
"974 385 LINE"
);
}
);
vertWidth = 1024;
width = 1024;
}
);
note = uni4E00;
unicode = 4E00;
},
{
glyphname = uniFE12;
layers = (
{
hints = (
{
horizontal = 1;
place = "{515, 50}";
type = Stem;
},
{
horizontal = 1;
place = "{764, 51}";
type = Stem;
},
{
place = "{653, 50}";
type = Stem;
},
{
place = "{902, 50}";
type = Stem;
}
);
layerId = "0DB0C058-2990-4612-9839-2732D7BB62C5";
paths = (
{
closed = 1;
nodes = (
"762.33 815 OFFCURVE",
"727.17 800.17 OFFCURVE",
"697.5 770.5 CURVE SMOOTH",
"667.83 740.83 OFFCURVE",
"653 705.67 OFFCURVE",
"653 665 CURVE SMOOTH",
"653 623.67 OFFCURVE",
"667.67 588.33 OFFCURVE",
"697 559 CURVE SMOOTH",
"726.33 529.67 OFFCURVE",
"761.67 515 OFFCURVE",
"803 515 CURVE SMOOTH",
"844.33 515 OFFCURVE",
"879.5 529.67 OFFCURVE",
"908.5 559 CURVE SMOOTH",
"937.5 588.33 OFFCURVE",
"952 623.67 OFFCURVE",
"952 665 CURVE SMOOTH",
"952 706.33 OFFCURVE",
"937.5 741.67 OFFCURVE",
"908.5 771 CURVE SMOOTH",
"879.5 800.33 OFFCURVE",
"844.33 815 OFFCURVE",
"803 815 CURVE SMOOTH"
);
},
{
closed = 1;
nodes = (
"775.67 565 OFFCURVE",
"752.17 574.67 OFFCURVE",
"732.5 594 CURVE SMOOTH",
"712.83 613.33 OFFCURVE",
"703 637 OFFCURVE",
"703 665 CURVE SMOOTH",
"703 692.33 OFFCURVE",
"712.83 715.67 OFFCURVE",
"732.5 735 CURVE SMOOTH",
"752.17 754.33 OFFCURVE",
"775.67 764 OFFCURVE",
"803 764 CURVE SMOOTH",
"830.33 764 OFFCURVE",
"853.67 754.33 OFFCURVE",
"873 735 CURVE SMOOTH",
"892.33 715.67 OFFCURVE",
"902 692.33 OFFCURVE",
"902 665 CURVE SMOOTH",
"902 637 OFFCURVE",
"892.33 613.33 OFFCURVE",
"873 594 CURVE SMOOTH",
"853.67 574.67 OFFCURVE",
"830.33 565 OFFCURVE",
"803 565 CURVE SMOOTH"
);
}
);
vertWidth = 1000;
width = 1000;
}
);
note = uniFE12;
unicode = FE12;
},
{
glyphname = u16FE1;
layers = (
{
hints = (
{
horizontal = 1;
place = "{332, 111}";
type = Stem;
},
{
horizontal = 1;
place = "{655, 111}";
type = Stem;
},
{
place = "{45, 104}";
type = Stem;
},
{
place = "{333, 104}";
type = Stem;
},
{
place = "{555, 81}";
type = Stem;
},
{
place = "{540, 80}";
type = Stem;
}
);
layerId = "0DB0C058-2990-4612-9839-2732D7BB62C5";
paths = (
{
closed = 1;
nodes = (
"45 371.67 OFFCURVE",
"50 358.67 OFFCURVE",
"60 348 CURVE SMOOTH",
"70 337.33 OFFCURVE",
"82.33 332 OFFCURVE",
"97 332 CURVE SMOOTH",
"113 332 OFFCURVE",
"125.67 337.17 OFFCURVE",
"135 347.5 CURVE SMOOTH",
"144.33 357.83 OFFCURVE",
"149 371 OFFCURVE",
"149 387 CURVE SMOOTH",
"149 403.67 OFFCURVE",
"144.33 417.17 OFFCURVE",
"135 427.5 CURVE SMOOTH",
"125.67 437.83 OFFCURVE",
"113 443 OFFCURVE",
"97 443 CURVE SMOOTH",
"81.67 443 OFFCURVE",
"69.17 437.83 OFFCURVE",
"59.5 427.5 CURVE SMOOTH",
"49.83 417.17 OFFCURVE",
"45 403.67 OFFCURVE",
"45 387 CURVE SMOOTH"
);
},
{
closed = 1;
nodes = (
"321 251 LINE",
"385 237 LINE",
"462.33 323 OFFCURVE",
"522.83 432.67 OFFCURVE",
"566.5 566 CURVE SMOOTH",
"610.17 699.33 OFFCURVE",
"633.33 844 OFFCURVE",
"636 1000 CURVE",
"555 1000 LINE",
"553.67 862 OFFCURVE",
"534.83 732.83 OFFCURVE",
"498.5 612.5 CURVE SMOOTH",
"462.17 492.17 OFFCURVE",
"413 396.67 OFFCURVE",
"351 326 CURVE",
"385 302 LINE",
"239 704 LINE",
"162 677 LINE"
);
},
{
closed = 1;
nodes = (
"502 509 LINE",
"528 441.67 OFFCURVE",
"540.67 378 OFFCURVE",
"540 318 CURVE SMOOTH",
"538.67 263.33 OFFCURVE",
"518.5 202.83 OFFCURVE",
"479.5 136.5 CURVE SMOOTH",
"440.5 70.17 OFFCURVE",
"386.67 4.33 OFFCURVE",
"318 -61 CURVE",
"372 -120 LINE",
"448.67 -47.33 OFFCURVE",
"508.83 27 OFFCURVE",
"552.5 103 CURVE SMOOTH",
"596.17 179 OFFCURVE",
"618.67 250 OFFCURVE",
"620 316 CURVE SMOOTH",
"622 407.33 OFFCURVE",
"599.67 500.67 OFFCURVE",
"553 596 CURVE"
);
},
{
closed = 1;
nodes = (
"333 694.67 OFFCURVE",
"338 681.67 OFFCURVE",
"348 671 CURVE SMOOTH",
"358 660.33 OFFCURVE",
"370.33 655 OFFCURVE",
"385 655 CURVE SMOOTH",
"401 655 OFFCURVE",
"413.67 660.17 OFFCURVE",
"423 670.5 CURVE SMOOTH",
"432.33 680.83 OFFCURVE",
"437 694 OFFCURVE",
"437 710 CURVE SMOOTH",
"437 726.67 OFFCURVE",
"432.33 740.17 OFFCURVE",
"423 750.5 CURVE SMOOTH",
"413.67 760.83 OFFCURVE",
"401 766 OFFCURVE",
"385 766 CURVE SMOOTH",
"369.67 766 OFFCURVE",
"357.17 760.83 OFFCURVE",
"347.5 750.5 CURVE SMOOTH",
"337.83 740.17 OFFCURVE",
"333 726.67 OFFCURVE",
"333 710 CURVE SMOOTH"
);
}
);
vertWidth = 1000;
width = 740;
}
);
note = u16FE1;
unicode = 16FE1;
},
{
glyphname = u1B170;
layers = (
{
hints = (
{
place = "{521, 84}";
type = Stem;
}
);
layerId = "0DB0C058-2990-4612-9839-2732D7BB62C5";
paths = (
{
closed = 1;
nodes = (
"169 -120 LINE",
"322.33 30 OFFCURVE",
"434 202 OFFCURVE",
"504 396 CURVE SMOOTH",
"567.33 569.33 OFFCURVE",
"601 770.67 OFFCURVE",
"605 1000 CURVE",
"521 1000 LINE",
"517 781.33 OFFCURVE",
"485.33 589.33 OFFCURVE",
"426 424 CURVE SMOOTH",
"358.67 242 OFFCURVE",
"254 81.33 OFFCURVE",
"112 -58 CURVE"
);
}
);
vertWidth = 1000;
width = 740;
}
);
note = u1B170;
unicode = 1B170;
},
{
glyphname = u1B171;
layers = (
{
hints = (
{
place = "{538, 82}";
type = Stem;
}
);
layerId = "0DB0C058-2990-4612-9839-2732D7BB62C5";
paths = (
{
closed = 1;
nodes = (
"196 214 LINE",
"338 317.33 OFFCURVE",
"443.67 438.67 OFFCURVE",
"513 578 CURVE SMOOTH",
"573.67 702.67 OFFCURVE",
"609.33 842 OFFCURVE",
"620 996 CURVE",
"538 1000 LINE",
"528.67 857.33 OFFCURVE",
"495.67 728.67 OFFCURVE",
"439 614 CURVE SMOOTH",
"377 487.33 OFFCURVE",
"280.33 376.33 OFFCURVE",
"149 281 CURVE"
);
},
{
closed = 1;
nodes = (
"166 -120 LINE",
"234 -74 OFFCURVE",
"302 -21.33 OFFCURVE",
"370 38 CURVE SMOOTH",
"430 90.67 OFFCURVE",
"484 146 OFFCURVE",
"532 204 CURVE",
"468 255 LINE",
"425.33 203.67 OFFCURVE",
"374.67 152 OFFCURVE",
"316 100 CURVE SMOOTH",
"254.67 46 OFFCURVE",
"189.33 -4.67 OFFCURVE",
"120 -52 CURVE"
);
}
);
vertWidth = 1000;
width = 740;
}
);
note = u1B171;
unicode = 1B171;
},
{
glyphname = u1B172;
layers = (
{
hints = (
{
place = "{375, 80}";
type = Stem;
},
{
place = "{547, 79}";
type = Stem;
}
);
layerId = "0DB0C058-2990-4612-9839-2732D7BB62C5";
paths = (
{
closed = 1;
nodes = (
"122 211 LINE",
"304.67 327 OFFCURVE",
"433.67 450.67 OFFCURVE",
"509 582 CURVE SMOOTH",
"575 696.67 OFFCURVE",
"614 837.67 OFFCURVE",
"626 1005 CURVE",
"547 1010 LINE",
"535.67 854.67 OFFCURVE",
"499.67 725.33 OFFCURVE",
"439 622 CURVE SMOOTH",
"370.33 502 OFFCURVE",
"250.33 387.67 OFFCURVE",
"79 279 CURVE"
);
},
{
closed = 1;
nodes = (
"239 761 LINE",
"287.67 641.67 OFFCURVE",
"322.5 543.83 OFFCURVE",
"343.5 467.5 CURVE SMOOTH",
"364.5 391.17 OFFCURVE",
"375 323.67 OFFCURVE",
"375 265 CURVE SMOOTH",
"375 204.33 OFFCURVE",
"363.67 148 OFFCURVE",
"341 96 CURVE SMOOTH",
"318.33 44 OFFCURVE",
"282 -9 OFFCURVE",
"232 -63 CURVE",
"288 -120 LINE",
"346 -58 OFFCURVE",
"388.33 4 OFFCURVE",
"415 66 CURVE SMOOTH",
"441.67 128 OFFCURVE",
"455 194.33 OFFCURVE",
"455 265 CURVE SMOOTH",
"455 387.67 OFFCURVE",
"407.33 563.67 OFFCURVE",
"312 793 CURVE"
);
}
);
vertWidth = 1000;
width = 740;
}
);
note = u1B172;
unicode = 1B172;
},
{
glyphname = u1B173;
layers = (
{
hints = (
{
place = "{403, 81}";
type = Stem;
}
);
layerId = "0DB0C058-2990-4612-9839-2732D7BB62C5";
paths = (
{
closed = 1;
nodes = (
"358 368 LINE",
"396 316.67 OFFCURVE",
"435.33 255 OFFCURVE",
"476 183 CURVE SMOOTH",
"521.33 102.33 OFFCURVE",
"562.67 17.67 OFFCURVE",
"600 -71 CURVE",
"675 -40 LINE",
"633.67 56.67 OFFCURVE",
"590.67 144.33 OFFCURVE",
"546 223 CURVE SMOOTH",
"494.67 314.33 OFFCURVE",
"442.33 393.67 OFFCURVE",
"389 461 CURVE"
);
},
{
closed = 1;
nodes = (
"129 -120 LINE",
"277.67 37.33 OFFCURVE",
"377.67 229.67 OFFCURVE",
"429 457 CURVE SMOOTH",
"461 607 OFFCURVE",
"479.33 787.33 OFFCURVE",
"484 998 CURVE",
"403 1000 LINE",
"398.33 790.67 OFFCURVE",
"380.33 615.67 OFFCURVE",
"349 475 CURVE SMOOTH",
"324.33 364.33 OFFCURVE",
"289.83 265.83 OFFCURVE",
"245.5 179.5 CURVE SMOOTH",
"201.17 93.17 OFFCURVE",
"143.33 13 OFFCURVE",
"72 -61 CURVE"
);
}
);
vertWidth = 1000;
width = 740;
}
);
note = u1B173;
unicode = 1B173;
},
{
glyphname = u1B174;
layers = (
{
hints = (
{
place = "{203, 80}";
type = Stem;
},
{
place = "{461, 80}";
type = Stem;
}
);
layerId = "0DB0C058-2990-4612-9839-2732D7BB62C5";
paths = (
{
closed = 1;
nodes = (
"143 -120 LINE",
"236.33 53.33 OFFCURVE",
"283 222.67 OFFCURVE",
"283 388 CURVE SMOOTH",
"283 526.67 OFFCURVE",
"250.33 672 OFFCURVE",
"185 824 CURVE",
"112 791 LINE",
"172.67 649.67 OFFCURVE",
"203 515.33 OFFCURVE",
"203 388 CURVE SMOOTH",
"203 235.33 OFFCURVE",
"159.67 79.33 OFFCURVE",
"73 -80 CURVE"
);
},
{
closed = 1;
nodes = (
"670 96 LINE",
"584 254 OFFCURVE",
"541 410 OFFCURVE",
"541 564 CURVE SMOOTH",
"541 692.67 OFFCURVE",
"571 827 OFFCURVE",
"631 967 CURVE",
"558 1000 LINE",
"493.33 850 OFFCURVE",
"461 704.67 OFFCURVE",
"461 564 CURVE SMOOTH",
"461 398 OFFCURVE",
"507.33 228.67 OFFCURVE",
"600 56 CURVE"
);
}
);
vertWidth = 1000;
width = 740;
}
);
note = u1B174;
unicode = 1B174;
},
{
glyphname = u1B175;
layers = (
{
hints = (
{
horizontal = 1;
place = "{0, 21}";
target = up;
type = BottomGhost;
},
{
horizontal = 1;
place = "{742, -20}";
target = down;
type = TopGhost;
},
{
place = "{494, 80}";
type = Stem;
}
);
layerId = "0DB0C058-2990-4612-9839-2732D7BB62C5";
paths = (
{
closed = 1;
nodes = (
"117 -120 LINE",
"203 -31.33 OFFCURVE",
"273.17 53 OFFCURVE",
"327.5 133 CURVE SMOOTH",
"381.83 213 OFFCURVE",
"425.67 297 OFFCURVE",
"459 385 CURVE SMOOTH",
"519.67 543 OFFCURVE",
"558 747 OFFCURVE",
"574 997 CURVE",
"494 1000 LINE",
"476.67 760.67 OFFCURVE",
"439.67 565 OFFCURVE",
"383 413 CURVE SMOOTH",
"320.33 253.67 OFFCURVE",
"212.67 95 OFFCURVE",
"60 -63 CURVE"
);
},
{
closed = 1;
nodes = (
"133 689 LINE",
"230.33 578.33 OFFCURVE",
"318 457.33 OFFCURVE",
"396 326 CURVE SMOOTH",
"459.33 218.67 OFFCURVE",
"514 110 OFFCURVE",
"560 0 CURVE",
"635 29 LINE",
"585.67 147.67 OFFCURVE",
"528.67 260.67 OFFCURVE",
"464 368 CURVE SMOOTH",
"384 505.33 OFFCURVE",
"293.67 630 OFFCURVE",
"193 742 CURVE"
);
}
);
vertWidth = 1000;
width = 740;
}
);
note = u1B175;
unicode = 1B175;
},
{
glyphname = u1B176;
layers = (
{
hints = (
{
horizontal = 1;
place = "{342, 123}";
type = Stem;
},
{
place = "{120, 116}";
type = Stem;
}
);
layerId = "0DB0C058-2990-4612-9839-2732D7BB62C5";
paths = (
{
closed = 1;
nodes = (
"120 385.67 OFFCURVE",
"125.5 371.17 OFFCURVE",
"136.5 359.5 CURVE SMOOTH",
"147.5 347.83 OFFCURVE",
"161.33 342 OFFCURVE",
"178 342 CURVE SMOOTH",
"195.33 342 OFFCURVE",
"209.33 347.83 OFFCURVE",
"220 359.5 CURVE SMOOTH",
"230.67 371.17 OFFCURVE",
"236 385.67 OFFCURVE",
"236 403 CURVE SMOOTH",
"236 421 OFFCURVE",
"230.83 435.83 OFFCURVE",
"220.5 447.5 CURVE SMOOTH",
"210.17 459.17 OFFCURVE",
"196 465 OFFCURVE",
"178 465 CURVE SMOOTH",
"161.33 465 OFFCURVE",
"147.5 459.17 OFFCURVE",
"136.5 447.5 CURVE SMOOTH",
"125.5 435.83 OFFCURVE",
"120 421 OFFCURVE",
"120 403 CURVE SMOOTH"
);
},
{
closed = 1;
nodes = (
"344 -120 LINE",
"478 33.33 OFFCURVE",
"553.33 207.67 OFFCURVE",
"570 403 CURVE SMOOTH",
"586 582.33 OFFCURVE",
"553.33 781.33 OFFCURVE",
"472 1000 CURVE",
"394 971 LINE",
"470 749.67 OFFCURVE",
"501 562.67 OFFCURVE",
"487 410 CURVE SMOOTH",
"472.33 234 OFFCURVE",
"403.67 75.67 OFFCURVE",
"281 -65 CURVE"
);
}
);
vertWidth = 1000;
width = 740;
}
);
note = u1B176;
unicode = 1B176;
},
{
glyphname = u1B177;
layers = (
{
hints = (
{
horizontal = 1;
place = "{342, 123}";
type = Stem;
},
{
place = "{505, 117}";
type = Stem;
}
);
layerId = "0DB0C058-2990-4612-9839-2732D7BB62C5";
paths = (
{
closed = 1;
nodes = (
"622 420.33 OFFCURVE",
"616.33 435 OFFCURVE",
"605 447 CURVE SMOOTH",
"593.67 459 OFFCURVE",
"579.67 465 OFFCURVE",
"563 465 CURVE SMOOTH",
"545.67 465 OFFCURVE",
"531.67 459.17 OFFCURVE",
"521 447.5 CURVE SMOOTH",
"510.33 435.83 OFFCURVE",
"505 421 OFFCURVE",
"505 403 CURVE SMOOTH",
"505 385.67 OFFCURVE",
"510.33 371.17 OFFCURVE",
"521 359.5 CURVE SMOOTH",
"531.67 347.83 OFFCURVE",
"545.67 342 OFFCURVE",
"563 342 CURVE SMOOTH",
"579.67 342 OFFCURVE",
"593.67 347.83 OFFCURVE",
"605 359.5 CURVE SMOOTH",
"616.33 371.17 OFFCURVE",
"622 385.67 OFFCURVE",
"622 403 CURVE SMOOTH"
);
},
{
closed = 1;
nodes = (
"416 -75 LINE",
"354 9 OFFCURVE",
"310 98 OFFCURVE",
"284 192 CURVE SMOOTH",
"258 286 OFFCURVE",
"248.67 390.67 OFFCURVE",
"256 506 CURVE SMOOTH",
"264 633.33 OFFCURVE",
"310.33 785.67 OFFCURVE",
"395 963 CURVE",
"320 1000 LINE",
"230 811.33 OFFCURVE",
"180.67 648.33 OFFCURVE",
"172 511 CURVE SMOOTH",
"157.33 265 OFFCURVE",
"216.67 52.33 OFFCURVE",
"350 -127 CURVE"
);
}
);
vertWidth = 1000;
width = 740;
}
);
note = u1B177;
unicode = 1B177;
},
{
glyphname = u1B178;
layers = (
{
hints = (
{
place = "{164, 80}";
type = Stem;
},
{
place = "{387, 80}";
type = Stem;
},
{
place = "{538, 80}";
type = Stem;
}
);
layerId = "0DB0C058-2990-4612-9839-2732D7BB62C5";
paths = (
{
closed = 1;
nodes = (
"100 46 LINE",
"196 146 OFFCURVE",
"244 269.67 OFFCURVE",
"244 417 CURVE SMOOTH",
"244 485 OFFCURVE",
"233.33 559 OFFCURVE",
"212 639 CURVE",
"135 616 LINE",
"154.33 542.67 OFFCURVE",
"164 476.33 OFFCURVE",
"164 417 CURVE SMOOTH",
"164 291.67 OFFCURVE",
"124.33 187.33 OFFCURVE",
"45 104 CURVE"
);
},
{
closed = 1;
nodes = (
"695 -41 LINE",
"643.67 55.67 OFFCURVE",
"618 152.33 OFFCURVE",
"618 249 CURVE SMOOTH",
"618 329 OFFCURVE",
"636 414 OFFCURVE",
"672 504 CURVE",
"599 536 LINE",
"558.33 438 OFFCURVE",
"538 342.33 OFFCURVE",
"538 249 CURVE SMOOTH",
"538 138.33 OFFCURVE",
"567.33 28.33 OFFCURVE",
"626 -81 CURVE"
);
},
{
closed = 1;
nodes = (
"235 -120 LINE",
"313.67 -31.33 OFFCURVE",
"372 75 OFFCURVE",
"410 199 CURVE SMOOTH",
"448 323 OFFCURVE",
"467 470 OFFCURVE",
"467 640 CURVE SMOOTH",
"467 744 OFFCURVE",
"460 864 OFFCURVE",
"446 1000 CURVE",
"367 990 LINE",
"380.33 853.33 OFFCURVE",
"387 736.67 OFFCURVE",
"387 640 CURVE SMOOTH",
"387 480 OFFCURVE",
"370 343 OFFCURVE",
"336 229 CURVE SMOOTH",
"302 115 OFFCURVE",
"249 17.67 OFFCURVE",
"177 -63 CURVE"
);
}
);
vertWidth = 1000;
width = 740;
}
);
note = u1B178;
unicode = 1B178;
},
{
glyphname = u1B179;
layers = (
{
hints = (
{
place = "{342, 84}";
type = Stem;
},
{
place = "{430, 81}";
type = Stem;
}
);
layerId = "0DB0C058-2990-4612-9839-2732D7BB62C5";
paths = (
{
closed = 1;
nodes = (
"156 443 LINE",
"416.67 555.67 OFFCURVE",
"571.67 736.67 OFFCURVE",
"621 986 CURVE",
"540 1000 LINE",
"495.33 782 OFFCURVE",
"357 622 OFFCURVE",
"125 520 CURVE"
);
},
{
closed = 1;
nodes = (
"146 171 LINE",
"269.33 219 OFFCURVE",
"361 274.67 OFFCURVE",
"421 338 CURVE SMOOTH",
"481 401.33 OFFCURVE",
"511 474.33 OFFCURVE",
"511 557 CURVE SMOOTH",
"511 605 OFFCURVE",
"500 659.33 OFFCURVE",
"478 720 CURVE",
"404 689 LINE",
"421.33 641 OFFCURVE",
"430 598 OFFCURVE",
"430 560 CURVE SMOOTH",
"430 496 OFFCURVE",
"404.83 438.83 OFFCURVE",
"354.5 388.5 CURVE SMOOTH",
"304.17 338.17 OFFCURVE",
"225.67 292 OFFCURVE",
"119 250 CURVE"
);
},
{
closed = 1;
nodes = (
"399 -120 LINE",
"417 -37.33 OFFCURVE",
"426 52.67 OFFCURVE",
"426 150 CURVE SMOOTH",
"426 220 OFFCURVE",
"421.67 285.67 OFFCURVE",
"413 347 CURVE",
"330 334 LINE",
"338 274 OFFCURVE",
"342 212.67 OFFCURVE",
"342 150 CURVE SMOOTH",
"342 58.67 OFFCURVE",
"333.33 -26.33 OFFCURVE",
"316 -105 CURVE"
);
}
);
vertWidth = 1000;
width = 740;
}
);
note = u1B179;
unicode = 1B179;
},
{
glyphname = u1B17A;
layers = (
{
hints = (
{
place = "{380, 79}";
type = Stem;
},
{
place = "{506, 79}";
type = Stem;
}
);
layerId = "0DB0C058-2990-4612-9839-2732D7BB62C5";
paths = (
{
closed = 1;
nodes = (
"401 -120 LINE",
"439.67 -27.33 OFFCURVE",
"459 69 OFFCURVE",
"459 169 CURVE SMOOTH",
"459 226.33 OFFCURVE",
"453 286 OFFCURVE",
"441 348 CURVE",
"364 332 LINE",
"374.67 271.33 OFFCURVE",
"380 217 OFFCURVE",
"380 169 CURVE SMOOTH",
"380 80.33 OFFCURVE",
"363 -4.67 OFFCURVE",
"329 -86 CURVE"
);
},
{
closed = 1;
nodes = (
"653 321 LINE",
"595.67 431 OFFCURVE",
"527.67 530 OFFCURVE",
"449 618 CURVE SMOOTH",
"383 691.33 OFFCURVE",
"296.67 775.33 OFFCURVE",
"190 870 CURVE",
"138 811 LINE",
"240.67 721 OFFCURVE",
"330.67 631 OFFCURVE",
"408 541 CURVE SMOOTH",
"480 455 OFFCURVE",
"538 370 OFFCURVE",
"582 286 CURVE"
);
},
{
closed = 1;
nodes = (
"136 231 LINE",
"271.33 330.33 OFFCURVE",
"375.67 442.33 OFFCURVE",
"449 567 CURVE SMOOTH",
"522.33 691 OFFCURVE",
"567.67 833 OFFCURVE",
"585 993 CURVE",
"506 1000 LINE",
"489.33 850.67 OFFCURVE",
"447.67 719.67 OFFCURVE",
"381 607 CURVE SMOOTH",
"313 493.67 OFFCURVE",
"216.67 390.33 OFFCURVE",
"92 297 CURVE"
);
}
);
vertWidth = 1000;
width = 740;
}
);
note = u1B17A;
unicode = 1B17A;
},
{
glyphname = u1B17B;
layers = (
{
hints = (
{
horizontal = 1;
place = "{0, 21}";
target = up;
type = BottomGhost;
},
{
place = "{547, 80}";
type = Stem;
}
);
layerId = "0DB0C058-2990-4612-9839-2732D7BB62C5";
paths = (
{
closed = 1;
nodes = (
"142 -120 LINE",
"278 14 OFFCURVE",
"389 159.33 OFFCURVE",
"475 316 CURVE",
"403 353 LINE",
"321.67 203.67 OFFCURVE",
"216.67 65.67 OFFCURVE",
"88 -61 CURVE"
);
},
{
closed = 1;
nodes = (
"547 1000 LINE",
"534.33 872.67 OFFCURVE",
"495.67 758.33 OFFCURVE",
"431 657 CURVE SMOOTH",
"363.67 549.67 OFFCURVE",
"254.67 447.67 OFFCURVE",
"104 351 CURVE",
"146 283 LINE",
"307.33 386.33 OFFCURVE",
"425 497 OFFCURVE",
"499 615 CURVE SMOOTH",
"570.33 726.33 OFFCURVE",
"613 853 OFFCURVE",
"627 995 CURVE"
);
},
{
closed = 1;
nodes = (
"230 788 LINE",
"517 0 LINE",
"592 27 LINE",
"305 816 LINE"
);
}
);
vertWidth = 1000;
width = 740;
}
);
note = u1B17B;
unicode = 1B17B;
},
{
glyphname = u1B17C;
layers = (
{
hints = (
{
place = "{465, 79}";
type = Stem;
},
{
place = "{531, 78}";
type = Stem;
}
);
layerId = "0DB0C058-2990-4612-9839-2732D7BB62C5";
paths = (
{
closed = 1;
nodes = (
"438 615 LINE",
"456 545 OFFCURVE",
"465 481.67 OFFCURVE",
"465 425 CURVE SMOOTH",
"465 318.33 OFFCURVE",
"434.83 229 OFFCURVE",
"374.5 157 CURVE SMOOTH",
"314.17 85 OFFCURVE",
"215.67 16.33 OFFCURVE",
"79 -49 CURVE",
"116 -120 LINE",
"260 -53.33 OFFCURVE",
"367.33 24 OFFCURVE",
"438 112 CURVE SMOOTH",
"508.67 200 OFFCURVE",
"544 303.67 OFFCURVE",
"544 423 CURVE SMOOTH",
"544 509 OFFCURVE",
"526 604.33 OFFCURVE",
"490 709 CURVE"
);
},
{
closed = 1;
nodes = (
"531 1000 LINE",
"504.33 890 OFFCURVE",
"468.33 790 OFFCURVE",
"423 700 CURVE SMOOTH",
"363.67 582 OFFCURVE",
"283.67 473 OFFCURVE",
"183 373 CURVE",
"183 371 LINE",
"282.33 282.33 OFFCURVE",
"364.83 201.5 OFFCURVE",
"430.5 128.5 CURVE SMOOTH",
"496.17 55.5 OFFCURVE",
"548.67 -17.33 OFFCURVE",
"588 -90 CURVE",
"659 -54 LINE",
"577 100 OFFCURVE",
"454.67 243 OFFCURVE",
"292 375 CURVE",
"382 476.33 OFFCURVE",
"449.67 572.67 OFFCURVE",
"495 664 CURVE SMOOTH",
"545.67 768.67 OFFCURVE",
"583.67 874.67 OFFCURVE",
"609 982 CURVE"
);
}
);
vertWidth = 1000;
width = 740;
}
);
note = u1B17C;
unicode = 1B17C;
},
{
glyphname = u1B17D;
layers = (
{
hints = (
{
horizontal = 1;
place = "{208, 119}";
type = Stem;
},
{
place = "{434, 81}";
type = Stem;
},
{
place = "{581, 110}";
type = Stem;
},
{
place = "{368, 82}";
type = Stem;
}
);
layerId = "0DB0C058-2990-4612-9839-2732D7BB62C5";
paths = (
{
closed = 1;
nodes = (
"434 1000 LINE",
"419.33 861.33 OFFCURVE",
"392.33 740.67 OFFCURVE",
"353 638 CURVE SMOOTH",
"296.33 490 OFFCURVE",
"204.33 355.33 OFFCURVE",
"77 234 CURVE",
"132 174 LINE",
"269.33 304.67 OFFCURVE",
"368 449.67 OFFCURVE",
"428 609 CURVE SMOOTH",
"472.67 724.33 OFFCURVE",
"501.67 852 OFFCURVE",
"515 992 CURVE"
);
},
{
closed = 1;
nodes = (
"347 563 LINE",
"361 450.33 OFFCURVE",
"368 350 OFFCURVE",
"368 262 CURVE SMOOTH",
"368 148.67 OFFCURVE",
"355 27 OFFCURVE",
"329 -103 CURVE",
"409 -120 LINE",
"436.33 17.33 OFFCURVE",
"450 144.67 OFFCURVE",
"450 262 CURVE SMOOTH",
"450 374.67 OFFCURVE",
"438.67 507 OFFCURVE",
"416 659 CURVE"
);
},
{
closed = 1;
nodes = (
"581 251 OFFCURVE",
"586.33 237.17 OFFCURVE",
"597 225.5 CURVE SMOOTH",
"607.67 213.83 OFFCURVE",
"620.67 208 OFFCURVE",
"636 208 CURVE SMOOTH",
"652.67 208 OFFCURVE",
"666 213.67 OFFCURVE",
"676 225 CURVE SMOOTH",
"686 236.33 OFFCURVE",
"691 250.33 OFFCURVE",
"691 267 CURVE SMOOTH",
"691 284.33 OFFCURVE",
"686 298.67 OFFCURVE",
"676 310 CURVE SMOOTH",
"666 321.33 OFFCURVE",
"652.67 327 OFFCURVE",
"636 327 CURVE SMOOTH",
"620.67 327 OFFCURVE",
"607.67 321.17 OFFCURVE",
"597 309.5 CURVE SMOOTH",
"586.33 297.83 OFFCURVE",
"581 283.67 OFFCURVE",
"581 267 CURVE SMOOTH"
);
}
);
vertWidth = 1000;
width = 740;
}
);
note = u1B17D;
unicode = 1B17D;
},
{
glyphname = u1B17E;
layers = (
{
hints = (
{
place = "{247, 82}";
type = Stem;
},
{
place = "{484, 85}";
type = Stem;
}
);
layerId = "0DB0C058-2990-4612-9839-2732D7BB62C5";
paths = (
{
closed = 1;
nodes = (
"565 197 LINE",
"567.67 215 OFFCURVE",
"569 241.33 OFFCURVE",
"569 276 CURVE SMOOTH",
"569 352.67 OFFCURVE",
"557 429.67 OFFCURVE",
"533 507 CURVE SMOOTH",
"509 584.33 OFFCURVE",
"475.33 654 OFFCURVE",
"432 716 CURVE",
"364 665 LINE",
"401.33 610.33 OFFCURVE",
"430.67 548.5 OFFCURVE",
"452 479.5 CURVE SMOOTH",
"473.33 410.5 OFFCURVE",
"484 342 OFFCURVE",
"484 274 CURVE SMOOTH",
"484 246 OFFCURVE",
"483 222.33 OFFCURVE",
"481 203 CURVE"
);
},
{
closed = 1;
nodes = (
"259 -120 LINE",
"305.67 -20.67 OFFCURVE",
"329 76 OFFCURVE",
"329 170 CURVE SMOOTH",
"329 288.67 OFFCURVE",
"293.67 399.33 OFFCURVE",
"223 502 CURVE",
"215 459 LINE",
"299.67 518.33 OFFCURVE",
"371.67 589.83 OFFCURVE",
"431 673.5 CURVE SMOOTH",
"490.33 757.17 OFFCURVE",
"540 858.33 OFFCURVE",
"580 977 CURVE",
"503 1000 LINE",
"465.67 887.33 OFFCURVE",
"416.83 790 OFFCURVE",
"356.5 708 CURVE SMOOTH",
"296.17 626 OFFCURVE",
"220.67 554.67 OFFCURVE",
"130 494 CURVE",
"130 492 LINE",
"208 388 OFFCURVE",
"247 280.67 OFFCURVE",
"247 170 CURVE SMOOTH",
"247 88.67 OFFCURVE",
"226.33 4 OFFCURVE",
"185 -84 CURVE"
);
}
);
vertWidth = 1000;
width = 740;
}
);
note = u1B17E;
unicode = 1B17E;
},
{
glyphname = u1B17F;
layers = (
{
hints = (
{
horizontal = 1;
place = "{273, 121}";
type = Stem;
},
{
place = "{45, 112}";
type = Stem;
},
{
place = "{367, 83}";
type = Stem;
},
{
place = "{583, 112}";
type = Stem;
}
);
layerId = "0DB0C058-2990-4612-9839-2732D7BB62C5";
paths = (
{
closed = 1;
nodes = (
"187 -120 LINE",
"285 -6 OFFCURVE",
"353.33 113.17 OFFCURVE",
"392 237.5 CURVE SMOOTH",
"430.67 361.83 OFFCURVE",
"450 522.33 OFFCURVE",
"450 719 CURVE SMOOTH",
"450 802.33 OFFCURVE",
"446.67 896 OFFCURVE",
"440 1000 CURVE",
"357 995 LINE",
"363.67 892.33 OFFCURVE",
"367 800.33 OFFCURVE",
"367 719 CURVE SMOOTH",
"367 532.33 OFFCURVE",
"349.33 381.67 OFFCURVE",
"314 267 CURVE SMOOTH",
"278.67 152.33 OFFCURVE",
"215.67 42 OFFCURVE",
"125 -64 CURVE"
);
},
{
closed = 1;
nodes = (
"45 316.33 OFFCURVE",
"50.33 302.17 OFFCURVE",
"61 290.5 CURVE SMOOTH",
"71.67 278.83 OFFCURVE",
"85 273 OFFCURVE",
"101 273 CURVE SMOOTH",
"118.33 273 OFFCURVE",
"132 278.67 OFFCURVE",
"142 290 CURVE SMOOTH",
"152 301.33 OFFCURVE",
"157 315.67 OFFCURVE",
"157 333 CURVE SMOOTH",
"157 351 OFFCURVE",
"152 365.67 OFFCURVE",
"142 377 CURVE SMOOTH",
"132 388.33 OFFCURVE",
"118.33 394 OFFCURVE",
"101 394 CURVE SMOOTH",
"85 394 OFFCURVE",
"71.67 388.17 OFFCURVE",
"61 376.5 CURVE SMOOTH",
"50.33 364.83 OFFCURVE",
"45 350.33 OFFCURVE",
"45 333 CURVE SMOOTH"
);
},
{
closed = 1;
nodes = (
"583 318.33 OFFCURVE",
"588.33 304.17 OFFCURVE",
"599 292.5 CURVE SMOOTH",
"609.67 280.83 OFFCURVE",
"623 275 OFFCURVE",
"639 275 CURVE SMOOTH",
"656.33 275 OFFCURVE",
"670 280.67 OFFCURVE",
"680 292 CURVE SMOOTH",
"690 303.33 OFFCURVE",
"695 317.67 OFFCURVE",
"695 335 CURVE SMOOTH",
"695 353 OFFCURVE",
"690 367.67 OFFCURVE",
"680 379 CURVE SMOOTH",
"670 390.33 OFFCURVE",
"656.33 396 OFFCURVE",
"639 396 CURVE SMOOTH",
"623 396 OFFCURVE",
"609.67 390.17 OFFCURVE",
"599 378.5 CURVE SMOOTH",
"588.33 366.83 OFFCURVE",
"583 352.33 OFFCURVE",
"583 335 CURVE SMOOTH"
);
}
);
vertWidth = 1000;
width = 740;
}
);
note = u1B17F;
unicode = 1B17F;
},
{
glyphname = u1B180;
layers = (
{
hints = (
{
horizontal = 1;
place = "{733, -20}";
target = down;
type = TopGhost;
},
{
place = "{510, 81}";
type = Stem;
}
);
layerId = "0DB0C058-2990-4612-9839-2732D7BB62C5";
paths = (
{
closed = 1;
nodes = (
"135 706 LINE",
"368 66 LINE",
"443 93 LINE",
"210 733 LINE"
);
},
{
closed = 1;
nodes = (
"540 272 LINE",
"431.33 150.67 OFFCURVE",
"306.33 43 OFFCURVE",
"165 -51 CURVE",
"209 -120 LINE",
"353 -22.67 OFFCURVE",
"483.33 90 OFFCURVE",
"600 218 CURVE"
);
},
{
closed = 1;
nodes = (
"123 156 LINE",
"273 258.67 OFFCURVE",
"385.33 376 OFFCURVE",
"460 508 CURVE SMOOTH",
"536 640.67 OFFCURVE",
"579.67 803.33 OFFCURVE",
"591 996 CURVE",
"510 1000 LINE",
"499.33 822.67 OFFCURVE",
"459 672.33 OFFCURVE",
"389 549 CURVE SMOOTH",
"321 427 OFFCURVE",
"218 319 OFFCURVE",
"80 225 CURVE"
);
}
);
vertWidth = 1000;
width = 740;
}
);
note = u1B180;
unicode = 1B180;
},
{
glyphname = u1B181;
layers = (
{
hints = (
{
place = "{426, 81}";
type = Stem;
},
{
place = "{536, 77}";
type = Stem;
}
);
layerId = "0DB0C058-2990-4612-9839-2732D7BB62C5";
paths = (
{
closed = 1;
nodes = (
"536 1000 LINE",
"499.33 887.33 OFFCURVE",
"450.83 788.33 OFFCURVE",
"390.5 703 CURVE SMOOTH",
"330.17 617.67 OFFCURVE",
"242.33 523.67 OFFCURVE",
"127 421 CURVE",
"127 417 LINE",
"239.67 316.33 OFFCURVE",
"326.67 226.5 OFFCURVE",
"388 147.5 CURVE SMOOTH",
"449.33 68.5 OFFCURVE",
"501.33 -20.67 OFFCURVE",
"544 -120 CURVE",
"617 -87 LINE",
"533.67 106.33 OFFCURVE",
"401 280.33 OFFCURVE",
"219 435 CURVE",
"215 399 LINE",
"313 479 OFFCURVE",
"394.17 566 OFFCURVE",
"458.5 660 CURVE SMOOTH",
"522.83 754 OFFCURVE",
"574.33 860.67 OFFCURVE",
"613 980 CURVE"
);
},
{
closed = 1;
nodes = (
"162 -51 LINE",
"280.67 -1 OFFCURVE",
"367.83 60.67 OFFCURVE",
"423.5 134 CURVE SMOOTH",
"479.17 207.33 OFFCURVE",
"507 296.67 OFFCURVE",
"507 402 CURVE SMOOTH",
"507 507.33 OFFCURVE",
"483.5 597.17 OFFCURVE",
"436.5 671.5 CURVE SMOOTH",
"389.5 745.83 OFFCURVE",
"316.33 808.67 OFFCURVE",
"217 860 CURVE",
"177 796 LINE",
"262.33 746 OFFCURVE",
"325.17 689.17 OFFCURVE",
"365.5 625.5 CURVE SMOOTH",
"405.83 561.83 OFFCURVE",
"426 487.33 OFFCURVE",
"426 402 CURVE SMOOTH",
"426 315.33 OFFCURVE",
"401.67 241.17 OFFCURVE",
"353 179.5 CURVE SMOOTH",
"304.33 117.83 OFFCURVE",
"228.67 64.67 OFFCURVE",
"126 20 CURVE"
);
}
);
vertWidth = 1000;
width = 740;
}
);
note = u1B181;
unicode = 1B181;
},
{
glyphname = u1B182;
layers = (
{
hints = (
{
horizontal = 1;
place = "{733, -20}";
target = down;
type = TopGhost;
},
{
place = "{485, 79}";
type = Stem;
},
{
place = "{541, 79}";
type = Stem;
}
);
layerId = "0DB0C058-2990-4612-9839-2732D7BB62C5";
paths = (
{
closed = 1;
nodes = (
"148 706 LINE",
"449 -120 LINE",
"523 -93 LINE",
"222 733 LINE"
);
},
{
closed = 1;
nodes = (
"458 680 LINE",
"476 608.67 OFFCURVE",
"485 543 OFFCURVE",
"485 483 CURVE SMOOTH",
"485 384.33 OFFCURVE",
"453.83 296.83 OFFCURVE",
"391.5 220.5 CURVE SMOOTH",
"329.17 144.17 OFFCURVE",
"232 74.33 OFFCURVE",
"100 11 CURVE",
"133 -61 LINE",
"281 7.67 OFFCURVE",
"389.83 86 OFFCURVE",
"459.5 174 CURVE SMOOTH",
"529.17 262 OFFCURVE",
"564 365.33 OFFCURVE",
"564 484 CURVE SMOOTH",
"564 568.67 OFFCURVE",
"546 663.67 OFFCURVE",
"510 769 CURVE"
);
},
{
closed = 1;
nodes = (
"314 389 LINE",
"396.67 483.67 OFFCURVE",
"460.33 575.33 OFFCURVE",
"505 664 CURVE SMOOTH",
"555.67 768 OFFCURVE",
"594 875.67 OFFCURVE",
"620 987 CURVE",
"541 1000 LINE",
"514.33 890 OFFCURVE",
"478.33 790 OFFCURVE",
"433 700 CURVE SMOOTH",
"390.33 613.33 OFFCURVE",
"332 527.33 OFFCURVE",
"258 442 CURVE"
);
}
);
vertWidth = 1000;
width = 740;
}
);
note = u1B182;
unicode = 1B182;
},
{
glyphname = u1B183;
layers = (
{
hints = (
{
place = "{494, 81}";
type = Stem;
}
);
layerId = "0DB0C058-2990-4612-9839-2732D7BB62C5";
paths = (
{
closed = 1;
nodes = (
"208 -120 LINE",
"359.33 -15.33 OFFCURVE",
"501 114.33 OFFCURVE",
"633 269 CURVE",
"571 320 LINE",
"441.67 168.67 OFFCURVE",
"305.67 44.33 OFFCURVE",
"163 -53 CURVE"
);
},
{
closed = 1;
nodes = (
"494 1000 LINE",
"480.67 845.33 OFFCURVE",
"441.33 710 OFFCURVE",
"376 594 CURVE SMOOTH",
"308 472 OFFCURVE",
"205 364 OFFCURVE",
"67 270 CURVE",
"110 201 LINE",
"260 303.67 OFFCURVE",
"372.33 421 OFFCURVE",
"447 553 CURVE SMOOTH",
"517 675.67 OFFCURVE",
"559.67 823.67 OFFCURVE",
"575 997 CURVE"
);
},
{
closed = 1;
nodes = (
"252 391 LINE",
"367 76 LINE",
"443 103 LINE",
"313 460 LINE"
);
}
);
vertWidth = 1000;
width = 740;
}
);
note = u1B183;
unicode = 1B183;
},
{
glyphname = u1B184;
layers = (
{
hints = (
{
horizontal = 1;
place = "{98, 119}";
type = Stem;
},
{
horizontal = 1;
place = "{748, -20}";
target = down;
type = TopGhost;
},
{
place = "{220, 110}";
type = Stem;
},
{
place = "{479, 80}";
type = Stem;
},
{
place = "{497, 81}";
type = Stem;
}
);
layerId = "0DB0C058-2990-4612-9839-2732D7BB62C5";
paths = (
{
closed = 1;
nodes = (
"479 1000 LINE",
"414.33 730 OFFCURVE",
"294.67 506.67 OFFCURVE",
"120 330 CURVE",
"177 271 LINE",
"269 363.67 OFFCURVE",
"348 472.17 OFFCURVE",
"414 596.5 CURVE SMOOTH",
"480 720.83 OFFCURVE",
"528.33 850 OFFCURVE",
"559 984 CURVE"
);
},
{
closed = 1;
nodes = (
"220 141 OFFCURVE",
"225.33 127.17 OFFCURVE",
"236 115.5 CURVE SMOOTH",
"246.67 103.83 OFFCURVE",
"259.67 98 OFFCURVE",
"275 98 CURVE SMOOTH",
"291.67 98 OFFCURVE",
"305 103.67 OFFCURVE",
"315 115 CURVE SMOOTH",
"325 126.33 OFFCURVE",
"330 140.33 OFFCURVE",
"330 157 CURVE SMOOTH",
"330 174.33 OFFCURVE",
"325 188.67 OFFCURVE",
"315 200 CURVE SMOOTH",
"305 211.33 OFFCURVE",
"291.67 217 OFFCURVE",
"275 217 CURVE SMOOTH",
"259.67 217 OFFCURVE",
"246.67 211.17 OFFCURVE",
"236 199.5 CURVE SMOOTH",
"225.33 187.83 OFFCURVE",
"220 173.67 OFFCURVE",
"220 157 CURVE SMOOTH"
);
},
{
closed = 1;
nodes = (
"368 -120 LINE",
"436 -52.67 OFFCURVE",
"488 22.33 OFFCURVE",
"524 105 CURVE SMOOTH",
"560 187.67 OFFCURVE",
"578 273.33 OFFCURVE",
"578 362 CURVE SMOOTH",
"578 497.33 OFFCURVE",
"540 626 OFFCURVE",
"464 748 CURVE",
"398 700 LINE",
"464 591.33 OFFCURVE",
"497 478.33 OFFCURVE",
"497 361 CURVE SMOOTH",
"497 197.67 OFFCURVE",
"435 55.67 OFFCURVE",
"311 -65 CURVE"
);
}
);
vertWidth = 1000;
width = 740;
}
);
note = u1B184;
unicode = 1B184;
},
{
glyphname = u1B185;
layers = (
{
hints = (
{
place = "{339, 81}";
type = Stem;
}
);
layerId = "0DB0C058-2990-4612-9839-2732D7BB62C5";
paths = (
{
closed = 1;
nodes = (
"127 277 LINE",
"237.67 365.67 OFFCURVE",
"316.33 471.67 OFFCURVE",
"363 595 CURVE SMOOTH",
"402.33 699.67 OFFCURVE",
"423.33 834.33 OFFCURVE",
"426 999 CURVE",
"345 1000 LINE",
"342.33 845.33 OFFCURVE",
"323.33 719.67 OFFCURVE",
"288 623 CURVE SMOOTH",
"247.33 516.33 OFFCURVE",
"177 421.67 OFFCURVE",
"77 339 CURVE"
);
},
{
closed = 1;
nodes = (
"389 -120 LINE",
"409.67 -24.67 OFFCURVE",
"420 75.33 OFFCURVE",
"420 180 CURVE SMOOTH",
"420 253.33 OFFCURVE",
"415.67 322.33 OFFCURVE",
"407 387 CURVE",
"327 374 LINE",
"335 311.33 OFFCURVE",
"339 246.67 OFFCURVE",
"339 180 CURVE SMOOTH",
"339 80.67 OFFCURVE",
"329.33 -12.33 OFFCURVE",
"310 -99 CURVE"
);
},
{
closed = 1;
nodes = (
"665 359 LINE",
"584.33 480.33 OFFCURVE",
"486.33 597.67 OFFCURVE",
"371 711 CURVE",
"316 651 LINE",
"410.67 561.67 OFFCURVE",
"504.33 449.33 OFFCURVE",
"597 314 CURVE"
);
}
);
vertWidth = 1000;
width = 740;
}
);
note = u1B185;
unicode = 1B185;
},
{
glyphname = u1B186;
layers = (
{
hints = (
{
place = "{240, 57}";
type = Stem;
},
{
place = "{526, 80}";
type = Stem;
}
);
layerId = "0DB0C058-2990-4612-9839-2732D7BB62C5";
paths = (
{
closed = 1;
nodes = (
"526 1000 LINE",
"511.33 840 OFFCURVE",
"469.33 700.33 OFFCURVE",
"400 581 CURVE SMOOTH",
"358.67 507.67 OFFCURVE",
"305.33 440 OFFCURVE",
"240 378 CURVE",
"240 271 LINE",
"334.67 351 OFFCURVE",
"411.33 441 OFFCURVE",
"470 541 CURVE SMOOTH",
"544.67 670.33 OFFCURVE",
"590 821.67 OFFCURVE",
"606 995 CURVE"
);
},
{
closed = 1;
nodes = (
"157 -120 LINE",
"250.33 52 OFFCURVE",
"297 221.33 OFFCURVE",
"297 388 CURVE SMOOTH",
"297 525.33 OFFCURVE",
"264.67 670.67 OFFCURVE",
"200 824 CURVE",
"127 792 LINE",
"187 649.33 OFFCURVE",
"217 514.67 OFFCURVE",
"217 388 CURVE SMOOTH",
"217 236.67 OFFCURVE",
"174 80.33 OFFCURVE",
"88 -81 CURVE"
);
},
{
closed = 1;
nodes = (
"454 571 LINE",
"396 491 LINE",
"553 6 LINE",
"629 31 LINE"
);
}
);
vertWidth = 1000;
width = 740;
}
);
note = u1B186;
unicode = 1B186;
},
{
glyphname = u1B187;
layers = (
{
hints = (
{
place = "{530, 78}";
type = Stem;
}
);
layerId = "0DB0C058-2990-4612-9839-2732D7BB62C5";
paths = (
{
closed = 1;
nodes = (
"530 1000 LINE",
"514 870.67 OFFCURVE",
"470.67 755.67 OFFCURVE",
"400 655 CURVE SMOOTH",
"340 569.67 OFFCURVE",
"241.33 483.67 OFFCURVE",
"104 397 CURVE",
"144 330 LINE",
"290 421.33 OFFCURVE",
"396.67 515 OFFCURVE",
"464 611 CURVE SMOOTH",
"542 720.33 OFFCURVE",
"590 847.33 OFFCURVE",
"608 992 CURVE"
);
},
{
closed = 1;
nodes = (
"158 85 LINE",
"254 141 OFFCURVE",
"341.33 201.33 OFFCURVE",
"420 266 CURVE SMOOTH",
"498 330 OFFCURVE",
"564.67 399.33 OFFCURVE",
"620 474 CURVE",
"555 519 LINE",
"505 449.67 OFFCURVE",
"443.33 385.33 OFFCURVE",
"370 326 CURVE SMOOTH",
"296.67 265.33 OFFCURVE",
"213.33 207.67 OFFCURVE",
"120 153 CURVE"
);
},
{
closed = 1;
nodes = (
"359 -120 LINE",
"402.33 0 OFFCURVE",
"424 119 OFFCURVE",
"424 237 CURVE SMOOTH",
"424 405 OFFCURVE",
"365.67 613.33 OFFCURVE",
"249 862 CURVE",
"178 825 LINE",
"289.33 589 OFFCURVE",
"345 393 OFFCURVE",
"345 237 CURVE SMOOTH",
"345 126.33 OFFCURVE",
"325.33 17 OFFCURVE",
"286 -91 CURVE"
);
}
);
vertWidth = 1000;
width = 740;
}
);
note = u1B187;
unicode = 1B187;
},
{
glyphname = u1B188;
layers = (
{
hints = (
{
horizontal = 1;
place = "{-16, 121}";
type = Stem;
},
{
place = "{44, 112}";
type = Stem;
},
{
place = "{546, 85}";
type = Stem;
}
);
layerId = "0DB0C058-2990-4612-9839-2732D7BB62C5";
paths = (
{
closed = 1;
nodes = (
"460 -120 LINE",
"514.67 -12 OFFCURVE",
"556.83 122.83 OFFCURVE",
"586.5 284.5 CURVE SMOOTH",
"616.17 446.17 OFFCURVE",
"631 622.33 OFFCURVE",
"631 813 CURVE SMOOTH",
"631 871 OFFCURVE",
"629.33 933.33 OFFCURVE",
"626 1000 CURVE",
"542 995 LINE",
"544.67 943.67 OFFCURVE",
"546 883 OFFCURVE",
"546 813 CURVE SMOOTH",
"546 470.33 OFFCURVE",
"501.33 189.67 OFFCURVE",
"412 -29 CURVE",
"444 -30 LINE",
"245 517 LINE",
"164 489 LINE",
"383 -112 LINE"
);
},
{
closed = 1;
nodes = (
"44 27.33 OFFCURVE",
"49.33 13.17 OFFCURVE",
"60 1.5 CURVE SMOOTH",
"70.67 -10.17 OFFCURVE",
"84 -16 OFFCURVE",
"100 -16 CURVE SMOOTH",
"117.33 -16 OFFCURVE",
"131 -10.33 OFFCURVE",
"141 1 CURVE SMOOTH",
"151 12.33 OFFCURVE",
"156 26.67 OFFCURVE",
"156 44 CURVE SMOOTH",
"156 62 OFFCURVE",
"151 76.67 OFFCURVE",
"141 88 CURVE SMOOTH",
"131 99.33 OFFCURVE",
"117.33 105 OFFCURVE",
"100 105 CURVE SMOOTH",
"84 105 OFFCURVE",
"70.67 99.17 OFFCURVE",
"60 87.5 CURVE SMOOTH",
"49.33 75.83 OFFCURVE",
"44 61.33 OFFCURVE",
"44 44 CURVE SMOOTH"
);
}
);
vertWidth = 1000;
width = 740;
}
);
note = u1B188;
unicode = 1B188;
},
{
glyphname = u1B189;
layers = (
{
hints = (
{
place = "{345, 79}";
type = Stem;
},
{
place = "{523, 78}";
type = Stem;
}
);
layerId = "0DB0C058-2990-4612-9839-2732D7BB62C5";
paths = (
{
closed = 1;
nodes = (
"287 535 LINE",
"325.67 408.33 OFFCURVE",
"345 295.67 OFFCURVE",
"345 197 CURVE SMOOTH",
"345 100.33 OFFCURVE",
"325.33 4.33 OFFCURVE",
"286 -91 CURVE",
"359 -120 LINE",
"402.33 -13.33 OFFCURVE",
"424 92.33 OFFCURVE",
"424 197 CURVE SMOOTH",
"424 309.67 OFFCURVE",
"400 440.33 OFFCURVE",
"352 589 CURVE"
);
},
{
closed = 1;
nodes = (
"523 1000 LINE",
"499 881.33 OFFCURVE",
"453.5 777.67 OFFCURVE",
"386.5 689 CURVE SMOOTH",
"319.5 600.33 OFFCURVE",
"225.33 519 OFFCURVE",
"104 445 CURVE",
"144 377 LINE",
"275.33 457 OFFCURVE",
"377.83 546 OFFCURVE",
"451.5 644 CURVE SMOOTH",
"525.17 742 OFFCURVE",
"575 856.33 OFFCURVE",
"601 987 CURVE"
);
},
{
closed = 1;
nodes = (
"160 105 LINE",
"359.33 224.33 OFFCURVE",
"513 352.67 OFFCURVE",
"621 490 CURVE",
"558 537 LINE",
"454.67 409 OFFCURVE",
"308.67 289.33 OFFCURVE",
"120 178 CURVE"
);
}
);
vertWidth = 1000;
width = 740;
}
);
note = u1B189;
unicode = 1B189;
},
{
glyphname = u1B18A;
layers = (
{
hints = (
{
place = "{543, 79}";
type = Stem;
}
);
layerId = "0DB0C058-2990-4612-9839-2732D7BB62C5";
paths = (
{
closed = 1;
nodes = (
"543 1000 LINE",
"527 912.67 OFFCURVE",
"497 830.67 OFFCURVE",
"453 754 CURVE SMOOTH",
"391.67 648.67 OFFCURVE",
"297.67 548 OFFCURVE",
"171 452 CURVE",
"218 387 LINE",
"353.33 489 OFFCURVE",
"455 598 OFFCURVE",
"523 714 CURVE SMOOTH",
"571.67 800 OFFCURVE",
"604.67 891.67 OFFCURVE",
"622 989 CURVE"
);
},
{
closed = 1;
nodes = (
"233 158 LINE",
"297.67 201.33 OFFCURVE",
"359.33 250.83 OFFCURVE",
"418 306.5 CURVE SMOOTH",
"476.67 362.17 OFFCURVE",
"526 418.33 OFFCURVE",
"566 475 CURVE",
"499 518 LINE",
"462.33 466.67 OFFCURVE",
"416.5 415 OFFCURVE",
"361.5 363 CURVE SMOOTH",
"306.5 311 OFFCURVE",
"249 264.67 OFFCURVE",
"189 224 CURVE"
);
},
{
closed = 1;
nodes = (
"518 261 LINE",
"472 209 OFFCURVE",
"414 155.5 OFFCURVE",
"344 100.5 CURVE SMOOTH",
"274 45.5 OFFCURVE",
"199.33 -5 OFFCURVE",
"120 -51 CURVE",
"160 -120 LINE",
"238 -78.67 OFFCURVE",
"313.83 -29 OFFCURVE",
"387.5 29 CURVE SMOOTH",
"461.17 87 OFFCURVE",
"525 147 OFFCURVE",
"579 209 CURVE"
);
}
);
vertWidth = 1000;
width = 740;
}
);
note = u1B18A;
unicode = 1B18A;
},
{
glyphname = u1B18B;
layers = (
{
hints = (
{
horizontal = 1;
place = "{0, 21}";
target = up;
type = BottomGhost;
},
{
place = "{517, 80}";
type = Stem;
},
{
place = "{282, 80}";
type = Stem;
},
{
place = "{290, 80}";
type = Stem;
}
);
layerId = "0DB0C058-2990-4612-9839-2732D7BB62C5";
paths = (
{
closed = 1;
nodes = (
"585 0 LINE",
"593 44 OFFCURVE",
"597 86.67 OFFCURVE",
"597 128 CURVE SMOOTH",
"597 246.67 OFFCURVE",
"561.33 359.67 OFFCURVE",
"490 467 CURVE",
"553.33 565 OFFCURVE",
"589.33 699.33 OFFCURVE",
"598 870 CURVE",
"518 873 LINE",
"514 784.33 OFFCURVE",
"502.33 708.67 OFFCURVE",
"483 646 CURVE SMOOTH",
"463.67 583.33 OFFCURVE",
"433.33 523 OFFCURVE",
"392 465 CURVE",
"392 461 LINE",
"475.33 359 OFFCURVE",
"517 249.67 OFFCURVE",
"517 133 CURVE SMOOTH",
"517 99 OFFCURVE",
"513.33 59.33 OFFCURVE",
"506 14 CURVE"
);
},
{
closed = 1;
nodes = (
"326 -120 LINE",
"350 -43 OFFCURVE",
"362 30 OFFCURVE",
"362 99 CURVE SMOOTH",
"362 227.67 OFFCURVE",
"318 350.33 OFFCURVE",
"230 467 CURVE",
"321.33 593.67 OFFCURVE",
"368 771.33 OFFCURVE",
"370 1000 CURVE",
"290 998 LINE",
"288.67 765.33 OFFCURVE",
"234 587.67 OFFCURVE",
"126 465 CURVE",
"126 461 LINE",
"230 357 OFFCURVE",
"282 234.67 OFFCURVE",
"282 94 CURVE SMOOTH",
"282 34 OFFCURVE",
"271 -30 OFFCURVE",
"249 -98 CURVE"
);
}
);
vertWidth = 1000;
width = 740;
}
);
note = u1B18B;
unicode = 1B18B;
},
{
glyphname = u1B18C;
layers = (
{
hints = (
{
horizontal = 1;
place = "{312, 121}";
type = Stem;
},
{
horizontal = 1;
place = "{465, 121}";
type = Stem;
},
{
place = "{44, 112}";
type = Stem;
},
{
place = "{252, 80}";
type = Stem;
},
{
place = "{421, 80}";
type = Stem;
},
{
place = "{584, 112}";
type = Stem;
}
);
layerId = "0DB0C058-2990-4612-9839-2732D7BB62C5";
paths = (
{
closed = 1;
nodes = (
"181 -120 LINE",
"281.67 44 OFFCURVE",
"332 209 OFFCURVE",
"332 375 CURVE SMOOTH",
"332 521.67 OFFCURVE",
"290 672 OFFCURVE",
"206 826 CURVE",
"137 787 LINE",
"213.67 643.67 OFFCURVE",
"252 506.33 OFFCURVE",
"252 375 CURVE SMOOTH",
"252 225.67 OFFCURVE",
"206 75 OFFCURVE",
"114 -77 CURVE"
);
},
{
closed = 1;
nodes = (
"632 118 LINE",
"544.67 270.67 OFFCURVE",
"501 421.67 OFFCURVE",
"501 571 CURVE SMOOTH",
"501 699 OFFCURVE",
"533.33 830 OFFCURVE",
"598 964 CURVE",
"526 1000 LINE",
"456 853.33 OFFCURVE",
"421 710.33 OFFCURVE",
"421 571 CURVE SMOOTH",
"421 407 OFFCURVE",
"468.67 242.33 OFFCURVE",
"564 77 CURVE"
);
},
{
closed = 1;
nodes = (
"44 355.33 OFFCURVE",
"49.33 341.17 OFFCURVE",
"60 329.5 CURVE SMOOTH",
"70.67 317.83 OFFCURVE",
"84 312 OFFCURVE",
"100 312 CURVE SMOOTH",
"117.33 312 OFFCURVE",
"131 317.67 OFFCURVE",
"141 329 CURVE SMOOTH",
"151 340.33 OFFCURVE",
"156 354.67 OFFCURVE",
"156 372 CURVE SMOOTH",
"156 390 OFFCURVE",
"151 404.67 OFFCURVE",
"141 416 CURVE SMOOTH",
"131 427.33 OFFCURVE",
"117.33 433 OFFCURVE",
"100 433 CURVE SMOOTH",
"84 433 OFFCURVE",
"70.67 427.17 OFFCURVE",
"60 415.5 CURVE SMOOTH",
"49.33 403.83 OFFCURVE",
"44 389.33 OFFCURVE",
"44 372 CURVE SMOOTH"
);
},
{
closed = 1;
nodes = (
"584 508.33 OFFCURVE",
"589.33 494.17 OFFCURVE",
"600 482.5 CURVE SMOOTH",
"610.67 470.83 OFFCURVE",
"624 465 OFFCURVE",
"640 465 CURVE SMOOTH",
"657.33 465 OFFCURVE",
"671 470.67 OFFCURVE",
"681 482 CURVE SMOOTH",
"691 493.33 OFFCURVE",
"696 507.67 OFFCURVE",
"696 525 CURVE SMOOTH",
"696 543 OFFCURVE",
"691 557.67 OFFCURVE",
"681 569 CURVE SMOOTH",
"671 580.33 OFFCURVE",
"657.33 586 OFFCURVE",
"640 586 CURVE SMOOTH",
"624 586 OFFCURVE",
"610.67 580.17 OFFCURVE",
"600 568.5 CURVE SMOOTH",
"589.33 556.83 OFFCURVE",
"584 542.33 OFFCURVE",
"584 525 CURVE SMOOTH"
);
}
);
vertWidth = 1000;
width = 740;
}
);
note = u1B18C;
unicode = 1B18C;
},
{
glyphname = u1B18D;
layers = (
{
hints = (
{
place = "{237, 80}";
type = Stem;
},
{
place = "{329, 76}";
type = Stem;
},
{
place = "{522, 74}";
type = Stem;
}
);
layerId = "0DB0C058-2990-4612-9839-2732D7BB62C5";
paths = (
{
closed = 1;
nodes = (
"586 177 LINE",
"592.67 223.67 OFFCURVE",
"596 265 OFFCURVE",
"596 301 CURVE SMOOTH",
"596 455.67 OFFCURVE",
"546.33 606 OFFCURVE",
"447 752 CURVE",
"383 705 LINE",
"475.67 571.67 OFFCURVE",
"522 435.33 OFFCURVE",
"522 296 CURVE SMOOTH",
"522 274.67 OFFCURVE",
"521 253.67 OFFCURVE",
"519 233 CURVE",
"472.33 291 OFFCURVE",
"434.33 364.67 OFFCURVE",
"405 454 CURVE",
"329 431 LINE",
"370.33 310.33 OFFCURVE",
"428.67 214.33 OFFCURVE",
"504 143 CURVE"
);
},
{
closed = 1;
nodes = (
"247 -120 LINE",
"293.67 -20.67 OFFCURVE",
"317 76 OFFCURVE",
"317 170 CURVE SMOOTH",
"317 288.67 OFFCURVE",
"281.67 399.33 OFFCURVE",
"211 502 CURVE",
"205 459 LINE",
"289.67 518.33 OFFCURVE",
"361.67 589.83 OFFCURVE",
"421 673.5 CURVE SMOOTH",
"480.33 757.17 OFFCURVE",
"530 858.33 OFFCURVE",
"570 977 CURVE",
"493 1000 LINE",
"455.67 887.33 OFFCURVE",
"406.83 790 OFFCURVE",
"346.5 708 CURVE SMOOTH",
"286.17 626 OFFCURVE",
"210.67 554.67 OFFCURVE",
"120 494 CURVE",
"120 492 LINE",
"198 388 OFFCURVE",
"237 280.67 OFFCURVE",
"237 170 CURVE SMOOTH",
"237 88.67 OFFCURVE",
"216.33 4 OFFCURVE",
"175 -84 CURVE"
);
}
);
vertWidth = 1000;
width = 740;
}
);
note = u1B18D;
unicode = 1B18D;
},
{
glyphname = u1B18E;
layers = (
{
hints = (
{
horizontal = 1;
place = "{-120, 119}";
type = Stem;
},
{
place = "{334, 110}";
type = Stem;
},
{
place = "{532, 80}";
type = Stem;
}
);
layerId = "0DB0C058-2990-4612-9839-2732D7BB62C5";
paths = (
{
closed = 1;
nodes = (
"532 1000 LINE",
"517.33 906.67 OFFCURVE",
"481.67 815 OFFCURVE",
"425 725 CURVE SMOOTH",
"345.67 598.33 OFFCURVE",
"232.67 492 OFFCURVE",
"86 406 CURVE",
"126 335 LINE",
"283.33 429 OFFCURVE",
"405.67 544.67 OFFCURVE",
"493 682 CURVE SMOOTH",
"555 778.67 OFFCURVE",
"594.67 882.33 OFFCURVE",
"612 993 CURVE"
);
},
{
closed = 1;
nodes = (
"131 -58 LINE",
"198.33 8 OFFCURVE",
"262.33 82 OFFCURVE",
"323 164 CURVE SMOOTH",
"375 234 OFFCURVE",
"421.67 307.33 OFFCURVE",
"463 384 CURVE",
"391 421 LINE",
"353 350.33 OFFCURVE",
"308.67 280.67 OFFCURVE",
"258 212 CURVE SMOOTH",
"202 136 OFFCURVE",
"141 65.33 OFFCURVE",
"75 0 CURVE"
);
},
{
closed = 1;
nodes = (
"334 -77 OFFCURVE",
"339.33 -90.83 OFFCURVE",
"350 -102.5 CURVE SMOOTH",
"360.67 -114.17 OFFCURVE",
"373.67 -120 OFFCURVE",
"389 -120 CURVE SMOOTH",
"405.67 -120 OFFCURVE",
"419 -114.33 OFFCURVE",
"429 -103 CURVE SMOOTH",
"439 -91.67 OFFCURVE",
"444 -77.67 OFFCURVE",
"444 -61 CURVE SMOOTH",
"444 -43.67 OFFCURVE",
"439 -29.33 OFFCURVE",
"429 -18 CURVE SMOOTH",
"419 -6.67 OFFCURVE",
"405.67 -1 OFFCURVE",
"389 -1 CURVE SMOOTH",
"373.67 -1 OFFCURVE",
"360.67 -6.83 OFFCURVE",
"350 -18.5 CURVE SMOOTH",
"339.33 -30.17 OFFCURVE",
"334 -44.33 OFFCURVE",
"334 -61 CURVE SMOOTH"
);
},
{
closed = 1;
nodes = (
"220 848 LINE",
"507 60 LINE",
"583 87 LINE",
"296 876 LINE"
);
}
);
vertWidth = 1000;
width = 740;
}
);
note = u1B18E;
unicode = 1B18E;
},
{
glyphname = u1B18F;
layers = (
{
hints = (
{
horizontal = 1;
place = "{0, 21}";
target = up;
type = BottomGhost;
},
{
horizontal = 1;
place = "{278, 119}";
type = Stem;
},
{
horizontal = 1;
place = "{742, -20}";
target = down;
type = TopGhost;
},
{
place = "{46, 110}";
type = Stem;
},
{
place = "{463, 79}";
type = Stem;
},
{
place = "{584, 110}";
type = Stem;
},
{
horizontal = 1;
place = "{366, 119}";
type = Stem;
}
);
layerId = "0DB0C058-2990-4612-9839-2732D7BB62C5";
paths = (
{
closed = 1;
nodes = (
"46 321 OFFCURVE",
"51.33 307.17 OFFCURVE",
"62 295.5 CURVE SMOOTH",
"72.67 283.83 OFFCURVE",
"85.67 278 OFFCURVE",
"101 278 CURVE SMOOTH",
"117.67 278 OFFCURVE",
"131 283.67 OFFCURVE",
"141 295 CURVE SMOOTH",
"151 306.33 OFFCURVE",
"156 320.33 OFFCURVE",
"156 337 CURVE SMOOTH",
"156 354.33 OFFCURVE",
"151 368.67 OFFCURVE",
"141 380 CURVE SMOOTH",
"131 391.33 OFFCURVE",
"117.67 397 OFFCURVE",
"101 397 CURVE SMOOTH",
"85.67 397 OFFCURVE",
"72.67 391.17 OFFCURVE",
"62 379.5 CURVE SMOOTH",
"51.33 367.83 OFFCURVE",
"46 353.67 OFFCURVE",
"46 337 CURVE SMOOTH"
);
},
{
closed = 1;
nodes = (
"85 -120 LINE",
"171 -31.33 OFFCURVE",
"241.17 53 OFFCURVE",
"295.5 133 CURVE SMOOTH",
"349.83 213 OFFCURVE",
"393.67 297 OFFCURVE",
"427 385 CURVE SMOOTH",
"487.67 542.33 OFFCURVE",
"526 745.67 OFFCURVE",
"542 995 CURVE",
"463 1000 LINE",
"446.33 758.67 OFFCURVE",
"409.67 563 OFFCURVE",
"353 413 CURVE SMOOTH",
"321 330.33 OFFCURVE",
"279.5 251.5 OFFCURVE",
"228.5 176.5 CURVE SMOOTH",
"177.5 101.5 OFFCURVE",
"111 21.67 OFFCURVE",
"29 -63 CURVE"
);
},
{
closed = 1;
nodes = (
"101 689 LINE",
"198.33 578.33 OFFCURVE",
"286 457.33 OFFCURVE",
"364 326 CURVE SMOOTH",
"427.33 218.67 OFFCURVE",
"482 110 OFFCURVE",
"528 0 CURVE",
"603 29 LINE",
"553 147.67 OFFCURVE",
"496 260.67 OFFCURVE",
"432 368 CURVE SMOOTH",
"351.33 506 OFFCURVE",
"261 630.67 OFFCURVE",
"161 742 CURVE"
);
},
{
closed = 1;
nodes = (
"584 409 OFFCURVE",
"589.33 395.17 OFFCURVE",
"600 383.5 CURVE SMOOTH",
"610.67 371.83 OFFCURVE",
"623.67 366 OFFCURVE",
"639 366 CURVE SMOOTH",
"655.67 366 OFFCURVE",
"669 371.67 OFFCURVE",
"679 383 CURVE SMOOTH",
"689 394.33 OFFCURVE",
"694 408.33 OFFCURVE",
"694 425 CURVE SMOOTH",
"694 442.33 OFFCURVE",
"689 456.67 OFFCURVE",
"679 468 CURVE SMOOTH",
"669 479.33 OFFCURVE",
"655.67 485 OFFCURVE",
"639 485 CURVE SMOOTH",
"623.67 485 OFFCURVE",
"610.67 479.17 OFFCURVE",
"600 467.5 CURVE SMOOTH",
"589.33 455.83 OFFCURVE",
"584 441.67 OFFCURVE",
"584 425 CURVE SMOOTH"
);
}
);
vertWidth = 1000;
width = 740;
}
);
note = u1B18F;
unicode = 1B18F;
},
{
glyphname = u1B190;
layers = (
{
hints = (
{
horizontal = 1;
place = "{-120, 72}";
type = Stem;
},
{
horizontal = 1;
place = "{134, 72}";
type = Stem;
},
{
place = "{435, 80}";
type = Stem;
},
{
place = "{214, 80}";
type = Stem;
},
{
place = "{262, 80}";
type = Stem;
},
{
place = "{450, 79}";
type = Stem;
}
);
layerId = "0DB0C058-2990-4612-9839-2732D7BB62C5";
paths = (
{
closed = 1;
nodes = (
"653 246 LINE",
"561 379.33 OFFCURVE",
"515 508.33 OFFCURVE",
"515 633 CURVE SMOOTH",
"515 733.67 OFFCURVE",
"543.33 842.67 OFFCURVE",
"600 960 CURVE",
"531 1000 LINE",
"467 870.67 OFFCURVE",
"435 748.33 OFFCURVE",
"435 633 CURVE SMOOTH",
"435 491 OFFCURVE",
"486 346.67 OFFCURVE",
"588 200 CURVE"
);
},
{
closed = 1;
nodes = (
"149 119 LINE",
"245.67 241 OFFCURVE",
"294 368.33 OFFCURVE",
"294 501 CURVE SMOOTH",
"294 613.67 OFFCURVE",
"257.33 734.67 OFFCURVE",
"184 864 CURVE",
"115 823 LINE",
"181 707 OFFCURVE",
"214 599.67 OFFCURVE",
"214 501 CURVE SMOOTH",
"214 385.67 OFFCURVE",
"171.67 275.33 OFFCURVE",
"87 170 CURVE"
);
},
{
closed = 1;
nodes = (
"433 -120 OFFCURVE",
"464 -105.33 OFFCURVE",
"490 -76 CURVE SMOOTH",
"516 -46.67 OFFCURVE",
"529 -7.33 OFFCURVE",
"529 42 CURVE SMOOTH",
"529 92 OFFCURVE",
"516.17 131.83 OFFCURVE",
"490.5 161.5 CURVE SMOOTH",
"464.83 191.17 OFFCURVE",
"433.67 206 OFFCURVE",
"397 206 CURVE SMOOTH",
"359.67 206 OFFCURVE",
"327.83 191 OFFCURVE",
"301.5 161 CURVE SMOOTH",
"275.17 131 OFFCURVE",
"262 91.33 OFFCURVE",
"262 42 CURVE SMOOTH",
"262 -7.33 OFFCURVE",
"275.17 -46.67 OFFCURVE",
"301.5 -76 CURVE SMOOTH",
"327.83 -105.33 OFFCURVE",
"359.67 -120 OFFCURVE",
"397 -120 CURVE SMOOTH"
);
},
{
closed = 1;
nodes = (
"380.33 -48 OFFCURVE",
"367 -39.67 OFFCURVE",
"357 -23 CURVE SMOOTH",
"347 -6.33 OFFCURVE",
"342 15.33 OFFCURVE",
"342 42 CURVE SMOOTH",
"342 69.33 OFFCURVE",
"347 91.5 OFFCURVE",
"357 108.5 CURVE SMOOTH",
"367 125.5 OFFCURVE",
"380.33 134 OFFCURVE",
"397 134 CURVE SMOOTH",
"412.33 134 OFFCURVE",
"425 125.33 OFFCURVE",
"435 108 CURVE SMOOTH",
"445 90.67 OFFCURVE",
"450 68.67 OFFCURVE",
"450 42 CURVE SMOOTH",
"450 15.33 OFFCURVE",
"445 -6.33 OFFCURVE",
"435 -23 CURVE SMOOTH",
"425 -39.67 OFFCURVE",
"412.33 -48 OFFCURVE",
"397 -48 CURVE SMOOTH"
);
}
);
vertWidth = 1000;
width = 740;
}
);
note = u1B190;
unicode = 1B190;
},
{
glyphname = u1B191;
layers = (
{
hints = (
{
place = "{434, 79}";
type = Stem;
}
);
layerId = "0DB0C058-2990-4612-9839-2732D7BB62C5";
paths = (
{
closed = 1;
nodes = (
"547 1000 LINE",
"521.67 890.67 OFFCURVE",
"474.67 798.17 OFFCURVE",
"406 722.5 CURVE SMOOTH",
"337.33 646.83 OFFCURVE",
"243.33 583.67 OFFCURVE",
"124 533 CURVE",
"157 459 LINE",
"289.67 516.33 OFFCURVE",
"394 587.33 OFFCURVE",
"470 672 CURVE SMOOTH",
"546 756.67 OFFCURVE",
"598 860.33 OFFCURVE",
"626 983 CURVE"
);
},
{
closed = 1;
nodes = (
"141 -25 LINE",
"219.67 11.67 OFFCURVE",
"301.67 56 OFFCURVE",
"387 108 CURVE SMOOTH",
"472.33 160 OFFCURVE",
"547 211.67 OFFCURVE",
"611 263 CURVE",
"562 322 LINE",
"428.67 216 OFFCURVE",
"278.33 122.67 OFFCURVE",
"111 42 CURVE"
);
},
{
closed = 1;
nodes = (
"415 713 LINE",
"427.67 677 OFFCURVE",
"434 642 OFFCURVE",
"434 608 CURVE SMOOTH",
"434 544 OFFCURVE",
"410.33 488.5 OFFCURVE",
"363 441.5 CURVE SMOOTH",
"315.67 394.5 OFFCURVE",
"234.67 346.67 OFFCURVE",
"120 298 CURVE",
"150 225 LINE",
"279.33 280.33 OFFCURVE",
"372.17 337.5 OFFCURVE",
"428.5 396.5 CURVE SMOOTH",
"484.83 455.5 OFFCURVE",
"513 526 OFFCURVE",
"513 608 CURVE SMOOTH",
"513 656 OFFCURVE",
"502.33 708 OFFCURVE",
"481 764 CURVE"
);
},
{
closed = 1;
nodes = (
"381 -120 LINE",
"413.67 26.67 OFFCURVE",
"418.33 199 OFFCURVE",
"395 397 CURVE",
"319 380 LINE",
"343 206 OFFCURVE",
"339 43.33 OFFCURVE",
"307 -108 CURVE"
);
}
);
vertWidth = 1000;
width = 740;
}
);
note = u1B191;
unicode = 1B191;
},
{
glyphname = u1B192;
layers = (
{
hints = (
{
horizontal = 1;
place = "{97, 119}";
type = Stem;
},
{
place = "{46, 110}";
type = Stem;
},
{
place = "{326, 83}";
type = Stem;
},
{
place = "{534, 82}";
type = Stem;
},
{
place = "{582, 79}";
type = Stem;
}
);
layerId = "0DB0C058-2990-4612-9839-2732D7BB62C5";
paths = (
{
closed = 1;
nodes = (
"612 197 LINE",
"614.67 215 OFFCURVE",
"616 241.33 OFFCURVE",
"616 276 CURVE SMOOTH",
"616 352.67 OFFCURVE",
"604 429.67 OFFCURVE",
"580 507 CURVE SMOOTH",
"556 584.33 OFFCURVE",
"522.33 654 OFFCURVE",
"479 716 CURVE",
"414 667 LINE",
"451.33 612.33 OFFCURVE",
"480.67 550.5 OFFCURVE",
"502 481.5 CURVE SMOOTH",
"523.33 412.5 OFFCURVE",
"534 344 OFFCURVE",
"534 276 CURVE SMOOTH",
"534 246 OFFCURVE",
"532.67 222 OFFCURVE",
"530 204 CURVE"
);
},
{
closed = 1;
nodes = (
"338 -120 LINE",
"385.33 -21.33 OFFCURVE",
"409 75.33 OFFCURVE",
"409 170 CURVE SMOOTH",
"409 285.33 OFFCURVE",
"374.67 395.67 OFFCURVE",
"306 501 CURVE",
"298 459 LINE",
"381.33 516.33 OFFCURVE",
"452.5 586.83 OFFCURVE",
"511.5 670.5 CURVE SMOOTH",
"570.5 754.17 OFFCURVE",
"620.33 856 OFFCURVE",
"661 976 CURVE",
"582 1000 LINE",
"546 884.67 OFFCURVE",
"500.33 789.33 OFFCURVE",
"445 714 CURVE SMOOTH",
"389.67 638.67 OFFCURVE",
"311 565.33 OFFCURVE",
"209 494 CURVE",
"209 492 LINE",
"287 388 OFFCURVE",
"326 280.67 OFFCURVE",
"326 170 CURVE SMOOTH",
"326 88.67 OFFCURVE",
"305.33 4 OFFCURVE",
"264 -84 CURVE"
);
},
{
closed = 1;
nodes = (
"46 140 OFFCURVE",
"51.33 126.17 OFFCURVE",
"62 114.5 CURVE SMOOTH",
"72.67 102.83 OFFCURVE",
"85.67 97 OFFCURVE",
"101 97 CURVE SMOOTH",
"117.67 97 OFFCURVE",
"131 102.67 OFFCURVE",
"141 114 CURVE SMOOTH",
"151 125.33 OFFCURVE",
"156 139.33 OFFCURVE",
"156 156 CURVE SMOOTH",
"156 173.33 OFFCURVE",
"151 187.67 OFFCURVE",
"141 199 CURVE SMOOTH",
"131 210.33 OFFCURVE",
"117.67 216 OFFCURVE",
"101 216 CURVE SMOOTH",
"85.67 216 OFFCURVE",
"72.67 210.17 OFFCURVE",
"62 198.5 CURVE SMOOTH",
"51.33 186.83 OFFCURVE",
"46 172.67 OFFCURVE",
"46 156 CURVE SMOOTH"
);
}
);
vertWidth = 1000;
width = 740;
}
);
note = u1B192;
unicode = 1B192;
},
{
glyphname = u1B193;
layers = (
{
hints = (
{
horizontal = 1;
place = "{32, 121}";
type = Stem;
},
{
horizontal = 1;
place = "{496, 121}";
type = Stem;
},
{
place = "{45, 112}";
type = Stem;
},
{
place = "{320, 112}";
type = Stem;
},
{
place = "{526, 83}";
type = Stem;
}
);
layerId = "0DB0C058-2990-4612-9839-2732D7BB62C5";
paths = (
{
closed = 1;
nodes = (
"45 75.33 OFFCURVE",
"50.33 61.17 OFFCURVE",
"61 49.5 CURVE SMOOTH",
"71.67 37.83 OFFCURVE",
"85 32 OFFCURVE",
"101 32 CURVE SMOOTH",
"118.33 32 OFFCURVE",
"132 37.67 OFFCURVE",
"142 49 CURVE SMOOTH",
"152 60.33 OFFCURVE",
"157 74.67 OFFCURVE",
"157 92 CURVE SMOOTH",
"157 110 OFFCURVE",
"152 124.67 OFFCURVE",
"142 136 CURVE SMOOTH",
"132 147.33 OFFCURVE",
"118.33 153 OFFCURVE",
"101 153 CURVE SMOOTH",
"85 153 OFFCURVE",
"71.67 147.17 OFFCURVE",
"61 135.5 CURVE SMOOTH",
"50.33 123.83 OFFCURVE",
"45 109.33 OFFCURVE",
"45 92 CURVE SMOOTH"
);
},
{
closed = 1;
nodes = (
"320 539.33 OFFCURVE",
"325.33 525.17 OFFCURVE",
"336 513.5 CURVE SMOOTH",
"346.67 501.83 OFFCURVE",
"360 496 OFFCURVE",
"376 496 CURVE SMOOTH",
"393.33 496 OFFCURVE",
"407 501.67 OFFCURVE",
"417 513 CURVE SMOOTH",
"427 524.33 OFFCURVE",
"432 538.67 OFFCURVE",
"432 556 CURVE SMOOTH",
"432 574 OFFCURVE",
"427 588.67 OFFCURVE",
"417 600 CURVE SMOOTH",
"407 611.33 OFFCURVE",
"393.33 617 OFFCURVE",
"376 617 CURVE SMOOTH",
"360 617 OFFCURVE",
"346.67 611.17 OFFCURVE",
"336 599.5 CURVE SMOOTH",
"325.33 587.83 OFFCURVE",
"320 573.33 OFFCURVE",
"320 556 CURVE SMOOTH"
);
},
{
closed = 1;
nodes = (
"439 -120 LINE",
"554.33 78 OFFCURVE",
"611 375.67 OFFCURVE",
"609 773 CURVE SMOOTH",
"609 851 OFFCURVE",
"607 926.67 OFFCURVE",
"603 1000 CURVE",
"521 995 LINE",
"524.33 935.67 OFFCURVE",
"526 861.67 OFFCURVE",
"526 773 CURVE SMOOTH",
"528 424.33 OFFCURVE",
"485.33 158 OFFCURVE",
"398 -26 CURVE",
"418 -30 LINE",
"219 517 LINE",
"143 489 LINE",
"362 -112 LINE"
);
}
);
vertWidth = 1000;
width = 740;
}
);
note = u1B193;
unicode = 1B193;
},
{
glyphname = u1B194;
layers = (
{
hints = (
{
place = "{528, 77}";
type = Stem;
}
);
layerId = "0DB0C058-2990-4612-9839-2732D7BB62C5";
paths = (
{
closed = 1;
nodes = (
"208 840 LINE",
"524 -27 LINE",
"598 0 LINE",
"282 867 LINE"
);
},
{
closed = 1;
nodes = (
"162 -120 LINE",
"222 -72 OFFCURVE",
"277.67 -21.33 OFFCURVE",
"329 32 CURVE SMOOTH",
"392.33 98.67 OFFCURVE",
"449.67 168 OFFCURVE",
"501 240 CURVE",
"435 284 LINE",
"385 213.33 OFFCURVE",
"330.67 147.67 OFFCURVE",
"272 87 CURVE SMOOTH",
"224.67 37.67 OFFCURVE",
"172.33 -10 OFFCURVE",
"115 -56 CURVE"
);
},
{
closed = 1;
nodes = (
"580 644 LINE",
"524.67 570.67 OFFCURVE",
"460.67 503 OFFCURVE",
"388 441 CURVE SMOOTH",
"316 378.33 OFFCURVE",
"233 318 OFFCURVE",
"139 260 CURVE",
"180 192 LINE",
"282 255.33 OFFCURVE",
"368.67 318.33 OFFCURVE",
"440 381 CURVE SMOOTH",
"520.67 450.33 OFFCURVE",
"589 522.67 OFFCURVE",
"645 598 CURVE"
);
},
{
closed = 1;
nodes = (
"160 411 LINE",
"308.67 507.67 OFFCURVE",
"420 613.67 OFFCURVE",
"494 729 CURVE SMOOTH",
"549.33 814.33 OFFCURVE",
"586.33 907.67 OFFCURVE",
"605 1009 CURVE",
"528 1020 LINE",
"510 928.67 OFFCURVE",
"476.67 845.67 OFFCURVE",
"428 771 CURVE SMOOTH",
"359.33 664.33 OFFCURVE",
"256.33 567 OFFCURVE",
"119 479 CURVE"
);
}
);
vertWidth = 1000;
width = 740;
}
);
note = u1B194;
unicode = 1B194;
},
{
glyphname = u1B195;
layers = (
{
hints = (
{
horizontal = 1;
place = "{496, 119}";
type = Stem;
},
{
place = "{71, 110}";
type = Stem;
},
{
place = "{561, 110}";
type = Stem;
},
{
horizontal = 1;
place = "{396, 119}";
type = Stem;
},
{
place = "{386, 81}";
type = Stem;
},
{
place = "{374, 81}";
type = Stem;
}
);
layerId = "0DB0C058-2990-4612-9839-2732D7BB62C5";
paths = (
{
closed = 1;
nodes = (
"71 539.33 OFFCURVE",
"76.33 525.17 OFFCURVE",
"87 513.5 CURVE SMOOTH",
"97.67 501.83 OFFCURVE",
"110.67 496 OFFCURVE",
"126 496 CURVE SMOOTH",
"142.67 496 OFFCURVE",
"156 501.67 OFFCURVE",
"166 513 CURVE SMOOTH",
"176 524.33 OFFCURVE",
"181 538.67 OFFCURVE",
"181 556 CURVE SMOOTH",
"181 572.67 OFFCURVE",
"176 586.67 OFFCURVE",
"166 598 CURVE SMOOTH",
"156 609.33 OFFCURVE",
"142.67 615 OFFCURVE",
"126 615 CURVE SMOOTH",
"110.67 615 OFFCURVE",
"97.67 609.17 OFFCURVE",
"87 597.5 CURVE SMOOTH",
"76.33 585.83 OFFCURVE",
"71 572 OFFCURVE",
"71 556 CURVE SMOOTH"
);
},
{
closed = 1;
nodes = (
"561 439.33 OFFCURVE",
"566.33 425.17 OFFCURVE",
"577 413.5 CURVE SMOOTH",
"587.67 401.83 OFFCURVE",
"600.67 396 OFFCURVE",
"616 396 CURVE SMOOTH",
"632.67 396 OFFCURVE",
"646 401.67 OFFCURVE",
"656 413 CURVE SMOOTH",
"666 424.33 OFFCURVE",
"671 438.67 OFFCURVE",
"671 456 CURVE SMOOTH",
"671 472.67 OFFCURVE",
"666 486.67 OFFCURVE",
"656 498 CURVE SMOOTH",
"646 509.33 OFFCURVE",
"632.67 515 OFFCURVE",
"616 515 CURVE SMOOTH",
"600.67 515 OFFCURVE",
"587.67 509.17 OFFCURVE",
"577 497.5 CURVE SMOOTH",
"566.33 485.83 OFFCURVE",
"561 472 OFFCURVE",
"561 456 CURVE SMOOTH"
);
},
{
closed = 1;
nodes = (
"119 -7 LINE",
"232.33 103 OFFCURVE",
"314.67 232.33 OFFCURVE",
"366 381 CURVE SMOOTH",
"417.33 529.67 OFFCURVE",
"451 735.67 OFFCURVE",
"467 999 CURVE",
"386 1000 LINE",
"371.33 755.33 OFFCURVE",
"340 562.67 OFFCURVE",
"292 422 CURVE SMOOTH",
"244 281.33 OFFCURVE",
"166.67 157 OFFCURVE",
"60 49 CURVE"
);
},
{
closed = 1;
nodes = (
"455 -123 LINE",
"455.67 -16.33 OFFCURVE",
"449.67 82 OFFCURVE",
"437 172 CURVE SMOOTH",
"420.33 279.33 OFFCURVE",
"395.67 385 OFFCURVE",
"363 489 CURVE",
"308 400 LINE",
"332 316 OFFCURVE",
"348.67 236 OFFCURVE",
"358 160 CURVE SMOOTH",
"369.33 84.67 OFFCURVE",
"374.67 -8.67 OFFCURVE",
"374 -120 CURVE"
);
}
);
vertWidth = 1000;
width = 740;
}
);
note = u1B195;
unicode = 1B195;
},
{
glyphname = u1B196;
layers = (
{
hints = (
{
place = "{438, 75}";
type = Stem;
},
{
place = "{620, 75}";
type = Stem;
}
);
layerId = "0DB0C058-2990-4612-9839-2732D7BB62C5";
paths = (
{
closed = 1;
nodes = (
"201 815 LINE",
"151 654.33 OFFCURVE",
"93.67 505 OFFCURVE",
"29 367 CURVE",
"101 333 LINE",
"163 476.33 OFFCURVE",
"215 616 OFFCURVE",
"257 752 CURVE",
"230 746 LINE",
"301.33 620.67 OFFCURVE",
"354 487.5 OFFCURVE",
"388 346.5 CURVE SMOOTH",
"422 205.5 OFFCURVE",
"438.67 50.33 OFFCURVE",
"438 -119 CURVE",
"513 -120 LINE",
"513.67 241.33 OFFCURVE",
"433 556.67 OFFCURVE",
"271 826 CURVE"
);
},
{
closed = 1;
nodes = (
"695 367 LINE",
"678.33 580.33 OFFCURVE",
"635.33 791.33 OFFCURVE",
"566 1000 CURVE",
"493 999 LINE",
"404.33 675 OFFCURVE",
"296.33 352.67 OFFCURVE",
"169 32 CURVE",
"242 6 LINE",
"363.33 306.67 OFFCURVE",
"467 614 OFFCURVE",
"553 928 CURVE",
"515 928 LINE",
"571.67 737.33 OFFCURVE",
"606.67 548 OFFCURVE",
"620 360 CURVE"
);
}
);
vertWidth = 1000;
width = 740;
}
);
note = u1B196;
unicode = 1B196;
},
{
glyphname = u1B197;
layers = (
{
hints = (
{
place = "{508, 76}";
type = Stem;
}
);
layerId = "0DB0C058-2990-4612-9839-2732D7BB62C5";
paths = (
{
closed = 1;
nodes = (
"508 1000 LINE",
"488.67 886 OFFCURVE",
"455.67 786.33 OFFCURVE",
"409 701 CURVE SMOOTH",
"339.67 572.33 OFFCURVE",
"234 458.33 OFFCURVE",
"92 359 CURVE",
"135 294 LINE",
"287 399.33 OFFCURVE",
"401 522.33 OFFCURVE",
"477 663 CURVE SMOOTH",
"529.67 759.67 OFFCURVE",
"565.33 868.67 OFFCURVE",
"584 990 CURVE"
);
},
{
closed = 1;
nodes = (
"413 43 LINE",
"475 104 LINE",
"220 805 LINE",
"145 779 LINE"
);
},
{
closed = 1;
nodes = (
"571 266 LINE",
"528.33 209.33 OFFCURVE",
"476.33 151.67 OFFCURVE",
"415 93 CURVE SMOOTH",
"353.67 34.33 OFFCURVE",
"294.33 -15.33 OFFCURVE",
"237 -56 CURVE",
"280 -121 LINE",
"338.67 -80.33 OFFCURVE",
"401.83 -27.5 OFFCURVE",
"469.5 37.5 CURVE SMOOTH",
"537.17 102.5 OFFCURVE",
"592.33 163.67 OFFCURVE",
"635 221 CURVE"
);
},
{
closed = 1;
nodes = (
"499 481 LINE",
"407 351.67 OFFCURVE",
"297.33 240 OFFCURVE",
"170 146 CURVE",
"215 83 LINE",
"353 183.67 OFFCURVE",
"469 301.67 OFFCURVE",
"563 437 CURVE"
);
}
);
vertWidth = 1000;
width = 740;
}
);
note = u1B197;
unicode = 1B197;
},
{
glyphname = u1B198;
layers = (
{
hints = (
{
place = "{237, 80}";
type = Stem;
}
);
layerId = "0DB0C058-2990-4612-9839-2732D7BB62C5";
paths = (
{
closed = 1;
nodes = (
"562 156 LINE",
"628 243.33 OFFCURVE",
"649.67 344.17 OFFCURVE",
"627 458.5 CURVE SMOOTH",
"604.33 572.83 OFFCURVE",
"543.33 673 OFFCURVE",
"444 759 CURVE",
"395 698 LINE",
"475.67 628 OFFCURVE",
"526.67 547.5 OFFCURVE",
"548 456.5 CURVE SMOOTH",
"569.33 365.5 OFFCURVE",
"556.33 285.33 OFFCURVE",
"509 216 CURVE",
"467 262.67 OFFCURVE",
"448.83 317.17 OFFCURVE",
"454.5 379.5 CURVE SMOOTH",
"460.17 441.83 OFFCURVE",
"489.67 497.33 OFFCURVE",
"543 546 CURVE",
"489 605 LINE",
"415.67 536.33 OFFCURVE",
"378 457.5 OFFCURVE",
"376 368.5 CURVE SMOOTH",
"374 279.5 OFFCURVE",
"407 204.33 OFFCURVE",
"475 143 CURVE"
);
},
{
closed = 1;
nodes = (
"247 -120 LINE",
"293.67 -20.67 OFFCURVE",
"317 76 OFFCURVE",
"317 170 CURVE SMOOTH",
"317 278 OFFCURVE",
"287.33 380 OFFCURVE",
"228 476 CURVE",
"306.67 534 OFFCURVE",
"373.67 603.5 OFFCURVE",
"429 684.5 CURVE SMOOTH",
"484.33 765.5 OFFCURVE",
"531.33 863 OFFCURVE",
"570 977 CURVE",
"493 1000 LINE",
"455.67 887.33 OFFCURVE",
"406.83 790 OFFCURVE",
"346.5 708 CURVE SMOOTH",
"286.17 626 OFFCURVE",
"210.67 554.67 OFFCURVE",
"120 494 CURVE",
"120 492 LINE",
"198 388 OFFCURVE",
"237 280.67 OFFCURVE",
"237 170 CURVE SMOOTH",
"237 88.67 OFFCURVE",
"216.33 4 OFFCURVE",
"175 -84 CURVE"
);
}
);
vertWidth = 1000;
width = 740;
}
);
note = u1B198;
unicode = 1B198;
},
{
glyphname = u1B199;
layers = (
{
hints = (
{
place = "{359, 81}";
type = Stem;
},
{
place = "{345, 80}";
type = Stem;
}
);
layerId = "0DB0C058-2990-4612-9839-2732D7BB62C5";
paths = (
{
closed = 1;
nodes = (
"359 1000 LINE",
"356.33 843.33 OFFCURVE",
"334.33 718 OFFCURVE",
"293 624 CURVE SMOOTH",
"251.67 530 OFFCURVE",
"181.33 444 OFFCURVE",
"82 366 CURVE",
"131 301 LINE",
"240.33 386.33 OFFCURVE",
"318.5 481.5 OFFCURVE",
"365.5 586.5 CURVE SMOOTH",
"412.5 691.5 OFFCURVE",
"437.33 828.33 OFFCURVE",
"440 997 CURVE"
);
},
{
closed = 1;
nodes = (
"658 368 LINE",
"582.67 492.67 OFFCURVE",
"487 605 OFFCURVE",
"371 705 CURVE",
"318 646 LINE",
"428 550.67 OFFCURVE",
"518.33 444 OFFCURVE",
"589 326 CURVE"
);
},
{
closed = 1;
nodes = (
"183 -123 LINE",
"341.67 17 OFFCURVE",
"422.33 200 OFFCURVE",
"425 426 CURVE",
"345 428 LINE",
"342.33 224.67 OFFCURVE",
"270.33 60.67 OFFCURVE",
"129 -64 CURVE"
);
},
{
closed = 1;
nodes = (
"604 -86 LINE",
"540.67 40.67 OFFCURVE",
"468.33 150.67 OFFCURVE",
"387 244 CURVE",
"334 183 LINE",
"412.67 93 OFFCURVE",
"479 -8.67 OFFCURVE",
"533 -122 CURVE"
);
}
);
vertWidth = 1000;
width = 740;
}
);
note = u1B199;
unicode = 1B199;
},
{
glyphname = u1B19A;
layers = (
{
hints = (
{
place = "{233, 55}";
type = Stem;
},
{
place = "{485, 79}";
type = Stem;
},
{
place = "{603, 76}";
type = Stem;
}
);
layerId = "0DB0C058-2990-4612-9839-2732D7BB62C5";
paths = (
{
closed = 1;
nodes = (
"485 1000 LINE",
"473 851.33 OFFCURVE",
"437 719 OFFCURVE",
"377 603 CURVE SMOOTH",
"339.67 531 OFFCURVE",
"291.67 463.67 OFFCURVE",
"233 401 CURVE",
"236 293 LINE",
"324 375 OFFCURVE",
"394.33 466.33 OFFCURVE",
"447 567 CURVE SMOOTH",
"511.67 689.67 OFFCURVE",
"550.67 832.67 OFFCURVE",
"564 996 CURVE"
);
},
{
closed = 1;
nodes = (
"156 -120 LINE",
"244 49.33 OFFCURVE",
"288 214 OFFCURVE",
"288 374 CURVE SMOOTH",
"288 510.67 OFFCURVE",
"255.33 656.33 OFFCURVE",
"190 811 CURVE",
"118 778 LINE",
"178.67 634.67 OFFCURVE",
"209 500 OFFCURVE",
"209 374 CURVE SMOOTH",
"209 225.33 OFFCURVE",
"168 73 OFFCURVE",
"86 -83 CURVE"
);
},
{
closed = 1;
nodes = (
"436 0 LINE",
"503 -8 LINE",
"541.67 43.33 OFFCURVE",
"577 105.17 OFFCURVE",
"609 177.5 CURVE SMOOTH",
"641 249.83 OFFCURVE",
"664.33 317.67 OFFCURVE",
"679 381 CURVE",
"603 397 LINE",
"576.33 285.67 OFFCURVE",
"536.67 186.67 OFFCURVE",
"484 100 CURVE",
"361 441 LINE",
"286 414 LINE"
);
}
);
vertWidth = 1000;
width = 740;
}
);
note = u1B19A;
unicode = 1B19A;
},
{
glyphname = u1B19B;
layers = (
{
hints = (
{
horizontal = 1;
place = "{204, 117}";
type = Stem;
},
{
horizontal = 1;
place = "{468, 117}";
type = Stem;
},
{
place = "{553, 79}";
type = Stem;
},
{
place = "{87, 111}";
type = Stem;
},
{
place = "{97, 110}";
type = Stem;
}
);
layerId = "0DB0C058-2990-4612-9839-2732D7BB62C5";
paths = (
{
closed = 1;
nodes = (
"553 1000 LINE",
"538.33 832.67 OFFCURVE",
"511.33 680.67 OFFCURVE",
"472 544 CURVE SMOOTH",
"414 343.33 OFFCURVE",
"299.33 160.33 OFFCURVE",
"128 -5 CURVE",
"185 -62 LINE",
"278.33 29.33 OFFCURVE",
"354.33 122.17 OFFCURVE",
"413 216.5 CURVE SMOOTH",
"471.67 310.83 OFFCURVE",
"516.33 412.67 OFFCURVE",
"547 522 CURVE SMOOTH",
"588.33 663.33 OFFCURVE",
"616.67 820.67 OFFCURVE",
"632 994 CURVE"
);
},
{
closed = 1;
nodes = (
"234 808 LINE",
"571 -120 LINE",
"647 -92 LINE",
"309 836 LINE"
);
},
{
closed = 1;
nodes = (
"87 246 OFFCURVE",
"92.33 232.33 OFFCURVE",
"103 221 CURVE SMOOTH",
"113.67 209.67 OFFCURVE",
"127 204 OFFCURVE",
"143 204 CURVE SMOOTH",
"159 204 OFFCURVE",
"172.17 209.67 OFFCURVE",
"182.5 221 CURVE SMOOTH",
"192.83 232.33 OFFCURVE",
"198 246 OFFCURVE",
"198 262 CURVE SMOOTH",
"198 279.33 OFFCURVE",
"193 293.5 OFFCURVE",
"183 304.5 CURVE SMOOTH",
"173 315.5 OFFCURVE",
"159.67 321 OFFCURVE",
"143 321 CURVE SMOOTH",
"127 321 OFFCURVE",
"113.67 315.33 OFFCURVE",
"103 304 CURVE SMOOTH",
"92.33 292.67 OFFCURVE",
"87 278.67 OFFCURVE",
"87 262 CURVE SMOOTH"
);
},
{
closed = 1;
nodes = (
"97 510 OFFCURVE",
"102.17 496.33 OFFCURVE",
"112.5 485 CURVE SMOOTH",
"122.83 473.67 OFFCURVE",
"136 468 OFFCURVE",
"152 468 CURVE SMOOTH",
"168 468 OFFCURVE",
"181.17 473.67 OFFCURVE",
"191.5 485 CURVE SMOOTH",
"201.83 496.33 OFFCURVE",
"207 510 OFFCURVE",
"207 526 CURVE SMOOTH",
"207 543.33 OFFCURVE",
"202 557.5 OFFCURVE",
"192 568.5 CURVE SMOOTH",
"182 579.5 OFFCURVE",
"168.67 585 OFFCURVE",
"152 585 CURVE SMOOTH",
"136 585 OFFCURVE",
"122.83 579.5 OFFCURVE",
"112.5 568.5 CURVE SMOOTH",
"102.17 557.5 OFFCURVE",
"97 543.33 OFFCURVE",
"97 526 CURVE SMOOTH"
);
}
);
vertWidth = 1000;
width = 740;
}
);
note = u1B19B;
unicode = 1B19B;
},
{
glyphname = u1B19C;
layers = (
{
hints = (
{
place = "{194, 81}";
type = Stem;
},
{
place = "{442, 80}";
type = Stem;
},
{
place = "{463, 80}";
type = Stem;
}
);
layerId = "0DB0C058-2990-4612-9839-2732D7BB62C5";
paths = (
{
closed = 1;
nodes = (
"182 -120 LINE",
"244 -33.33 OFFCURVE",
"275 54.67 OFFCURVE",
"275 144 CURVE SMOOTH",
"275 232 OFFCURVE",
"241.33 328.33 OFFCURVE",
"174 433 CURVE",
"107 388 LINE",
"165 300.67 OFFCURVE",
"194 219.33 OFFCURVE",
"194 144 CURVE SMOOTH",
"194 72 OFFCURVE",
"168 -0.67 OFFCURVE",
"116 -74 CURVE"
);
},
{
closed = 1;
nodes = (
"538 484 LINE",
"474 391.33 OFFCURVE",
"442 295.67 OFFCURVE",
"442 197 CURVE SMOOTH",
"442 98.33 OFFCURVE",
"472.67 4 OFFCURVE",
"534 -86 CURVE",
"601 -42 LINE",
"548.33 34 OFFCURVE",
"522 113.67 OFFCURVE",
"522 197 CURVE SMOOTH",
"522 282.33 OFFCURVE",
"549.67 363 OFFCURVE",
"605 439 CURVE"
);
},
{
closed = 1;
nodes = (
"297 397 LINE",
"369 386 LINE",
"479 543.33 OFFCURVE",
"537 747.67 OFFCURVE",
"543 999 CURVE",
"463 1000 LINE",
"457.67 778.67 OFFCURVE",
"413.67 603.33 OFFCURVE",
"331 474 CURVE",
"360 454 LINE",
"214 855 LINE",
"139 828 LINE"
);
}
);
vertWidth = 1000;
width = 740;
}
);
note = u1B19C;
unicode = 1B19C;
},
{
glyphname = u1B19D;
layers = (
{
hints = (
{
horizontal = 1;
place = "{543, -20}";
target = down;
type = TopGhost;
},
{
place = "{340, 81}";
type = Stem;
}
);
layerId = "0DB0C058-2990-4612-9839-2732D7BB62C5";
paths = (
{
closed = 1;
nodes = (
"98 276 LINE",
"224.67 386 OFFCURVE",
"318.67 522.33 OFFCURVE",
"380 685 CURVE SMOOTH",
"404 749.67 OFFCURVE",
"417.67 854.33 OFFCURVE",
"421 999 CURVE",
"340 1000 LINE",
"336.67 868 OFFCURVE",
"325 772.33 OFFCURVE",
"305 713 CURVE SMOOTH",
"257 572.33 OFFCURVE",
"171 447 OFFCURVE",
"47 337 CURVE"
);
},
{
closed = 1;
nodes = (
"695 339 LINE",
"643.67 420.33 OFFCURVE",
"595 489.17 OFFCURVE",
"549 545.5 CURVE SMOOTH",
"503 601.83 OFFCURVE",
"447.67 660.33 OFFCURVE",
"383 721 CURVE",
"328 662 LINE",
"386 608.67 OFFCURVE",
"436.83 555 OFFCURVE",
"480.5 501 CURVE SMOOTH",
"524.17 447 OFFCURVE",
"573 378.33 OFFCURVE",
"627 295 CURVE"
);
},
{
closed = 1;
nodes = (
"183 408 LINE",
"258.33 335.33 OFFCURVE",
"321 266 OFFCURVE",
"371 200 CURVE SMOOTH",
"435 116 OFFCURVE",
"490 21.33 OFFCURVE",
"536 -84 CURVE",
"612 -52 LINE",
"552.67 81.33 OFFCURVE",
"487.67 190 OFFCURVE",
"417 274 CURVE SMOOTH",
"386.33 312 OFFCURVE",
"323.67 378.33 OFFCURVE",
"229 473 CURVE"
);
},
{
closed = 1;
nodes = (
"474 543 LINE",
"450 441 OFFCURVE",
"408.67 343 OFFCURVE",
"350 249 CURVE SMOOTH",
"279.33 137 OFFCURVE",
"180.67 35.33 OFFCURVE",
"54 -56 CURVE",
"102 -120 LINE",
"234.67 -24 OFFCURVE",
"338 81 OFFCURVE",
"412 195 CURVE SMOOTH",
"466 279 OFFCURVE",
"507 372 OFFCURVE",
"535 474 CURVE"
);
}
);
vertWidth = 1000;
width = 740;
}
);
note = u1B19D;
unicode = 1B19D;
},
{
glyphname = u1B19E;
layers = (
{
hints = (
{
place = "{331, 77}";
type = Stem;
},
{
place = "{500, 77}";
type = Stem;
}
);
layerId = "0DB0C058-2990-4612-9839-2732D7BB62C5";
paths = (
{
closed = 1;
nodes = (
"500 1000 LINE",
"480.67 903.33 OFFCURVE",
"450.33 817 OFFCURVE",
"409 741 CURVE SMOOTH",
"339.67 612.33 OFFCURVE",
"234 498.33 OFFCURVE",
"92 399 CURVE",
"135 334 LINE",
"287 439.33 OFFCURVE",
"401 562.33 OFFCURVE",
"477 703 CURVE SMOOTH",
"523.67 789.67 OFFCURVE",
"557 885.33 OFFCURVE",
"577 990 CURVE"
);
},
{
closed = 1;
nodes = (
"515 485 LINE",
"415 345 OFFCURVE",
"297.67 225.67 OFFCURVE",
"163 127 CURVE",
"208 65 LINE",
"276.67 115.67 OFFCURVE",
"343.33 173.67 OFFCURVE",
"408 239 CURVE SMOOTH",
"472.67 304.33 OFFCURVE",
"529.67 372 OFFCURVE",
"579 442 CURVE"
);
},
{
closed = 1;
nodes = (
"359 -120 LINE",
"469 -30 OFFCURVE",
"561 63 OFFCURVE",
"635 159 CURVE",
"571 205 LINE",
"507 121.67 OFFCURVE",
"439.67 49.33 OFFCURVE",
"369 -12 CURVE",
"384 -24 LINE",
"400 77.33 OFFCURVE",
"408 172.67 OFFCURVE",
"408 262 CURVE SMOOTH",
"408 374.67 OFFCURVE",
"396.67 507 OFFCURVE",
"374 659 CURVE",
"310 563 LINE",
"324 450.33 OFFCURVE",
"331 350 OFFCURVE",
"331 262 CURVE SMOOTH",
"331 150 OFFCURVE",
"321.33 38 OFFCURVE",
"302 -74 CURVE"
);
}
);
vertWidth = 1000;
width = 740;
}
);
note = u1B19E;
unicode = 1B19E;
},
{
glyphname = u1B19F;
layers = (
{
hints = (
{
place = "{113, 78}";
type = Stem;
},
{
place = "{468, 77}";
type = Stem;
},
{
place = "{515, 79}";
type = Stem;
}
);
layerId = "0DB0C058-2990-4612-9839-2732D7BB62C5";
paths = (
{
closed = 1;
nodes = (
"434 625 LINE",
"456.67 553 OFFCURVE",
"468 482 OFFCURVE",
"468 412 CURVE SMOOTH",
"468 318.67 OFFCURVE",
"442.17 234.33 OFFCURVE",
"390.5 159 CURVE SMOOTH",
"338.83 83.67 OFFCURVE",
"258.67 13.67 OFFCURVE",
"150 -51 CURVE",
"190 -120 LINE",
"311.33 -50.67 OFFCURVE",
"400.83 27 OFFCURVE",
"458.5 113 CURVE SMOOTH",
"516.17 199 OFFCURVE",
"545 298.67 OFFCURVE",
"545 412 CURVE SMOOTH",
"545 518 OFFCURVE",
"524.67 620.33 OFFCURVE",
"484 719 CURVE"
);
},
{
closed = 1;
nodes = (
"515 1000 LINE",
"461 751.33 OFFCURVE",
"358.33 542.33 OFFCURVE",
"207 373 CURVE",
"207 371 LINE",
"299 283 OFFCURVE",
"375.33 203 OFFCURVE",
"436 131 CURVE SMOOTH",
"496.67 59 OFFCURVE",
"545.33 -13.33 OFFCURVE",
"582 -86 CURVE",
"655 -50 LINE",
"619 22.67 OFFCURVE",
"571.5 96 OFFCURVE",
"512.5 170 CURVE SMOOTH",
"453.5 244 OFFCURVE",
"387.33 312.67 OFFCURVE",
"314 376 CURVE",
"388 470.67 OFFCURVE",
"446.83 565.33 OFFCURVE",
"490.5 660 CURVE SMOOTH",
"534.17 754.67 OFFCURVE",
"568.67 863.67 OFFCURVE",
"594 987 CURVE"
);
},
{
closed = 1;
nodes = (
"119 -7 LINE",
"167 61 OFFCURVE",
"191 135.33 OFFCURVE",
"191 216 CURVE SMOOTH",
"191 306 OFFCURVE",
"162 387 OFFCURVE",
"104 459 CURVE",
"43 410 LINE",
"89.67 348.67 OFFCURVE",
"113 284.33 OFFCURVE",
"113 217 CURVE SMOOTH",
"113 156.33 OFFCURVE",
"93 95.67 OFFCURVE",
"53 35 CURVE"
);
}
);
vertWidth = 1000;
width = 740;
}
);
note = u1B19F;
unicode = 1B19F;
},
{
glyphname = u1B1A0;
layers = (
{
hints = (
{
place = "{336, 82}";
type = Stem;
},
{
place = "{613, 80}";
type = Stem;
}
);
layerId = "0DB0C058-2990-4612-9839-2732D7BB62C5";
paths = (
{
closed = 1;
nodes = (
"204 839 LINE",
"153.33 674.33 OFFCURVE",
"96 521.67 OFFCURVE",
"32 381 CURVE",
"106 347 LINE",
"167.33 489.67 OFFCURVE",
"219.33 632 OFFCURVE",
"262 774 CURVE",
"227 774 LINE",
"277 649.33 OFFCURVE",
"310.67 510 OFFCURVE",
"328 356 CURVE SMOOTH",
"345.33 202 OFFCURVE",
"348 44.67 OFFCURVE",
"336 -116 CURVE",
"418 -120 LINE",
"430 55.33 OFFCURVE",
"424.67 226.83 OFFCURVE",
"402 394.5 CURVE SMOOTH",
"379.33 562.17 OFFCURVE",
"338.33 714 OFFCURVE",
"279 850 CURVE"
);
},
{
closed = 1;
nodes = (
"395 327 LINE",
"456 527 OFFCURVE",
"509 727 OFFCURVE",
"554 927 CURVE",
"510 931 LINE",
"565.33 740.33 OFFCURVE",
"599.67 550 OFFCURVE",
"613 360 CURVE",
"693 367 LINE",
"676.33 580.33 OFFCURVE",
"633.33 791.33 OFFCURVE",
"564 1000 CURVE",
"491 999 LINE",
"453 826.33 OFFCURVE",
"409 648.33 OFFCURVE",
"359 465 CURVE"
);
}
);
vertWidth = 1000;
width = 740;
}
);
note = u1B1A0;
unicode = 1B1A0;
},
{
glyphname = u1B1A1;
layers = (
{
hints = (
{
horizontal = 1;
place = "{562, 121}";
type = Stem;
},
{
place = "{209, 112}";
type = Stem;
},
{
place = "{505, 82}";
type = Stem;
}
);
layerId = "0DB0C058-2990-4612-9839-2732D7BB62C5";
paths = (
{
closed = 1;
nodes = (
"606 242 LINE",
"556.67 136 OFFCURVE",
"497 41 OFFCURVE",
"427 -43 CURVE",
"468 -55 LINE",
"332 318 LINE",
"273 242 LINE",
"402 -113 LINE",
"464 -120 LINE",
"502.67 -78.67 OFFCURVE",
"541.5 -27.67 OFFCURVE",
"580.5 33 CURVE SMOOTH",
"619.5 93.67 OFFCURVE",
"652 151.67 OFFCURVE",
"678 207 CURVE"
);
},
{
closed = 1;
nodes = (
"505 1000 LINE",
"490.33 870 OFFCURVE",
"468.33 753.67 OFFCURVE",
"439 651 CURVE SMOOTH",
"407 539.67 OFFCURVE",
"363.17 439 OFFCURVE",
"307.5 349 CURVE SMOOTH",
"251.83 259 OFFCURVE",
"179.67 170 OFFCURVE",
"91 82 CURVE",
"150 25 LINE",
"242.67 117.67 OFFCURVE",
"318.67 212.33 OFFCURVE",
"378 309 CURVE SMOOTH",
"437.33 405.67 OFFCURVE",
"483.67 512.33 OFFCURVE",
"517 629 CURVE SMOOTH",
"548.33 735 OFFCURVE",
"571.67 856.33 OFFCURVE",
"587 993 CURVE"
);
},
{
closed = 1;
nodes = (
"209 605.33 OFFCURVE",
"214.33 591.17 OFFCURVE",
"225 579.5 CURVE SMOOTH",
"235.67 567.83 OFFCURVE",
"249 562 OFFCURVE",
"265 562 CURVE SMOOTH",
"282.33 562 OFFCURVE",
"296 567.67 OFFCURVE",
"306 579 CURVE SMOOTH",
"316 590.33 OFFCURVE",
"321 604.67 OFFCURVE",
"321 622 CURVE SMOOTH",
"321 640 OFFCURVE",
"316 654.67 OFFCURVE",
"306 666 CURVE SMOOTH",
"296 677.33 OFFCURVE",
"282.33 683 OFFCURVE",
"265 683 CURVE SMOOTH",
"249 683 OFFCURVE",
"235.67 677.17 OFFCURVE",
"225 665.5 CURVE SMOOTH",
"214.33 653.83 OFFCURVE",
"209 639.33 OFFCURVE",
"209 622 CURVE SMOOTH"
);
}
);
vertWidth = 1000;
width = 740;
}
);
note = u1B1A1;
unicode = 1B1A1;
},
{
glyphname = u1B1A2;
layers = (
{
hints = (
{
place = "{469, 81}";
type = Stem;
},
{
place = "{621, 74}";
type = Stem;
}
);
layerId = "0DB0C058-2990-4612-9839-2732D7BB62C5";
paths = (
{
closed = 1;
nodes = (
"469 1000 LINE",
"450.33 806.67 OFFCURVE",
"413.33 636 OFFCURVE",
"358 488 CURVE SMOOTH",
"311.33 366.67 OFFCURVE",
"259.67 261.33 OFFCURVE",
"203 172 CURVE",
"253 100 LINE",
"319 199.33 OFFCURVE",
"379.33 319.33 OFFCURVE",
"434 460 CURVE SMOOTH",
"493.33 613.33 OFFCURVE",
"532 791.33 OFFCURVE",
"550 994 CURVE"
);
},
{
closed = 1;
nodes = (
"621 509 LINE",
"559 303.67 OFFCURVE",
"476.67 124.33 OFFCURVE",
"374 -29 CURVE",
"367 -117 LINE",
"410 -120 LINE",
"536 64 OFFCURVE",
"631 267 OFFCURVE",
"695 489 CURVE"
);
},
{
closed = 1;
nodes = (
"501 126 LINE",
"550 198 LINE",
"189 712 LINE",
"122 666 LINE"
);
},
{
closed = 1;
nodes = (
"367 -117 LINE",
"412 -38 LINE",
"112 388 LINE",
"45 342 LINE"
);
}
);
vertWidth = 1000;
width = 740;
}
);
note = u1B1A2;
unicode = 1B1A2;
},
{
glyphname = u1B1A3;
layers = (
{
hints = (
{
horizontal = 1;
place = "{215, 76}";
type = Stem;
},
{
place = "{430, 78}";
type = Stem;
},
{
place = "{515, 80}";
type = Stem;
}
);
layerId = "0DB0C058-2990-4612-9839-2732D7BB62C5";
paths = (
{
closed = 1;
nodes = (
"299 649 LINE",
"386.33 556.33 OFFCURVE",
"430 457.33 OFFCURVE",
"430 352 CURVE SMOOTH",
"430 273.33 OFFCURVE",
"405 203.83 OFFCURVE",
"355 143.5 CURVE SMOOTH",
"305 83.17 OFFCURVE",
"226.67 28.67 OFFCURVE",
"120 -20 CURVE",
"156 -91 LINE",
"276.67 -34.33 OFFCURVE",
"365.5 30 OFFCURVE",
"422.5 102 CURVE SMOOTH",
"479.5 174 OFFCURVE",
"508 257.33 OFFCURVE",
"508 352 CURVE SMOOTH",
"508 484 OFFCURVE",
"457.67 602 OFFCURVE",
"357 706 CURVE"
);
},
{
closed = 1;
nodes = (
"493 1000 LINE",
"463.67 911.33 OFFCURVE",
"418.83 831.17 OFFCURVE",
"358.5 759.5 CURVE SMOOTH",
"298.17 687.83 OFFCURVE",
"218.67 620 OFFCURVE",
"120 556 CURVE",
"162 490 LINE",
"268 559.33 OFFCURVE",
"354.33 633.33 OFFCURVE",
"421 712 CURVE SMOOTH",
"487.67 790.67 OFFCURVE",
"537 878.67 OFFCURVE",
"569 976 CURVE"
);
},
{
closed = 1;
nodes = (
"596 724 LINE",
"546 662.67 OFFCURVE",
"491 607.17 OFFCURVE",
"431 557.5 CURVE SMOOTH",
"371 507.83 OFFCURVE",
"294.33 453.67 OFFCURVE",
"201 395 CURVE",
"243 323 LINE",
"341.67 385.67 OFFCURVE",
"422.17 443.33 OFFCURVE",
"484.5 496 CURVE SMOOTH",
"546.83 548.67 OFFCURVE",
"604 607 OFFCURVE",
"656 671 CURVE"
);
},
{
closed = 1;
nodes = (
"595 -113 LINE",
"585 -20.33 OFFCURVE",
"552.33 62 OFFCURVE",
"497 134 CURVE SMOOTH",
"441 205.33 OFFCURVE",
"356.33 257.67 OFFCURVE",
"243 291 CURVE",
"218 215 LINE",
"315.33 187.67 OFFCURVE",
"387 144.33 OFFCURVE",
"433 85 CURVE SMOOTH",
"478.33 27.67 OFFCURVE",
"505.67 -40.67 OFFCURVE",
"515 -120 CURVE"
);
}
);
vertWidth = 1000;
width = 740;
}
);
note = u1B1A3;
unicode = 1B1A3;
},
{
glyphname = u1B1A4;
layers = (
{
layerId = "0DB0C058-2990-4612-9839-2732D7BB62C5";
paths = (
{
closed = 1;
nodes = (
"594 642 LINE",
"526.67 578.67 OFFCURVE",
"442 509.17 OFFCURVE",
"340 433.5 CURVE SMOOTH",
"238 357.83 OFFCURVE",
"147 296.67 OFFCURVE",
"67 250 CURVE",
"105 177 LINE",
"193.67 230.33 OFFCURVE",
"286.67 293.17 OFFCURVE",
"384 365.5 CURVE SMOOTH",
"481.33 437.83 OFFCURVE",
"569.33 509.67 OFFCURVE",
"648 581 CURVE"
);
},
{
closed = 1;
nodes = (
"224 672 LINE",
"425 117 LINE",
"502 147 LINE",
"301 699 LINE"
);
},
{
closed = 1;
nodes = (
"552 1000 LINE",
"482.67 890 OFFCURVE",
"373.33 780.67 OFFCURVE",
"224 672 CURVE",
"268 607 LINE",
"429.33 723 OFFCURVE",
"546.33 838.33 OFFCURVE",
"619 953 CURVE"
);
},
{
closed = 1;
nodes = (
"154 -120 LINE",
"286 -28 OFFCURVE",
"402 61 OFFCURVE",
"502 147 CURVE",
"465 232 LINE",
"359 133.33 OFFCURVE",
"241 39 OFFCURVE",
"111 -51 CURVE"
);
}
);
vertWidth = 1000;
width = 740;
}
);
note = u1B1A4;
unicode = 1B1A4;
},
{
glyphname = u1B1A5;
layers = (
{
hints = (
{
place = "{227, 78}";
type = Stem;
},
{
place = "{460, 77}";
type = Stem;
}
);
layerId = "0DB0C058-2990-4612-9839-2732D7BB62C5";
paths = (
{
closed = 1;
nodes = (
"235 -120 LINE",
"281.67 -20.67 OFFCURVE",
"305 76 OFFCURVE",
"305 170 CURVE SMOOTH",
"305 288.67 OFFCURVE",
"269.67 399.33 OFFCURVE",
"199 502 CURVE",
"193 459 LINE",
"278.33 518.33 OFFCURVE",
"350.5 589.67 OFFCURVE",
"409.5 673 CURVE SMOOTH",
"468.5 756.33 OFFCURVE",
"518 857.67 OFFCURVE",
"558 977 CURVE",
"483 1000 LINE",
"445.67 887.33 OFFCURVE",
"396.83 790 OFFCURVE",
"336.5 708 CURVE SMOOTH",
"276.17 626 OFFCURVE",
"200.67 554.67 OFFCURVE",
"110 494 CURVE",
"110 492 LINE",
"188 388 OFFCURVE",
"227 280.67 OFFCURVE",
"227 170 CURVE SMOOTH",
"227 88.67 OFFCURVE",
"206.33 4 OFFCURVE",
"165 -84 CURVE"
);
},
{
closed = 1;
nodes = (
"317 625 LINE",
"412.33 477.67 OFFCURVE",
"460 333.67 OFFCURVE",
"460 193 CURVE SMOOTH",
"460 130.33 OFFCURVE",
"451 66 OFFCURVE",
"433 0 CURVE",
"508 -18 LINE",
"527.33 57.33 OFFCURVE",
"537 128.33 OFFCURVE",
"537 195 CURVE SMOOTH",
"537 354.33 OFFCURVE",
"481 519 OFFCURVE",
"369 689 CURVE"
);
},
{
closed = 1;
nodes = (
"274 189 LINE",
"356 249.67 OFFCURVE",
"428 311.67 OFFCURVE",
"490 375 CURVE SMOOTH",
"553.33 441.67 OFFCURVE",
"610.67 522 OFFCURVE",
"662 616 CURVE",
"592 650 LINE",
"548 566 OFFCURVE",
"494.67 491.33 OFFCURVE",
"432 426 CURVE SMOOTH",
"384.67 376 OFFCURVE",
"326.33 324.67 OFFCURVE",
"257 272 CURVE"
);
}
);
vertWidth = 1000;
width = 740;
}
);
note = u1B1A5;
unicode = 1B1A5;
},
{
glyphname = u1B1A6;
layers = (
{
hints = (
{
horizontal = 1;
place = "{0, 21}";
target = up;
type = BottomGhost;
},
{
place = "{229, 75}";
type = Stem;
},
{
place = "{423, 77}";
type = Stem;
},
{
place = "{541, 72}";
type = Stem;
}
);
layerId = "0DB0C058-2990-4612-9839-2732D7BB62C5";
paths = (
{
closed = 1;
nodes = (
"541 1000 LINE",
"525.67 882 OFFCURVE",
"493 781 OFFCURVE",
"443 697 CURVE SMOOTH",
"373 575.67 OFFCURVE",
"249.33 459 OFFCURVE",
"72 347 CURVE",
"108 282 LINE",
"205.33 342.67 OFFCURVE",
"286.33 403.83 OFFCURVE",
"351 465.5 CURVE SMOOTH",
"415.67 527.17 OFFCURVE",
"468 593 OFFCURVE",
"508 663 CURVE SMOOTH",
"560.67 754.33 OFFCURVE",
"595.67 863.33 OFFCURVE",
"613 990 CURVE"
);
},
{
closed = 1;
nodes = (
"589 536 LINE",
"518.33 436 OFFCURVE",
"447.83 355.67 OFFCURVE",
"377.5 295 CURVE SMOOTH",
"307.17 234.33 OFFCURVE",
"212.33 170 OFFCURVE",
"93 102 CURVE",
"124 36 LINE",
"242.67 99.33 OFFCURVE",
"342 165.67 OFFCURVE",
"422 235 CURVE SMOOTH",
"502 304.33 OFFCURVE",
"577.33 390.67 OFFCURVE",
"648 494 CURVE"
);
},
{
closed = 1;
nodes = (
"138 709 LINE",
"198.67 506.33 OFFCURVE",
"229 318.67 OFFCURVE",
"229 146 CURVE SMOOTH",
"229 71.33 OFFCURVE",
"224 -14.67 OFFCURVE",
"214 -112 CURVE",
"288 -120 LINE",
"298.67 8 OFFCURVE",
"304 102 OFFCURVE",
"304 162 CURVE SMOOTH",
"304 344.67 OFFCURVE",
"272.33 534.33 OFFCURVE",
"209 731 CURVE"
);
},
{
closed = 1;
nodes = (
"490 0 LINE",
"496.67 84.67 OFFCURVE",
"500 155 OFFCURVE",
"500 211 CURVE SMOOTH",
"500 319 OFFCURVE",
"490.17 427.33 OFFCURVE",
"470.5 536 CURVE SMOOTH",
"450.83 644.67 OFFCURVE",
"419 766.67 OFFCURVE",
"375 902 CURVE",
"304 880 LINE",
"346.67 746.67 OFFCURVE",
"377.17 626.33 OFFCURVE",
"395.5 519 CURVE SMOOTH",
"413.83 411.67 OFFCURVE",
"423 301.33 OFFCURVE",
"423 188 CURVE SMOOTH",
"423 128 OFFCURVE",
"420.67 67.67 OFFCURVE",
"416 7 CURVE"
);
}
);
vertWidth = 1000;
width = 740;
}
);
note = u1B1A6;
unicode = 1B1A6;
},
{
glyphname = u1B1A7;
layers = (
{
hints = (
{
place = "{504, 76}";
type = Stem;
}
);
layerId = "0DB0C058-2990-4612-9839-2732D7BB62C5";
paths = (
{
closed = 1;
nodes = (
"504 1000 LINE",
"484.67 895.33 OFFCURVE",
"453 802.33 OFFCURVE",
"409 721 CURVE SMOOTH",
"339.67 592.33 OFFCURVE",
"234 478.33 OFFCURVE",
"92 379 CURVE",
"135 314 LINE",
"287 419.33 OFFCURVE",
"401 542.33 OFFCURVE",
"477 683 CURVE SMOOTH",
"527 774.33 OFFCURVE",
"561.33 876.33 OFFCURVE",
"580 989 CURVE"
);
},
{
closed = 1;
nodes = (
"312 523 LINE",
"248 468 LINE",
"403 43 LINE",
"464 104 LINE"
);
},
{
closed = 1;
nodes = (
"571 267 LINE",
"528.33 210.33 OFFCURVE",
"476.33 152.67 OFFCURVE",
"415 94 CURVE SMOOTH",
"353.67 35.33 OFFCURVE",
"294.33 -14.33 OFFCURVE",
"237 -55 CURVE",
"280 -120 LINE",
"338 -80 OFFCURVE",
"400.83 -27.5 OFFCURVE",
"468.5 37.5 CURVE SMOOTH",
"536.17 102.5 OFFCURVE",
"591.67 164 OFFCURVE",
"635 222 CURVE"
);
},
{
closed = 1;
nodes = (
"499 491 LINE",
"407 361.67 OFFCURVE",
"297.33 250 OFFCURVE",
"170 156 CURVE",
"215 93 LINE",
"353 193.67 OFFCURVE",
"469 311.67 OFFCURVE",
"563 447 CURVE"
);
}
);
vertWidth = 1000;
width = 740;
}
);
note = u1B1A7;
unicode = 1B1A7;
},
{
glyphname = u1B1A8;
layers = (
{
hints = (
{
horizontal = 1;
place = "{-22, 111}";
type = Stem;
},
{
horizontal = 1;
place = "{99, 111}";
type = Stem;
},
{
place = "{120, 104}";
type = Stem;
},
{
place = "{343, 81}";
type = Stem;
},
{
place = "{516, 78}";
type = Stem;
},
{
place = "{516, 104}";
type = Stem;
}
);
layerId = "0DB0C058-2990-4612-9839-2732D7BB62C5";
paths = (
{
closed = 1;
nodes = (
"285 535 LINE",
"323.67 408.33 OFFCURVE",
"343 295.67 OFFCURVE",
"343 197 CURVE SMOOTH",
"343 100.33 OFFCURVE",
"323.33 4.33 OFFCURVE",
"284 -91 CURVE",
"359 -120 LINE",
"402.33 -13.33 OFFCURVE",
"424 92.33 OFFCURVE",
"424 197 CURVE SMOOTH",
"424 309.67 OFFCURVE",
"400 440.33 OFFCURVE",
"352 589 CURVE"
);
},
{
closed = 1;
nodes = (
"516 1000 LINE",
"489.33 887.33 OFFCURVE",
"441.67 788.17 OFFCURVE",
"373 702.5 CURVE SMOOTH",
"304.33 616.83 OFFCURVE",
"209.67 537.67 OFFCURVE",
"89 465 CURVE",
"129 397 LINE",
"259.67 475 OFFCURVE",
"362.5 561.33 OFFCURVE",
"437.5 656 CURVE SMOOTH",
"512.5 750.67 OFFCURVE",
"564.67 860.33 OFFCURVE",
"594 985 CURVE"
);
},
{
closed = 1;
nodes = (
"120 17.67 OFFCURVE",
"125 4.67 OFFCURVE",
"135 -6 CURVE SMOOTH",
"145 -16.67 OFFCURVE",
"157.33 -22 OFFCURVE",
"172 -22 CURVE SMOOTH",
"188 -22 OFFCURVE",
"200.67 -16.83 OFFCURVE",
"210 -6.5 CURVE SMOOTH",
"219.33 3.83 OFFCURVE",
"224 17 OFFCURVE",
"224 33 CURVE SMOOTH",
"224 49.67 OFFCURVE",
"219.33 63.17 OFFCURVE",
"210 73.5 CURVE SMOOTH",
"200.67 83.83 OFFCURVE",
"188 89 OFFCURVE",
"172 89 CURVE SMOOTH",
"156.67 89 OFFCURVE",
"144.17 83.83 OFFCURVE",
"134.5 73.5 CURVE SMOOTH",
"124.83 63.17 OFFCURVE",
"120 49.67 OFFCURVE",
"120 33 CURVE SMOOTH"
);
},
{
closed = 1;
nodes = (
"516 138.67 OFFCURVE",
"521 125.67 OFFCURVE",
"531 115 CURVE SMOOTH",
"541 104.33 OFFCURVE",
"553.33 99 OFFCURVE",
"568 99 CURVE SMOOTH",
"584 99 OFFCURVE",
"596.67 104.17 OFFCURVE",
"606 114.5 CURVE SMOOTH",
"615.33 124.83 OFFCURVE",
"620 138 OFFCURVE",
"620 154 CURVE SMOOTH",
"620 170.67 OFFCURVE",
"615.33 184.17 OFFCURVE",
"606 194.5 CURVE SMOOTH",
"596.67 204.83 OFFCURVE",
"584 210 OFFCURVE",
"568 210 CURVE SMOOTH",
"552.67 210 OFFCURVE",
"540.17 204.83 OFFCURVE",
"530.5 194.5 CURVE SMOOTH",
"520.83 184.17 OFFCURVE",
"516 170.67 OFFCURVE",
"516 154 CURVE SMOOTH"
);
},
{
closed = 1;
nodes = (
"529 574 LINE",
"433.67 465.33 OFFCURVE",
"306.67 362.33 OFFCURVE",
"148 265 CURVE",
"189 195 LINE",
"357.67 299 OFFCURVE",
"491 408.67 OFFCURVE",
"589 524 CURVE"
);
}
);
vertWidth = 1000;
width = 740;
}
);
note = u1B1A8;
unicode = 1B1A8;
},
{
glyphname = u1B1A9;
layers = (
{
hints = (
{
place = "{528, 79}";
type = Stem;
},
{
place = "{451, 78}";
type = Stem;
}
);
layerId = "0DB0C058-2990-4612-9839-2732D7BB62C5";
paths = (
{
closed = 1;
nodes = (
"528 1000 LINE",
"474.67 808.67 OFFCURVE",
"340.33 666.33 OFFCURVE",
"125 573 CURVE",
"155 499 LINE",
"396.33 603 OFFCURVE",
"547 766 OFFCURVE",
"607 988 CURVE"
);
},
{
closed = 1;
nodes = (
"437 770 LINE",
"446.33 738.67 OFFCURVE",
"451 711 OFFCURVE",
"451 687 CURVE SMOOTH",
"451 621.67 OFFCURVE",
"424.33 563.17 OFFCURVE",
"371 511.5 CURVE SMOOTH",
"317.67 459.83 OFFCURVE",
"235 413.33 OFFCURVE",
"123 372 CURVE",
"150 297 LINE",
"278 345.67 OFFCURVE",
"373.17 401.83 OFFCURVE",
"435.5 465.5 CURVE SMOOTH",
"497.83 529.17 OFFCURVE",
"529 603 OFFCURVE",
"529 687 CURVE SMOOTH",
"529 732.33 OFFCURVE",
"519.33 782 OFFCURVE",
"500 836 CURVE"
);
},
{
closed = 1;
nodes = (
"571 515 LINE",
"494.33 353.67 OFFCURVE",
"355.67 236.67 OFFCURVE",
"155 164 CURVE",
"180 88 LINE",
"400.67 167.33 OFFCURVE",
"554.67 297.67 OFFCURVE",
"642 479 CURVE"
);
},
{
closed = 1;
nodes = (
"467 321 LINE",
"473 301 OFFCURVE",
"476 282 OFFCURVE",
"476 264 CURVE SMOOTH",
"476 199.33 OFFCURVE",
"448.83 141.67 OFFCURVE",
"394.5 91 CURVE SMOOTH",
"340.17 40.33 OFFCURVE",
"255.33 -5 OFFCURVE",
"140 -45 CURVE",
"167 -120 LINE",
"297.67 -72 OFFCURVE",
"394.5 -16.33 OFFCURVE",
"457.5 47 CURVE SMOOTH",
"520.5 110.33 OFFCURVE",
"552 183.33 OFFCURVE",
"552 266 CURVE SMOOTH",
"552 302.67 OFFCURVE",
"545.33 343 OFFCURVE",
"532 387 CURVE"
);
},
{
closed = 1;
nodes = (
"350 198 LINE",
"418 239 LINE",
"350 425 LINE",
"278 394 LINE"
);
}
);
vertWidth = 1000;
width = 740;
}
);
note = u1B1A9;
unicode = 1B1A9;
},
{
glyphname = u1B1AA;
layers = (
{
hints = (
{
horizontal = 1;
place = "{12, 71}";
type = Stem;
},
{
horizontal = 1;
place = "{247, 71}";
type = Stem;
},
{
place = "{35, 81}";
type = Stem;
},
{
place = "{202, 80}";
type = Stem;
},
{
place = "{464, 80}";
type = Stem;
},
{
place = "{630, 80}";
type = Stem;
},
{
place = "{525, 80}";
type = Stem;
}
);
layerId = "0DB0C058-2990-4612-9839-2732D7BB62C5";
paths = (
{
closed = 1;
nodes = (
"517 -120 LINE",
"535 -34 OFFCURVE",
"544 59.33 OFFCURVE",
"544 160 CURVE SMOOTH",
"544 237.33 OFFCURVE",
"539.67 309.67 OFFCURVE",
"531 377 CURVE",
"452 364 LINE",
"460 297 OFFCURVE",
"464 229 OFFCURVE",
"464 160 CURVE SMOOTH",
"464 64.67 OFFCURVE",
"455.33 -23.67 OFFCURVE",
"438 -105 CURVE"
);
},
{
closed = 1;
nodes = (
"334 220 LINE",
"426 265.33 OFFCURVE",
"494.17 316.17 OFFCURVE",
"538.5 372.5 CURVE SMOOTH",
"582.83 428.83 OFFCURVE",
"605 492.67 OFFCURVE",
"605 564 CURVE SMOOTH",
"605 612.67 OFFCURVE",
"593.67 666.33 OFFCURVE",
"571 725 CURVE",
"498 693 LINE",
"516 646 OFFCURVE",
"525 603 OFFCURVE",
"525 564 CURVE SMOOTH",
"525 456.67 OFFCURVE",
"449.33 366.67 OFFCURVE",
"298 294 CURVE"
);
},
{
closed = 1;
nodes = (
"315 479 LINE",
"533 593 OFFCURVE",
"664.67 763.33 OFFCURVE",
"710 990 CURVE",
"630 1000 LINE",
"589.33 801.33 OFFCURVE",
"471.33 651 OFFCURVE",
"276 549 CURVE"
);
},
{
closed = 1;
nodes = (
"193.33 12 OFFCURVE",
"222 25.83 OFFCURVE",
"246 53.5 CURVE SMOOTH",
"270 81.17 OFFCURVE",
"282 118 OFFCURVE",
"282 164 CURVE SMOOTH",
"282 210.67 OFFCURVE",
"270.17 248 OFFCURVE",
"246.5 276 CURVE SMOOTH",
"222.83 304 OFFCURVE",
"194 318 OFFCURVE",
"160 318 CURVE SMOOTH",
"125.33 318 OFFCURVE",
"95.83 304 OFFCURVE",
"71.5 276 CURVE SMOOTH",
"47.17 248 OFFCURVE",
"35 210.67 OFFCURVE",
"35 164 CURVE SMOOTH",
"35 118 OFFCURVE",
"47.17 81.17 OFFCURVE",
"71.5 53.5 CURVE SMOOTH",
"95.83 25.83 OFFCURVE",
"125.33 12 OFFCURVE",
"160 12 CURVE SMOOTH"
);
},
{
closed = 1;
nodes = (
"146.67 83 OFFCURVE",
"136 90.33 OFFCURVE",
"128 105 CURVE SMOOTH",
"120 119.67 OFFCURVE",
"116 139.33 OFFCURVE",
"116 164 CURVE SMOOTH",
"116 188.67 OFFCURVE",
"120 208.67 OFFCURVE",
"128 224 CURVE SMOOTH",
"136 239.33 OFFCURVE",
"146.67 247 OFFCURVE",
"160 247 CURVE SMOOTH",
"172.67 247 OFFCURVE",
"182.83 239.33 OFFCURVE",
"190.5 224 CURVE SMOOTH",
"198.17 208.67 OFFCURVE",
"202 188.67 OFFCURVE",
"202 164 CURVE SMOOTH",
"202 139.33 OFFCURVE",
"198.17 119.67 OFFCURVE",
"190.5 105 CURVE SMOOTH",
"182.83 90.33 OFFCURVE",
"172.67 83 OFFCURVE",
"160 83 CURVE SMOOTH"
);
}
);
vertWidth = 1000;
width = 740;
}
);
note = u1B1AA;
unicode = 1B1AA;
},
{
glyphname = u1B1AB;
layers = (
{
hints = (
{
place = "{155, 79}";
type = Stem;
},
{
place = "{354, 76}";
type = Stem;
},
{
place = "{527, 75}";
type = Stem;
},
{
place = "{552, 77}";
type = Stem;
}
);
layerId = "0DB0C058-2990-4612-9839-2732D7BB62C5";
paths = (
{
closed = 1;
nodes = (
"384 396 LINE",
"440.67 301.33 OFFCURVE",
"488.33 191.33 OFFCURVE",
"527 66 CURVE",
"602 90 LINE",
"553.33 240.67 OFFCURVE",
"489.33 374.33 OFFCURVE",
"410 491 CURVE"
);
},
{
closed = 1;
nodes = (
"323 986 LINE",
"343.67 835.33 OFFCURVE",
"354 701.67 OFFCURVE",
"354 585 CURVE SMOOTH",
"354 394.33 OFFCURVE",
"324 216.33 OFFCURVE",
"264 51 CURVE",
"339 27 LINE",
"399.67 202.33 OFFCURVE",
"430 391 OFFCURVE",
"430 593 CURVE SMOOTH",
"430 713.67 OFFCURVE",
"420 849.33 OFFCURVE",
"400 1000 CURVE"
);
},
{
closed = 1;
nodes = (
"170 -120 LINE",
"212.67 5.33 OFFCURVE",
"234 126 OFFCURVE",
"234 242 CURVE SMOOTH",
"234 348 OFFCURVE",
"220 453.67 OFFCURVE",
"192 559 CURVE",
"115 542 LINE",
"141.67 443.33 OFFCURVE",
"155 344.33 OFFCURVE",
"155 245 CURVE SMOOTH",
"155 141.67 OFFCURVE",
"135.33 28 OFFCURVE",
"96 -96 CURVE"
);
},
{
closed = 1;
nodes = (
"618 302 LINE",
"626 378.67 OFFCURVE",
"629.67 455 OFFCURVE",
"629 531 CURVE SMOOTH",
"626.33 640.33 OFFCURVE",
"610.33 758 OFFCURVE",
"581 884 CURVE",
"530 894 LINE",
"477.33 832.67 OFFCURVE",
"413.33 769.83 OFFCURVE",
"338 705.5 CURVE SMOOTH",
"262.67 641.17 OFFCURVE",
"188.33 586.67 OFFCURVE",
"115 542 CURVE",
"149 472 LINE",
"221.67 514.67 OFFCURVE",
"296 567 OFFCURVE",
"372 629 CURVE SMOOTH",
"448 691 OFFCURVE",
"507 747.67 OFFCURVE",
"549 799 CURVE",
"518 813 LINE",
"538.67 713.67 OFFCURVE",
"550 620 OFFCURVE",
"552 532 CURVE SMOOTH",
"552.67 472 OFFCURVE",
"549 398 OFFCURVE",
"541 310 CURVE"
);
}
);
vertWidth = 1000;
width = 740;
}
);
note = u1B1AB;
unicode = 1B1AB;
},
{
glyphname = u1B1AC;
layers = (
{
hints = (
{
horizontal = 1;
place = "{0, 21}";
target = up;
type = BottomGhost;
},
{
place = "{543, 75}";
type = Stem;
},
{
place = "{509, 76}";
type = Stem;
}
);
layerId = "0DB0C058-2990-4612-9839-2732D7BB62C5";
paths = (
{
closed = 1;
nodes = (
"543 1000 LINE",
"493.67 788 OFFCURVE",
"400.33 609 OFFCURVE",
"263 463 CURVE",
"263 461 LINE",
"342.33 396.33 OFFCURVE",
"415 323.33 OFFCURVE",
"481 242 CURVE SMOOTH",
"547 160.67 OFFCURVE",
"599.33 80 OFFCURVE",
"638 0 CURVE",
"705 33 LINE",
"665.67 119 OFFCURVE",
"614.33 202 OFFCURVE",
"551 282 CURVE SMOOTH",
"487.67 362 OFFCURVE",
"418.33 430.67 OFFCURVE",
"343 488 CURVE",
"348 450 LINE",
"476.67 589.33 OFFCURVE",
"566.67 767.33 OFFCURVE",
"618 984 CURVE"
);
},
{
closed = 1;
nodes = (
"290 331 LINE",
"234 175 OFFCURVE",
"160.67 39 OFFCURVE",
"70 -77 CURVE",
"129 -120 LINE",
"223.67 -10 OFFCURVE",
"301.33 132.67 OFFCURVE",
"362 308 CURVE"
);
},
{
closed = 1;
nodes = (
"73 243 LINE",
"190.33 137 OFFCURVE",
"284.67 19.33 OFFCURVE",
"356 -110 CURVE",
"419 -70 LINE",
"333 81.33 OFFCURVE",
"233 203.33 OFFCURVE",
"119 296 CURVE"
);
},
{
closed = 1;
nodes = (
"332 6 LINE",
"418.67 71.33 OFFCURVE",
"482.5 142.67 OFFCURVE",
"523.5 220 CURVE SMOOTH",
"564.5 297.33 OFFCURVE",
"585 384.67 OFFCURVE",
"585 482 CURVE SMOOTH",
"585 581.33 OFFCURVE",
"568 677 OFFCURVE",
"534 769 CURVE",
"484 680 LINE",
"500.67 607.33 OFFCURVE",
"509 541.33 OFFCURVE",
"509 482 CURVE SMOOTH",
"509 398.67 OFFCURVE",
"490.83 323.17 OFFCURVE",
"454.5 255.5 CURVE SMOOTH",
"418.17 187.83 OFFCURVE",
"361.33 124.33 OFFCURVE",
"284 65 CURVE"
);
}
);
vertWidth = 1000;
width = 740;
}
);
note = u1B1AC;
unicode = 1B1AC;
},
{
glyphname = u1B1AD;
layers = (
{
hints = (
{
place = "{334, 78}";
type = Stem;
}
);
layerId = "0DB0C058-2990-4612-9839-2732D7BB62C5";
paths = (
{
closed = 1;
nodes = (
"334 1000 LINE",
"321.33 886.67 OFFCURVE",
"292 791 OFFCURVE",
"246 713 CURVE SMOOTH",
"200 635 OFFCURVE",
"127 557 OFFCURVE",
"27 479 CURVE",
"74 418 LINE",
"180.67 501.33 OFFCURVE",
"259.5 586.83 OFFCURVE",
"310.5 674.5 CURVE SMOOTH",
"361.5 762.17 OFFCURVE",
"395.33 869 OFFCURVE",
"412 995 CURVE"
);
},
{
closed = 1;
nodes = (
"695 476 LINE",
"642.33 552.67 OFFCURVE",
"592 618.5 OFFCURVE",
"544 673.5 CURVE SMOOTH",
"496 728.5 OFFCURVE",
"438.33 786.67 OFFCURVE",
"371 848 CURVE",
"322 793 LINE",
"380 741 OFFCURVE",
"431.83 688.33 OFFCURVE",
"477.5 635 CURVE SMOOTH",
"523.17 581.67 OFFCURVE",
"574 514 OFFCURVE",
"630 432 CURVE"
);
},
{
closed = 1;
nodes = (
"376 608 LINE",
"322.67 524.67 OFFCURVE",
"245.33 441.67 OFFCURVE",
"144 359 CURVE",
"193 299 LINE",
"300.33 385 OFFCURVE",
"382.67 473.67 OFFCURVE",
"440 565 CURVE"
);
},
{
closed = 1;
nodes = (
"515 298 LINE",
"469.67 238 OFFCURVE",
"411.33 175.17 OFFCURVE",
"340 109.5 CURVE SMOOTH",
"268.67 43.83 OFFCURVE",
"197 -12 OFFCURVE",
"125 -58 CURVE",
"169 -120 LINE",
"241.67 -76 OFFCURVE",
"315.17 -20.17 OFFCURVE",
"389.5 47.5 CURVE SMOOTH",
"463.83 115.17 OFFCURVE",
"527 183.33 OFFCURVE",
"579 252 CURVE"
);
},
{
closed = 1;
nodes = (
"231 126 LINE",
"340.33 206.67 OFFCURVE",
"431 297.33 OFFCURVE",
"503 398 CURVE",
"441 444 LINE",
"373 348.67 OFFCURVE",
"287.67 263.33 OFFCURVE",
"185 188 CURVE"
);
}
);
vertWidth = 1000;
width = 740;
}
);
note = u1B1AD;
unicode = 1B1AD;
},
{
glyphname = u1B1AE;
layers = (
{
hints = (
{
horizontal = 1;
place = "{734, -20}";
target = down;
type = TopGhost;
},
{
place = "{386, 77}";
type = Stem;
}
);
layerId = "0DB0C058-2990-4612-9839-2732D7BB62C5";
paths = (
{
closed = 1;
nodes = (
"362 727 LINE",
"448.67 645 OFFCURVE",
"538 537 OFFCURVE",
"630 403 CURVE",
"695 447 LINE",
"645 520.33 OFFCURVE",
"597.17 583.5 OFFCURVE",
"551.5 636.5 CURVE SMOOTH",
"505.83 689.5 OFFCURVE",
"451.67 744.67 OFFCURVE",
"389 802 CURVE"
);
},
{
closed = 1;
nodes = (
"246 134 LINE",
"347.33 237.33 OFFCURVE",
"428 348.67 OFFCURVE",
"488 468 CURVE",
"419 503 LINE",
"363 390.33 OFFCURVE",
"286.67 285 OFFCURVE",
"190 187 CURVE"
);
},
{
closed = 1;
nodes = (
"386 1000 LINE",
"364 791.33 OFFCURVE",
"298.67 616 OFFCURVE",
"190 474 CURVE",
"218 458 LINE",
"118 734 LINE",
"45 707 LINE",
"158 407 LINE",
"222 393 LINE",
"356 557.67 OFFCURVE",
"436.33 757.67 OFFCURVE",
"463 993 CURVE"
);
},
{
closed = 1;
nodes = (
"502 316 LINE",
"466.67 252.67 OFFCURVE",
"422.5 186.83 OFFCURVE",
"369.5 118.5 CURVE SMOOTH",
"316.5 50.17 OFFCURVE",
"261.33 -11.33 OFFCURVE",
"204 -66 CURVE",
"256 -122 LINE",
"316 -67.33 OFFCURVE",
"374.17 -4 OFFCURVE",
"430.5 68 CURVE SMOOTH",
"486.83 140 OFFCURVE",
"534.33 212 OFFCURVE",
"573 284 CURVE"
);
}
);
vertWidth = 1000;
width = 740;
}
);
note = u1B1AE;
unicode = 1B1AE;
},
{
glyphname = u1B1AF;
layers = (
{
hints = (
{
horizontal = 1;
place = "{229, 117}";
type = Stem;
},
{
horizontal = 1;
place = "{716, 117}";
type = Stem;
},
{
place = "{45, 110}";
type = Stem;
},
{
place = "{325, 110}";
type = Stem;
},
{
place = "{557, 80}";
type = Stem;
}
);
layerId = "0DB0C058-2990-4612-9839-2732D7BB62C5";
paths = (
{
closed = 1;
nodes = (
"270 257 LINE",
"364.67 337 OFFCURVE",
"441.33 427 OFFCURVE",
"500 527 CURVE SMOOTH",
"577.33 661.67 OFFCURVE",
"623 817.67 OFFCURVE",
"637 995 CURVE",
"557 1000 LINE",
"544.33 836 OFFCURVE",
"502 691.67 OFFCURVE",
"430 567 CURVE SMOOTH",
"388.67 493.67 OFFCURVE",
"335.33 426 OFFCURVE",
"270 364 CURVE"
);
},
{
closed = 1;
nodes = (
"216 -120 LINE",
"298.67 58.67 OFFCURVE",
"334.67 230.67 OFFCURVE",
"324 396 CURVE SMOOTH",
"316 531.33 OFFCURVE",
"275 674.33 OFFCURVE",
"201 825 CURVE",
"130 789 LINE",
"198 651.67 OFFCURVE",
"236 519 OFFCURVE",
"244 391 CURVE SMOOTH",
"254 241 OFFCURVE",
"221 82.33 OFFCURVE",
"145 -85 CURVE"
);
},
{
closed = 1;
nodes = (
"484 571 LINE",
"426 491 LINE",
"583 6 LINE",
"659 31 LINE"
);
},
{
closed = 1;
nodes = (
"45 271 OFFCURVE",
"50.17 257.33 OFFCURVE",
"60.5 246 CURVE SMOOTH",
"70.83 234.67 OFFCURVE",
"84 229 OFFCURVE",
"100 229 CURVE SMOOTH",
"116 229 OFFCURVE",
"129.17 234.5 OFFCURVE",
"139.5 245.5 CURVE SMOOTH",
"149.83 256.5 OFFCURVE",
"155 270.33 OFFCURVE",
"155 287 CURVE SMOOTH",
"155 304.33 OFFCURVE",
"150 318.5 OFFCURVE",
"140 329.5 CURVE SMOOTH",
"130 340.5 OFFCURVE",
"116.67 346 OFFCURVE",
"100 346 CURVE SMOOTH",
"84 346 OFFCURVE",
"70.83 340.5 OFFCURVE",
"60.5 329.5 CURVE SMOOTH",
"50.17 318.5 OFFCURVE",
"45 304.33 OFFCURVE",
"45 287 CURVE SMOOTH"
);
},
{
closed = 1;
nodes = (
"325 758 OFFCURVE",
"330.17 744.33 OFFCURVE",
"340.5 733 CURVE SMOOTH",
"350.83 721.67 OFFCURVE",
"364 716 OFFCURVE",
"380 716 CURVE SMOOTH",
"396 716 OFFCURVE",
"409.17 721.67 OFFCURVE",
"419.5 733 CURVE SMOOTH",
"429.83 744.33 OFFCURVE",
"435 758 OFFCURVE",
"435 774 CURVE SMOOTH",
"435 791.33 OFFCURVE",
"430 805.5 OFFCURVE",
"420 816.5 CURVE SMOOTH",
"410 827.5 OFFCURVE",
"396.67 833 OFFCURVE",
"380 833 CURVE SMOOTH",
"364 833 OFFCURVE",
"350.83 827.5 OFFCURVE",
"340.5 816.5 CURVE SMOOTH",
"330.17 805.5 OFFCURVE",
"325 791.33 OFFCURVE",
"325 774 CURVE SMOOTH"
);
}
);
vertWidth = 1000;
width = 740;
}
);
note = u1B1AF;
unicode = 1B1AF;
},
{
glyphname = u1B1B0;
layers = (
{
hints = (
{
place = "{82, 110}";
type = Stem;
},
{
place = "{363, 79}";
type = Stem;
},
{
place = "{470, 78}";
type = Stem;
},
{
place = "{563, 110}";
type = Stem;
},
{
horizontal = 1;
place = "{596, 117}";
type = Stem;
},
{
horizontal = 1;
place = "{505, 117}";
type = Stem;
}
);
layerId = "0DB0C058-2990-4612-9839-2732D7BB62C5";
paths = (
{
closed = 1;
nodes = (
"384 -120 LINE",
"422.67 -27.33 OFFCURVE",
"442 69 OFFCURVE",
"442 169 CURVE SMOOTH",
"442 226.33 OFFCURVE",
"436 286 OFFCURVE",
"424 348 CURVE",
"347 332 LINE",
"357.67 271.33 OFFCURVE",
"363 217 OFFCURVE",
"363 169 CURVE SMOOTH",
"363 80.33 OFFCURVE",
"346 -4.67 OFFCURVE",
"312 -86 CURVE"
);
},
{
closed = 1;
nodes = (
"630 326 LINE",
"570 443.33 OFFCURVE",
"502 544.67 OFFCURVE",
"426 630 CURVE SMOOTH",
"342.67 722.67 OFFCURVE",
"256.33 804.33 OFFCURVE",
"167 875 CURVE",
"116 816 LINE",
"206 745.33 OFFCURVE",
"295.33 658.33 OFFCURVE",
"384 555 CURVE SMOOTH",
"454 471.67 OFFCURVE",
"512.67 383.67 OFFCURVE",
"560 291 CURVE"
);
},
{
closed = 1;
nodes = (
"112 231 LINE",
"248 330.33 OFFCURVE",
"350.67 441.33 OFFCURVE",
"420 564 CURVE SMOOTH",
"488.67 686 OFFCURVE",
"531.33 829 OFFCURVE",
"548 993 CURVE",
"470 1000 LINE",
"455.33 862.67 OFFCURVE",
"420.67 740.67 OFFCURVE",
"366 634 CURVE SMOOTH",
"301.33 510 OFFCURVE",
"201.33 397.67 OFFCURVE",
"66 297 CURVE"
);
},
{
closed = 1;
nodes = (
"563 638 OFFCURVE",
"568.17 624.33 OFFCURVE",
"578.5 613 CURVE SMOOTH",
"588.83 601.67 OFFCURVE",
"602 596 OFFCURVE",
"618 596 CURVE SMOOTH",
"634 596 OFFCURVE",
"647.17 601.67 OFFCURVE",
"657.5 613 CURVE SMOOTH",
"667.83 624.33 OFFCURVE",
"673 638 OFFCURVE",
"673 654 CURVE SMOOTH",
"673 671.33 OFFCURVE",
"668 685.5 OFFCURVE",
"658 696.5 CURVE SMOOTH",
"648 707.5 OFFCURVE",
"634.67 713 OFFCURVE",
"618 713 CURVE SMOOTH",
"602 713 OFFCURVE",
"588.83 707.5 OFFCURVE",
"578.5 696.5 CURVE SMOOTH",
"568.17 685.5 OFFCURVE",
"563 671.33 OFFCURVE",
"563 654 CURVE SMOOTH"
);
},
{
closed = 1;
nodes = (
"82 547 OFFCURVE",
"87.17 533.33 OFFCURVE",
"97.5 522 CURVE SMOOTH",
"107.83 510.67 OFFCURVE",
"121 505 OFFCURVE",
"137 505 CURVE SMOOTH",
"153 505 OFFCURVE",
"166.17 510.5 OFFCURVE",
"176.5 521.5 CURVE SMOOTH",
"186.83 532.5 OFFCURVE",
"192 546.33 OFFCURVE",
"192 563 CURVE SMOOTH",
"192 580.33 OFFCURVE",
"187 594.5 OFFCURVE",
"177 605.5 CURVE SMOOTH",
"167 616.5 OFFCURVE",
"153.67 622 OFFCURVE",
"137 622 CURVE SMOOTH",
"121 622 OFFCURVE",
"107.83 616.5 OFFCURVE",
"97.5 605.5 CURVE SMOOTH",
"87.17 594.5 OFFCURVE",
"82 580.33 OFFCURVE",
"82 563 CURVE SMOOTH"
);
}
);
vertWidth = 1000;
width = 740;
}
);
note = u1B1B0;
unicode = 1B1B0;
},
{
glyphname = u1B1B1;
layers = (
{
hints = (
{
horizontal = 1;
place = "{0, 21}";
target = up;
type = BottomGhost;
},
{
place = "{198, 76}";
type = Stem;
},
{
place = "{412, 79}";
type = Stem;
}
);
layerId = "0DB0C058-2990-4612-9839-2732D7BB62C5";
paths = (
{
closed = 1;
nodes = (
"412 1000 LINE",
"397.33 920 OFFCURVE",
"377 846 OFFCURVE",
"351 778 CURVE SMOOTH",
"294.33 630 OFFCURVE",
"202.33 495.33 OFFCURVE",
"75 374 CURVE",
"128 314 LINE",
"265.33 446 OFFCURVE",
"364 591.67 OFFCURVE",
"424 751 CURVE SMOOTH",
"454 827 OFFCURVE",
"476.33 906 OFFCURVE",
"491 988 CURVE"
);
},
{
closed = 1;
nodes = (
"274 -117 LINE",
"272 23 OFFCURVE",
"237.33 149 OFFCURVE",
"170 261 CURVE",
"105 220 LINE",
"167 108.67 OFFCURVE",
"198 -4.67 OFFCURVE",
"198 -120 CURVE"
);
},
{
closed = 1;
nodes = (
"387 53 LINE",
"500.33 184.33 OFFCURVE",
"588.33 313.33 OFFCURVE",
"651 440 CURVE",
"581 475 LINE",
"517.67 349.67 OFFCURVE",
"445.33 239.33 OFFCURVE",
"364 144 CURVE",
"384 134 LINE",
"356.67 333.33 OFFCURVE",
"284 560.67 OFFCURVE",
"166 816 CURVE",
"96 780 LINE",
"217.33 518.67 OFFCURVE",
"291.67 285.67 OFFCURVE",
"319 81 CURVE"
);
},
{
closed = 1;
nodes = (
"371 488 LINE",
"548 0 LINE",
"616 28 LINE",
"439 516 LINE"
);
}
);
vertWidth = 1000;
width = 740;
}
);
note = u1B1B1;
unicode = 1B1B1;
},
{
glyphname = u1B1B2;
layers = (
{
hints = (
{
horizontal = 1;
place = "{415, 71}";
type = Stem;
},
{
horizontal = 1;
place = "{650, 71}";
type = Stem;
},
{
place = "{35, 81}";
type = Stem;
},
{
place = "{202, 80}";
type = Stem;
},
{
place = "{431, 81}";
type = Stem;
},
{
place = "{532, 80}";
type = Stem;
}
);
layerId = "0DB0C058-2990-4612-9839-2732D7BB62C5";
paths = (
{
closed = 1;
nodes = (
"466 -120 LINE",
"496.67 -30.67 OFFCURVE",
"512 62.33 OFFCURVE",
"512 159 CURVE SMOOTH",
"512 218.33 OFFCURVE",
"508 281.33 OFFCURVE",
"500 348 CURVE",
"421 335 LINE",
"427.67 267.67 OFFCURVE",
"431 209 OFFCURVE",
"431 159 CURVE SMOOTH",
"431 71 OFFCURVE",
"417.67 -13 OFFCURVE",
"391 -93 CURVE"
);
},
{
closed = 1;
nodes = (
"695 331 LINE",
"647 441 OFFCURVE",
"586.33 544.67 OFFCURVE",
"513 642 CURVE SMOOTH",
"447.67 724 OFFCURVE",
"367.33 814 OFFCURVE",
"272 912 CURVE",
"215 855 LINE",
"311.67 758.33 OFFCURVE",
"395 663 OFFCURVE",
"465 569 CURVE SMOOTH",
"530.33 479.67 OFFCURVE",
"582.67 389.33 OFFCURVE",
"622 298 CURVE"
);
},
{
closed = 1;
nodes = (
"218 208 LINE",
"346.67 316.67 OFFCURVE",
"442.67 435 OFFCURVE",
"506 563 CURVE SMOOTH",
"570.67 693 OFFCURVE",
"606 838 OFFCURVE",
"612 998 CURVE",
"532 1000 LINE",
"525.33 850 OFFCURVE",
"493 717 OFFCURVE",
"435 601 CURVE SMOOTH",
"375 480.33 OFFCURVE",
"286 369.67 OFFCURVE",
"168 269 CURVE"
);
},
{
closed = 1;
nodes = (
"193.33 415 OFFCURVE",
"222 428.83 OFFCURVE",
"246 456.5 CURVE SMOOTH",
"270 484.17 OFFCURVE",
"282 521 OFFCURVE",
"282 567 CURVE SMOOTH",
"282 613.67 OFFCURVE",
"270.17 651 OFFCURVE",
"246.5 679 CURVE SMOOTH",
"222.83 707 OFFCURVE",
"194 721 OFFCURVE",
"160 721 CURVE SMOOTH",
"125.33 721 OFFCURVE",
"95.83 707 OFFCURVE",
"71.5 679 CURVE SMOOTH",
"47.17 651 OFFCURVE",
"35 613.67 OFFCURVE",
"35 567 CURVE SMOOTH",
"35 521 OFFCURVE",
"47.17 484.17 OFFCURVE",
"71.5 456.5 CURVE SMOOTH",
"95.83 428.83 OFFCURVE",
"125.33 415 OFFCURVE",
"160 415 CURVE SMOOTH"
);
},
{
closed = 1;
nodes = (
"146.67 486 OFFCURVE",
"136 493.33 OFFCURVE",
"128 508 CURVE SMOOTH",
"120 522.67 OFFCURVE",
"116 542.33 OFFCURVE",
"116 567 CURVE SMOOTH",
"116 591.67 OFFCURVE",
"120 611.67 OFFCURVE",
"128 627 CURVE SMOOTH",
"136 642.33 OFFCURVE",
"146.67 650 OFFCURVE",
"160 650 CURVE SMOOTH",
"172.67 650 OFFCURVE",
"182.83 642.33 OFFCURVE",
"190.5 627 CURVE SMOOTH",
"198.17 611.67 OFFCURVE",
"202 591.67 OFFCURVE",
"202 567 CURVE SMOOTH",
"202 542.33 OFFCURVE",
"198.17 522.67 OFFCURVE",
"190.5 508 CURVE SMOOTH",
"182.83 493.33 OFFCURVE",
"172.67 486 OFFCURVE",
"160 486 CURVE SMOOTH"
);
}
);
vertWidth = 1000;
width = 740;
}
);
note = u1B1B2;
unicode = 1B1B2;
},
{
glyphname = u1B1B3;
layers = (
{
hints = (
{
horizontal = 1;
place = "{-32, 111}";
type = Stem;
},
{
horizontal = 1;
place = "{109, 111}";
type = Stem;
},
{
horizontal = 1;
place = "{740, -20}";
target = down;
type = TopGhost;
},
{
place = "{101, 104}";
type = Stem;
},
{
place = "{336, 82}";
type = Stem;
},
{
place = "{430, 81}";
type = Stem;
},
{
place = "{540, 82}";
type = Stem;
},
{
place = "{542, 104}";
type = Stem;
}
);
layerId = "0DB0C058-2990-4612-9839-2732D7BB62C5";
paths = (
{
closed = 1;
nodes = (
"159 443 LINE",
"418.33 549.67 OFFCURVE",
"572.67 730.67 OFFCURVE",
"622 986 CURVE",
"540 1000 LINE",
"495.33 782 OFFCURVE",
"357 622 OFFCURVE",
"125 520 CURVE"
);
},
{
closed = 1;
nodes = (
"149 193 LINE",
"273.67 238.33 OFFCURVE",
"365.17 292.33 OFFCURVE",
"423.5 355 CURVE SMOOTH",
"481.83 417.67 OFFCURVE",
"511 492.33 OFFCURVE",
"511 579 CURVE SMOOTH",
"511 628.33 OFFCURVE",
"499.67 682 OFFCURVE",
"477 740 CURVE",
"404 708 LINE",
"421.33 660 OFFCURVE",
"430 617 OFFCURVE",
"430 579 CURVE SMOOTH",
"430 515.67 OFFCURVE",
"404.83 458.83 OFFCURVE",
"354.5 408.5 CURVE SMOOTH",
"304.17 358.17 OFFCURVE",
"226 311.67 OFFCURVE",
"120 269 CURVE"
);
},
{
closed = 1;
nodes = (
"391 -120 LINE",
"409 -37.33 OFFCURVE",
"418 52.67 OFFCURVE",
"418 150 CURVE SMOOTH",
"418 220 OFFCURVE",
"413.67 285.67 OFFCURVE",
"405 347 CURVE",
"324 333 LINE",
"332 273 OFFCURVE",
"336 211.67 OFFCURVE",
"336 149 CURVE SMOOTH",
"336 57.67 OFFCURVE",
"327.33 -27.33 OFFCURVE",
"310 -106 CURVE"
);
},
{
closed = 1;
nodes = (
"101 7.67 OFFCURVE",
"106 -5.33 OFFCURVE",
"116 -16 CURVE SMOOTH",
"126 -26.67 OFFCURVE",
"138.33 -32 OFFCURVE",
"153 -32 CURVE SMOOTH",
"169 -32 OFFCURVE",
"181.67 -26.83 OFFCURVE",
"191 -16.5 CURVE SMOOTH",
"200.33 -6.17 OFFCURVE",
"205 7 OFFCURVE",
"205 23 CURVE SMOOTH",
"205 39.67 OFFCURVE",
"200.33 53.17 OFFCURVE",
"191 63.5 CURVE SMOOTH",
"181.67 73.83 OFFCURVE",
"169 79 OFFCURVE",
"153 79 CURVE SMOOTH",
"137.67 79 OFFCURVE",
"125.17 73.83 OFFCURVE",
"115.5 63.5 CURVE SMOOTH",
"105.83 53.17 OFFCURVE",
"101 39.67 OFFCURVE",
"101 23 CURVE SMOOTH"
);
},
{
closed = 1;
nodes = (
"542 148.67 OFFCURVE",
"547 135.67 OFFCURVE",
"557 125 CURVE SMOOTH",
"567 114.33 OFFCURVE",
"579.33 109 OFFCURVE",
"594 109 CURVE SMOOTH",
"610 109 OFFCURVE",
"622.67 114.17 OFFCURVE",
"632 124.5 CURVE SMOOTH",
"641.33 134.83 OFFCURVE",
"646 148 OFFCURVE",
"646 164 CURVE SMOOTH",
"646 180.67 OFFCURVE",
"641.33 194.17 OFFCURVE",
"632 204.5 CURVE SMOOTH",
"622.67 214.83 OFFCURVE",
"610 220 OFFCURVE",
"594 220 CURVE SMOOTH",
"578.67 220 OFFCURVE",
"566.17 214.83 OFFCURVE",
"556.5 204.5 CURVE SMOOTH",
"546.83 194.17 OFFCURVE",
"542 180.67 OFFCURVE",
"542 164 CURVE SMOOTH"
);
}
);
vertWidth = 1000;
width = 740;
}
);
note = u1B1B3;
unicode = 1B1B3;
},
{
glyphname = u1B1B4;
layers = (
{
hints = (
{
place = "{534, 82}";
type = Stem;
}
);
layerId = "0DB0C058-2990-4612-9839-2732D7BB62C5";
paths = (
{
closed = 1;
nodes = (
"91 360 LINE",
"260 -105 LINE",
"306 -120 LINE",
"426.67 -30.67 OFFCURVE",
"539.33 71 OFFCURVE",
"644 185 CURVE",
"582 237 LINE",
"501.33 145 OFFCURVE",
"399.67 51.67 OFFCURVE",
"277 -43 CURVE",
"336 -68 LINE",
"168 393 LINE"
);
},
{
closed = 1;
nodes = (
"557 428 LINE",
"501 424 LINE",
"406.33 326 OFFCURVE",
"307 236 OFFCURVE",
"203 154 CURVE",
"234 75 LINE",
"336 154.33 OFFCURVE",
"436.33 243.67 OFFCURVE",
"535 343 CURVE",
"497 354 LINE",
"574 142 LINE",
"644 185 LINE"
);
},
{
closed = 1;
nodes = (
"534 1000 LINE",
"520.67 908 OFFCURVE",
"494.17 823.83 OFFCURVE",
"454.5 747.5 CURVE SMOOTH",
"414.83 671.17 OFFCURVE",
"366.33 603.5 OFFCURVE",
"309 544.5 CURVE SMOOTH",
"251.67 485.5 OFFCURVE",
"179 424 OFFCURVE",
"91 360 CURVE",
"134 289 LINE",
"206 341.67 OFFCURVE",
"267.17 391.33 OFFCURVE",
"317.5 438 CURVE SMOOTH",
"367.83 484.67 OFFCURVE",
"414 536 OFFCURVE",
"456 592 CURVE SMOOTH",
"498 648 OFFCURVE",
"532 708.33 OFFCURVE",
"558 773 CURVE SMOOTH",
"584 837.67 OFFCURVE",
"603.33 909.33 OFFCURVE",
"616 988 CURVE"
);
}
);
vertWidth = 1000;
width = 740;
}
);
note = u1B1B4;
unicode = 1B1B4;
},
{
glyphname = u1B1B5;
layers = (
{
hints = (
{
horizontal = 1;
place = "{234, 117}";
type = Stem;
},
{
place = "{360, 82}";
type = Stem;
},
{
place = "{522, 110}";
type = Stem;
},
{
place = "{441, 76}";
type = Stem;
},
{
horizontal = 1;
place = "{500, 75}";
type = Stem;
},
{
horizontal = 1;
place = "{518, 117}";
type = Stem;
}
);
layerId = "0DB0C058-2990-4612-9839-2732D7BB62C5";
paths = (
{
closed = 1;
nodes = (
"136 -20 LINE",
"240.67 35.33 OFFCURVE",
"317.83 98 OFFCURVE",
"367.5 168 CURVE SMOOTH",
"417.17 238 OFFCURVE",
"442 319.33 OFFCURVE",
"442 412 CURVE SMOOTH",
"442 513.33 OFFCURVE",
"417.5 601 OFFCURVE",
"368.5 675 CURVE SMOOTH",
"319.5 749 OFFCURVE",
"243.33 813.67 OFFCURVE",
"140 869 CURVE",
"102 799 LINE",
"190.67 746.33 OFFCURVE",
"255.83 688.5 OFFCURVE",
"297.5 625.5 CURVE SMOOTH",
"339.17 562.5 OFFCURVE",
"360 491.33 OFFCURVE",
"360 412 CURVE SMOOTH",
"360 336.67 OFFCURVE",
"338.83 269.83 OFFCURVE",
"296.5 211.5 CURVE SMOOTH",
"254.17 153.17 OFFCURVE",
"188.67 100 OFFCURVE",
"100 52 CURVE"
);
},
{
closed = 1;
nodes = (
"517 -114 LINE",
"506.33 18 OFFCURVE",
"471.83 123.67 OFFCURVE",
"413.5 203 CURVE SMOOTH",
"355.17 282.33 OFFCURVE",
"265 341.33 OFFCURVE",
"143 380 CURVE",
"122 305 LINE",
"225.33 267.67 OFFCURVE",
"301.33 215.5 OFFCURVE",
"350 148.5 CURVE SMOOTH",
"398.67 81.5 OFFCURVE",
"429 -8 OFFCURVE",
"441 -120 CURVE"
);
},
{
closed = 1;
nodes = (
"439 1000 LINE",
"428.33 884.67 OFFCURVE",
"398.83 793.33 OFFCURVE",
"350.5 726 CURVE SMOOTH",
"302.17 658.67 OFFCURVE",
"225.67 608.33 OFFCURVE",
"121 575 CURVE",
"146 500 LINE",
"266 538.67 OFFCURVE",
"354.83 597.67 OFFCURVE",
"412.5 677 CURVE SMOOTH",
"470.17 756.33 OFFCURVE",
"504.33 862 OFFCURVE",
"515 994 CURVE"
);
},
{
closed = 1;
nodes = (
"522 276 OFFCURVE",
"527.17 262.33 OFFCURVE",
"537.5 251 CURVE SMOOTH",
"547.83 239.67 OFFCURVE",
"561 234 OFFCURVE",
"577 234 CURVE SMOOTH",
"593 234 OFFCURVE",
"606.17 239.67 OFFCURVE",
"616.5 251 CURVE SMOOTH",
"626.83 262.33 OFFCURVE",
"632 276 OFFCURVE",
"632 292 CURVE SMOOTH",
"632 309.33 OFFCURVE",
"627 323.5 OFFCURVE",
"617 334.5 CURVE SMOOTH",
"607 345.5 OFFCURVE",
"593.67 351 OFFCURVE",
"577 351 CURVE SMOOTH",
"561 351 OFFCURVE",
"547.83 345.5 OFFCURVE",
"537.5 334.5 CURVE SMOOTH",
"527.17 323.5 OFFCURVE",
"522 309.33 OFFCURVE",
"522 292 CURVE SMOOTH"
);
},
{
closed = 1;
nodes = (
"520 560 OFFCURVE",
"525.17 546.33 OFFCURVE",
"535.5 535 CURVE SMOOTH",
"545.83 523.67 OFFCURVE",
"559 518 OFFCURVE",
"575 518 CURVE SMOOTH",
"591 518 OFFCURVE",
"604.17 523.67 OFFCURVE",
"614.5 535 CURVE SMOOTH",
"624.83 546.33 OFFCURVE",
"630 560 OFFCURVE",
"630 576 CURVE SMOOTH",
"630 593.33 OFFCURVE",
"625 607.5 OFFCURVE",
"615 618.5 CURVE SMOOTH",
"605 629.5 OFFCURVE",
"591.67 635 OFFCURVE",
"575 635 CURVE SMOOTH",
"559 635 OFFCURVE",
"545.83 629.5 OFFCURVE",
"535.5 618.5 CURVE SMOOTH",
"525.17 607.5 OFFCURVE",
"520 593.33 OFFCURVE",
"520 576 CURVE SMOOTH"
);
}
);
vertWidth = 1000;
width = 740;
}
);
note = u1B1B5;
unicode = 1B1B5;
},
{
glyphname = u1B1B6;
layers = (
{
hints = (
{
horizontal = 1;
place = "{-124, 86}";
type = Stem;
},
{
place = "{49, 81}";
type = Stem;
},
{
place = "{448, 79}";
type = Stem;
},
{
place = "{630, 76}";
type = Stem;
}
);
layerId = "0DB0C058-2990-4612-9839-2732D7BB62C5";
paths = (
{
closed = 1;
nodes = (
"275.67 -124 OFFCURVE",
"342.33 -79.33 OFFCURVE",
"413 10 CURVE SMOOTH",
"520.33 146.67 OFFCURVE",
"618 368.67 OFFCURVE",
"706 676 CURVE",
"630 698 LINE",
"550.67 422 OFFCURVE",
"462.67 216 OFFCURVE",
"366 80 CURVE SMOOTH",
"309.33 1.33 OFFCURVE",
"258.33 -38 OFFCURVE",
"213 -38 CURVE SMOOTH",
"170.33 -38 OFFCURVE",
"142.67 -9.67 OFFCURVE",
"130 47 CURVE",
"49 28 LINE",
"68.33 -73.33 OFFCURVE",
"123 -124 OFFCURVE",
"213 -124 CURVE SMOOTH"
);
},
{
closed = 1;
nodes = (
"298 291 LINE",
"423.33 487 OFFCURVE",
"499.67 721.33 OFFCURVE",
"527 994 CURVE",
"448 1000 LINE",
"423.33 752 OFFCURVE",
"356.67 538 OFFCURVE",
"248 358 CURVE"
);
},
{
closed = 1;
nodes = (
"537 321 LINE",
"584 393 LINE",
"242 880 LINE",
"177 834 LINE"
);
},
{
closed = 1;
nodes = (
"409 80 LINE",
"454 156 LINE",
"114 639 LINE",
"49 593 LINE"
);
}
);
vertWidth = 1000;
width = 740;
}
);
note = u1B1B6;
unicode = 1B1B6;
},
{
glyphname = u1B1B7;
layers = (
{
hints = (
{
horizontal = 1;
place = "{556, 21}";
target = up;
type = BottomGhost;
},
{
place = "{311, 76}";
type = Stem;
},
{
place = "{408, 78}";
type = Stem;
},
{
place = "{434, 78}";
type = Stem;
}
);
layerId = "0DB0C058-2990-4612-9839-2732D7BB62C5";
paths = (
{
closed = 1;
nodes = (
"408 1000 LINE",
"386.67 846 OFFCURVE",
"347.33 725.33 OFFCURVE",
"290 638 CURVE",
"316 624 LINE",
"213 908 LINE",
"140 881 LINE",
"255 567 LINE",
"328 556 LINE",
"405.33 666.67 OFFCURVE",
"458 812.33 OFFCURVE",
"486 993 CURVE"
);
},
{
closed = 1;
nodes = (
"553 756 LINE",
"481.67 594.67 OFFCURVE",
"342.33 472.67 OFFCURVE",
"135 390 CURVE",
"166 317 LINE",
"391.33 408.33 OFFCURVE",
"544 542.67 OFFCURVE",
"624 720 CURVE"
);
},
{
closed = 1;
nodes = (
"427 529 LINE",
"431.67 508.33 OFFCURVE",
"434 487.33 OFFCURVE",
"434 466 CURVE SMOOTH",
"434 404 OFFCURVE",
"408.5 348.5 OFFCURVE",
"357.5 299.5 CURVE SMOOTH",
"306.5 250.5 OFFCURVE",
"227.33 205.67 OFFCURVE",
"120 165 CURVE",
"147 90 LINE",
"270.33 138 OFFCURVE",
"362 193.67 OFFCURVE",
"422 257 CURVE SMOOTH",
"482 320.33 OFFCURVE",
"512 393.33 OFFCURVE",
"512 476 CURVE SMOOTH",
"512 512 OFFCURVE",
"506 549.67 OFFCURVE",
"494 589 CURVE"
);
},
{
closed = 1;
nodes = (
"387 -120 LINE",
"415.67 -4 OFFCURVE",
"420.33 125 OFFCURVE",
"401 267 CURVE",
"325 252 LINE",
"343 118 OFFCURVE",
"338.33 -1.67 OFFCURVE",
"311 -107 CURVE"
);
}
);
vertWidth = 1000;
width = 740;
}
);
note = u1B1B7;
unicode = 1B1B7;
},
{
glyphname = u1B1B8;
layers = (
{
hints = (
{
horizontal = 1;
place = "{29, 111}";
type = Stem;
},
{
horizontal = 1;
place = "{272, 111}";
type = Stem;
},
{
place = "{576, 77}";
type = Stem;
},
{
place = "{81, 104}";
type = Stem;
},
{
place = "{45, 103}";
type = Stem;
}
);
layerId = "0DB0C058-2990-4612-9839-2732D7BB62C5";
paths = (
{
closed = 1;
nodes = (
"415 -120 LINE",
"458.33 -13.33 OFFCURVE",
"480 92.33 OFFCURVE",
"480 197 CURVE SMOOTH",
"480 361 OFFCURVE",
"428.33 579.33 OFFCURVE",
"325 852 CURVE",
"254 820 LINE",
"352.67 560.67 OFFCURVE",
"402 353 OFFCURVE",
"402 197 CURVE SMOOTH",
"402 100.33 OFFCURVE",
"382.33 4.33 OFFCURVE",
"343 -91 CURVE"
);
},
{
closed = 1;
nodes = (
"81 68.67 OFFCURVE",
"86 55.67 OFFCURVE",
"96 45 CURVE SMOOTH",
"106 34.33 OFFCURVE",
"118.33 29 OFFCURVE",
"133 29 CURVE SMOOTH",
"149 29 OFFCURVE",
"161.67 34.17 OFFCURVE",
"171 44.5 CURVE SMOOTH",
"180.33 54.83 OFFCURVE",
"185 68 OFFCURVE",
"185 84 CURVE SMOOTH",
"185 100.67 OFFCURVE",
"180.33 114.17 OFFCURVE",
"171 124.5 CURVE SMOOTH",
"161.67 134.83 OFFCURVE",
"149 140 OFFCURVE",
"133 140 CURVE SMOOTH",
"117.67 140 OFFCURVE",
"105.17 134.83 OFFCURVE",
"95.5 124.5 CURVE SMOOTH",
"85.83 114.17 OFFCURVE",
"81 100.67 OFFCURVE",
"81 84 CURVE SMOOTH"
);
},
{
closed = 1;
nodes = (
"45 311.67 OFFCURVE",
"50 298.67 OFFCURVE",
"60 288 CURVE SMOOTH",
"70 277.33 OFFCURVE",
"82.33 272 OFFCURVE",
"97 272 CURVE SMOOTH",
"112.33 272 OFFCURVE",
"124.67 277.33 OFFCURVE",
"134 288 CURVE SMOOTH",
"143.33 298.67 OFFCURVE",
"148 311.67 OFFCURVE",
"148 327 CURVE SMOOTH",
"148 343 OFFCURVE",
"143.33 356.33 OFFCURVE",
"134 367 CURVE SMOOTH",
"124.67 377.67 OFFCURVE",
"112.33 383 OFFCURVE",
"97 383 CURVE SMOOTH",
"82.33 383 OFFCURVE",
"70 377.67 OFFCURVE",
"60 367 CURVE SMOOTH",
"50 356.33 OFFCURVE",
"45 343 OFFCURVE",
"45 327 CURVE SMOOTH"
);
},
{
closed = 1;
nodes = (
"255 96 LINE",
"339 147.33 OFFCURVE",
"415 201 OFFCURVE",
"483 257 CURVE SMOOTH",
"557 318.33 OFFCURVE",
"620.33 384.33 OFFCURVE",
"673 455 CURVE",
"611 499 LINE",
"563.67 433.67 OFFCURVE",
"505.33 372.67 OFFCURVE",
"436 316 CURVE SMOOTH",
"374 264.67 OFFCURVE",
"302 213.67 OFFCURVE",
"220 163 CURVE"
);
},
{
closed = 1;
nodes = (
"239 351 LINE",
"361.67 433.67 OFFCURVE",
"458 524.33 OFFCURVE",
"528 623 CURVE SMOOTH",
"593.33 715 OFFCURVE",
"635 838.67 OFFCURVE",
"653 994 CURVE",
"576 1000 LINE",
"560.67 858.67 OFFCURVE",
"524 747 OFFCURVE",
"466 665 CURVE SMOOTH",
"402.67 575.67 OFFCURVE",
"313.33 492.33 OFFCURVE",
"198 415 CURVE"
);
}
);
vertWidth = 1000;
width = 740;
}
);
note = u1B1B8;
unicode = 1B1B8;
},
{
glyphname = u1B1B9;
layers = (
{
hints = (
{
place = "{174, 76}";
type = Stem;
},
{
place = "{566, 76}";
type = Stem;
}
);
layerId = "0DB0C058-2990-4612-9839-2732D7BB62C5";
paths = (
{
closed = 1;
nodes = (
"631 498 LINE",
"539 368.67 OFFCURVE",
"429.33 257 OFFCURVE",
"302 163 CURVE",
"347 100 LINE",
"485 202 OFFCURVE",
"601 320 OFFCURVE",
"695 454 CURVE"
);
},
{
closed = 1;
nodes = (
"242 330 LINE",
"368.67 426 OFFCURVE",
"466.33 537 OFFCURVE",
"535 663 CURVE SMOOTH",
"587.67 759.67 OFFCURVE",
"623.33 868.67 OFFCURVE",
"642 990 CURVE",
"566 1000 LINE",
"546.67 886 OFFCURVE",
"513.67 786.33 OFFCURVE",
"467 701 CURVE SMOOTH",
"405 585.67 OFFCURVE",
"315 483.33 OFFCURVE",
"197 394 CURVE"
);
},
{
closed = 1;
nodes = (
"464 259 LINE",
"528 312 LINE",
"327 865 LINE",
"253 839 LINE"
);
},
{
closed = 1;
nodes = (
"104 -120 LINE",
"192.67 -8 OFFCURVE",
"241.33 127.33 OFFCURVE",
"250 286 CURVE",
"174 290 LINE",
"166 146 OFFCURVE",
"123 22.67 OFFCURVE",
"45 -80 CURVE"
);
},
{
closed = 1;
nodes = (
"373 -77 LINE",
"329 -2.33 OFFCURVE",
"275.67 71.33 OFFCURVE",
"213 144 CURVE",
"169 85 LINE",
"221 22.33 OFFCURVE",
"267.33 -44.67 OFFCURVE",
"308 -116 CURVE"
);
}
);
vertWidth = 1000;
width = 740;
}
);
note = u1B1B9;
unicode = 1B1B9;
},
{
glyphname = u1B1BA;
layers = (
{
hints = (
{
place = "{540, 80}";
type = Stem;
}
);
layerId = "0DB0C058-2990-4612-9839-2732D7BB62C5";
paths = (
{
closed = 1;
nodes = (
"540 1000 LINE",
"496.67 818.67 OFFCURVE",
"359.67 644.33 OFFCURVE",
"129 477 CURVE",
"173 412 LINE",
"253 470 OFFCURVE",
"321.33 526.33 OFFCURVE",
"378 581 CURVE SMOOTH",
"434.67 635.67 OFFCURVE",
"484.67 697.5 OFFCURVE",
"528 766.5 CURVE SMOOTH",
"571.33 835.5 OFFCURVE",
"602 907.67 OFFCURVE",
"620 983 CURVE"
);
},
{
closed = 1;
nodes = (
"218 234 LINE",
"275 226 LINE",
"354.33 284.67 OFFCURVE",
"428.33 346.67 OFFCURVE",
"497 412 CURVE",
"459 439 LINE",
"547 198 LINE",
"619 241 LINE",
"524 502 LINE",
"471 501 LINE",
"393.67 426.33 OFFCURVE",
"318 362 OFFCURVE",
"244 308 CURVE",
"289 286 LINE",
"206 515 LINE",
"129 477 LINE"
);
},
{
closed = 1;
nodes = (
"164 -120 LINE",
"329.33 -6.67 OFFCURVE",
"481 113.67 OFFCURVE",
"619 241 CURVE",
"580 325 LINE",
"452.67 197.67 OFFCURVE",
"299.33 72.33 OFFCURVE",
"120 -51 CURVE"
);
}
);
vertWidth = 1000;
width = 740;
}
);
note = u1B1BA;
unicode = 1B1BA;
},
{
glyphname = u1B1BB;
layers = (
{
layerId = "0DB0C058-2990-4612-9839-2732D7BB62C5";
paths = (
{
closed = 1;
nodes = (
"268 -120 LINE",
"300.67 -74.67 OFFCURVE",
"320 -21.33 OFFCURVE",
"326 40 CURVE SMOOTH",
"332 101.33 OFFCURVE",
"323.33 165.33 OFFCURVE",
"300 232 CURVE SMOOTH",
"178 566 LINE",
"103 539 LINE",
"224 204 LINE SMOOTH",
"264.67 91.33 OFFCURVE",
"257.33 -3 OFFCURVE",
"202 -79 CURVE"
);
},
{
closed = 1;
nodes = (
"486 857 LINE",
"422 802 LINE",
"578 369 LINE",
"639 430 LINE"
);
},
{
closed = 1;
nodes = (
"582 487 LINE",
"488 377 OFFCURVE",
"384 280.33 OFFCURVE",
"270 197 CURVE",
"315 132 LINE",
"367 170 OFFCURVE",
"423.83 217.33 OFFCURVE",
"485.5 274 CURVE SMOOTH",
"547.17 330.67 OFFCURVE",
"598.33 382.67 OFFCURVE",
"639 430 CURVE"
);
},
{
closed = 1;
nodes = (
"509 652 LINE",
"474.33 614 OFFCURVE",
"427 568 OFFCURVE",
"367 514 CURVE SMOOTH",
"307 460 OFFCURVE",
"257 418.33 OFFCURVE",
"217 389 CURVE",
"248 316 LINE",
"290.67 347.33 OFFCURVE",
"340 388 OFFCURVE",
"396 438 CURVE SMOOTH",
"452 488 OFFCURVE",
"501 534.67 OFFCURVE",
"543 578 CURVE"
);
},
{
closed = 1;
nodes = (
"489 1000 LINE",
"473 948 OFFCURVE",
"450.33 897.67 OFFCURVE",
"421 849 CURVE SMOOTH",
"364.33 757 OFFCURVE",
"258.33 654.33 OFFCURVE",
"103 541 CURVE",
"146 474 LINE",
"310 593.33 OFFCURVE",
"424.67 705.33 OFFCURVE",
"490 810 CURVE SMOOTH",
"520.67 859.33 OFFCURVE",
"546 915.67 OFFCURVE",
"566 979 CURVE"
);
}
);
vertWidth = 1000;
width = 740;
}
);
note = u1B1BB;
unicode = 1B1BB;
},
